<?xml version="1.0" encoding="utf-8"?>
<!-- Uploaded to: SVG Repo, www.svgrepo.com, Generator: SVG Repo Mixer Tools -->
<svg width="800px" height="800px" viewBox="0 0 1024 1024" class="icon"  version="1.1" xmlns="http://www.w3.org/2000/svg"><path d="M755.6 584.2H382c-14.6 0-26.8 11.8-28 26.9l-62.4 303.6v2c0 16.2 12.6 29.3 28 29.3h498.3c15.5 0 28-13.1 28-29.3v-2l-62.4-303.6c-1.2-15.1-13.3-26.9-27.9-26.9zM685.4 352.2c0 75.4-41.2 136.6-116.6 136.6s-136.6-61.2-136.6-136.6 61.2-136.6 136.6-136.6 116.6 61.2 116.6 136.6z" fill="#CCCCCC" /><path d="M330.6 353.7c0 97.9 80.4 177.5 179.3 177.5 47.9 0 92.9-18.4 126.7-51.9 33.9-33.5 52.6-78.1 52.6-125.6 0-97.9-80.4-177.5-179.3-177.5-98.8 0-179.3 79.6-179.3 177.5z m179.3-137.5c76.8 0 139.3 61.7 139.3 137.5s-62.5 137.5-139.3 137.5-139.3-61.7-139.3-137.5 62.5-137.5 139.3-137.5zM750.4 545.2H270.9c-18.8 0-34.4 13.6-35.9 30.9l-80.1 348.8v2.3c0 18.6 16.2 33.7 36 33.7h639.5c19.9 0 36-15.1 36-33.7v-2.3l-80.1-348.8c-1.6-17.3-17.1-30.9-35.9-30.9zM196.8 920.9L274 585.2h234.7l-64.9 64.2c-2.9 2.9-4.1 7.1-3.1 11.1l61 241.4c3 11.8 19.9 11.8 22.9 0l61.1-241.4c1-4-0.2-8.2-3.1-11.1l-64.9-64.2h229.6l77.1 335.7H196.8z" fill="#666666" /><path d="M285 352.6c2.1 0.7 4.2 1 6.2 1 8.4 0 16.2-5.4 19-13.8 3.4-10.5-2.3-21.8-12.8-25.2-32.2-10.5-66.5-48-66.5-96.6 0-62.3 51.4-113 114.5-113 35.8 0 65.4 17.7 88.2 52.7 6 9.3 18.4 11.9 27.7 5.9s11.9-18.4 5.9-27.7C437 89.5 394.9 65 345.4 65c-85.2 0-154.5 68.6-154.5 153 0 68.2 47.3 119.3 94.1 134.6zM195.8 671.9c0-11-9-20-20-20h-69.3L166.6 398h129.8c11 0 20-9 20-20s-9-20-20-20H161.2c-17.1 0-31.1 12.2-32.8 27.8L63.7 658.9v2.3c0 17 14.8 30.7 32.9 30.7h79.2c11 0 20-8.9 20-20zM560.1 163.1c9.3 6 21.6 3.4 27.7-5.9 22.8-35 52.5-52.8 88.3-52.8 63.2 0 114.6 50.7 114.6 113.1 0 48.7-34.3 86.2-66.6 96.7-10.5 3.4-16.2 14.7-12.8 25.2 2.8 8.4 10.6 13.8 19 13.8 2.1 0 4.2-0.3 6.2-1 46.8-15.3 94.2-66.5 94.2-134.7 0-84.4-69.4-153.1-154.6-153.1-49.5 0-91.6 24.6-121.8 71-6.1 9.3-3.5 21.7 5.8 27.7zM894.2 385.5c-1.6-15.6-15.7-27.8-32.8-27.8H726c-11 0-20 9-20 20s9 20 20 20h129.9l60.2 254.2h-69.4c-11 0-20 9-20 20s9 20 20 20H926c18.2 0 32.9-13.8 32.9-30.8v-2.3l-64.7-273.3z" fill="#666666" /></svg>