<svg xmlns="http://www.w3.org/2000/svg" xmlns:xlink="http://www.w3.org/1999/xlink" viewBox="0 0 1134 580"><g opacity="0.2"><defs><linearGradient id="idss3678186748_1g1109944988" x1="0" x2="1" y1="0.7445597065487722" y2="0.25544029345122776"><stop offset="0" stop-color="rgb(198,252,166)" stop-opacity="1"/><stop offset="1" stop-color="rgba(167,252,238,0.74)" stop-opacity="0.74"/></linearGradient></defs><path d="M 301.51 77.943 L 309.493 85.274 L 319.537 80.144 L 311.832 88.43 L 316.545 98.232 L 308.562 90.901 L 298.518 96.031 L 306.223 87.745 Z" fill="url(#idss3678186748_1g1109944988)"/></g><g opacity="0.2"><defs><linearGradient id="idss3678186748_2g-1109944964" x1="0.8258206905684056" x2="0.17417930943159454" y1="1" y2="0"><stop offset="0" stop-color="rgb(198,252,166)" stop-opacity="1"/><stop offset="1" stop-color="rgba(167,252,238,0.74)" stop-opacity="0.74"/></linearGradient></defs><path d="M 279.445 137.012 L 283.389 131.773 L 279.489 126.168 L 284.942 130.311 L 290.426 126.677 L 286.482 131.917 L 290.381 137.522 L 284.929 133.378 Z" fill="url(#idss3678186748_2g-1109944964)"/></g><path d="M 1021 579.192 C 1021.7 553.241 1032.22 489.695 1068.69 443.123" fill="transparent" stroke-width="2.80556" stroke="rgb(NaN,NaN,NaN)" stroke-miterlimit="10" stroke-dasharray=""/><path d="M 73.346 249.084 C 70.467 237.474 59.456 209.915 38.442 192.558" fill="transparent" stroke-width="1.29265" stroke="rgb(NaN,NaN,NaN)" stroke-miterlimit="10" stroke-dasharray=""/><g opacity="0.2"><defs><linearGradient id="idss3678186748_5g-1109945003" x1="0.592401935106172" x2="0.40759806489382805" y1="1" y2="0"><stop offset="0" stop-color="rgb(198,252,166)" stop-opacity="1"/><stop offset="1" stop-color="rgba(167,252,238,0.74)" stop-opacity="0.74"/></linearGradient></defs><path d="M 983.592 250.416 L 996.604 242.733 L 993.239 227.363 L 1001.2 240.988 L 1016.08 238.081 L 1003.06 245.764 L 1006.43 261.133 L 998.47 247.508 Z" fill="url(#idss3678186748_5g-1109945003)"/></g><g transform="translate(131.87 2.026)" id="ss3678186748_6"><g><defs><radialGradient id="idss3678186748_7g-1943131669" cy="1.0942496759955325" cx="11.160324215276955" r="0.7566035478087627" gradientTransform="translate(11.160324215276955, 1.0942496759955325) scale(1 1) translate(-11.160324215276955, -1.0942496759955325)"><stop offset="0" stop-color="rgb(153,217,183)" stop-opacity="1"/><stop offset="1" stop-color="rgb(97,255,184)" stop-opacity="1"/></radialGradient></defs><path d="M 4.396 12.611 C 3.986 12.485 3.743 12.08 3.817 11.636 C 4.417 7.663 4.061 6.975 0.532 5.439 C 0.127 5.259 -0.09 4.807 0.036 4.397 C 0.163 3.982 0.586 3.738 1.027 3.805 C 4.815 4.411 5.401 4.105 7.225 0.513 C 7.428 0.114 7.845 -0.088 8.249 0.036 C 8.665 0.164 8.903 0.566 8.84 1.014 C 8.23 4.978 8.586 5.666 12.109 7.2 C 12.525 7.39 12.739 7.829 12.61 8.25 C 12.484 8.659 12.072 8.907 11.62 8.837 C 7.823 8.239 7.244 8.541 5.432 12.138 C 5.216 12.538 4.795 12.733 4.396 12.611 Z" fill="url(#idss3678186748_7g-1943131669)"/></g></g><g transform="translate(1040.447 329.447)" id="ss3678186748_8"><path d="M 0 4.463 C 0 1.998 1.998 0 4.463 0 C 6.928 0 8.927 1.998 8.927 4.463 C 8.927 6.928 6.928 8.927 4.463 8.927 C 1.998 8.927 0 6.928 0 4.463 Z" fill="transparent" stroke-width="0.892677" stroke="rgb(NaN,NaN,NaN)" stroke-miterlimit="10" stroke-dasharray=""/></g><g transform="translate(3.522 76.52)" id="ss3678186748_10"><path d="M 7.705 0.571 C 13.593 -1.377 19.945 1.817 21.893 7.705 C 23.841 13.593 20.647 19.945 14.759 21.893 C 8.871 23.841 2.519 20.647 0.571 14.759 C -1.377 8.871 1.817 2.519 7.705 0.571 Z" fill="transparent" stroke-width="0.892677" stroke="rgb(NaN,NaN,NaN)" stroke-miterlimit="10" stroke-dasharray=""/></g><g transform="translate(36.57 428.57)" id="ss3678186748_12"><path d="M 2.621 0.194 C 4.624 -0.468 6.785 0.618 7.448 2.621 C 8.111 4.624 7.024 6.785 5.021 7.448 C 3.018 8.111 0.857 7.024 0.194 5.021 C -0.468 3.018 0.618 0.857 2.621 0.194 Z" fill="transparent" stroke-width="0.892677" stroke="rgb(NaN,NaN,NaN)" stroke-miterlimit="10" stroke-dasharray=""/></g><g transform="translate(861 17)" id="ss3678186748_14"><g><defs><radialGradient id="idss3678186748_15g921349361" cy="1.9350431870262648" cx="55.961416824794384" r="0.7275886293173971" gradientTransform="translate(55.961416824794384, 1.9350431870262648) scale(1 1) translate(-55.961416824794384, -1.9350431870262648)"><stop offset="0" stop-color="rgb(137,255,203)" stop-opacity="1"/><stop offset="1" stop-color="rgb(52,185,126)" stop-opacity="1"/></radialGradient></defs><path d="M 0 7.715 C 0 3.454 3.454 0 7.715 0 C 11.976 0 15.431 3.454 15.431 7.715 C 15.431 11.976 11.976 15.431 7.715 15.431 C 3.454 15.431 0 11.976 0 7.715 Z" fill="url(#idss3678186748_15g921349361)"/></g></g><g transform="translate(148.19 238.813)" id="ss3678186748_16"><g><defs><radialGradient id="idss3678186748_17g921349273" cy="98.08460257975172" cx="60.839552683456866" r="0.7274702165427742" gradientTransform="translate(60.839552683456866, 98.08460257975172) scale(1 1) translate(-60.839552683456866, -98.08460257975172)"><stop offset="0" stop-color="rgb(137,255,203)" stop-opacity="1"/><stop offset="1" stop-color="rgb(52,185,126)" stop-opacity="1"/></radialGradient></defs><path d="M 1.014 0.018 C 1.678 -0.096 2.309 0.35 2.423 1.014 C 2.536 1.678 2.09 2.309 1.426 2.423 C 0.762 2.536 0.131 2.09 0.018 1.426 C -0.096 0.762 0.35 0.131 1.014 0.018 Z" fill="url(#idss3678186748_17g921349273)"/></g></g><g transform="translate(910 71)" id="ss3678186748_18"><g><defs><radialGradient id="idss3678186748_19g921349246" cy="15.03334" cx="182.163" r="0.7275859999999905" gradientTransform="translate(182.163, 15.03334) scale(1 1) translate(-182.163, -15.03334)"><stop offset="0" stop-color="rgb(137,255,203)" stop-opacity="1"/><stop offset="1" stop-color="rgb(52,185,126)" stop-opacity="1"/></radialGradient></defs><path d="M 0 2.5 C 0 1.119 1.119 0 2.5 0 C 3.881 0 5 1.119 5 2.5 C 5 3.881 3.881 5 2.5 5 C 1.119 5 0 3.881 0 2.5 Z" fill="url(#idss3678186748_19g921349246)"/></g></g><g transform="translate(181.152 201.387)" id="ss3678186748_20"><g><defs><radialGradient id="idss3678186748_21g921349323" cy="41.04669100389468" cx="37.10989671097391" r="0.7274686531663266" gradientTransform="translate(37.10989671097391, 41.04669100389468) scale(1 1) translate(-37.10989671097391, -41.04669100389468)"><stop offset="0" stop-color="rgb(137,255,203)" stop-opacity="1"/><stop offset="1" stop-color="rgb(52,185,126)" stop-opacity="1"/></radialGradient></defs><path d="M 2.922 4.965 C 1.561 5.198 0.269 4.283 0.036 2.922 C -0.197 1.561 0.718 0.269 2.079 0.036 C 3.439 -0.197 4.732 0.718 4.965 2.079 C 5.198 3.439 4.283 4.732 2.922 4.965 Z" fill="url(#idss3678186748_21g921349323)"/></g></g><g opacity="0.2"><defs><linearGradient id="idss3678186748_22g1109944992" x1="0.4701447333460841" x2="0.5298552666539158" y1="1" y2="0"><stop offset="0" stop-color="rgb(198,252,166)" stop-opacity="1"/><stop offset="1" stop-color="rgba(167,252,238,0.74)" stop-opacity="0.74"/></linearGradient></defs><path d="M 1017.91 217.452 L 1024.73 215.401 L 1024.92 207.995 L 1027.02 215.12 L 1034.15 215.464 L 1027.34 217.514 L 1027.15 224.92 L 1025.04 217.795 Z" fill="url(#idss3678186748_22g1109944992)"/></g><g transform="translate(1006.9 378.902)" id="ss3678186748_23"><path d="M 0 104.625 L 22.42 0 L 127.044 22.42 L 104.625 127.044 Z" fill="transparent"/><g transform="translate(11.21 11.21)" id="ss3678186748_25"><g id="ss3678186748_26"><g><defs><radialGradient id="idss3678186748_27g-1943131668" cy="4.489796893667862" cx="9.822230717767372" r="0.744070102740235" gradientTransform="translate(9.822230717767372, 4.489796893667862) scale(1 1) translate(-9.822230717767372, -4.489796893667862)"><stop offset="0" stop-color="rgb(153,217,183)" stop-opacity="1"/><stop offset="1" stop-color="rgb(97,255,184)" stop-opacity="1"/></radialGradient></defs><path d="M 41.1 104.625 C 50.21 54.741 49.23 53.245 0 41.103 C 49.88 50.208 51.38 49.234 63.52 0 C 54.42 49.884 55.39 51.38 104.63 63.522 C 54.74 54.425 53.25 55.376 41.1 104.625 Z" fill="url(#idss3678186748_27g-1943131668)"/></g></g></g></g><g transform="translate(10.996 165)" id="ss3678186748_28"><path d="M 0 44.634 L 3.613 0 L 48.247 3.613 L 44.634 48.247 Z" fill="transparent"/><g transform="translate(1.799 1.806)" id="ss3678186748_30"><g id="ss3678186748_31"><g><defs><radialGradient id="idss3678186748_32g-1943131675" cy="4.543262983375903" cx="0.4227299103592128" r="0.7299656437430473" gradientTransform="translate(0.4227299103592128, 4.543262983375903) scale(1 1) translate(-0.4227299103592128, -4.543262983375903)"><stop offset="0" stop-color="rgb(153,217,183)" stop-opacity="1"/><stop offset="1" stop-color="rgb(97,255,184)" stop-opacity="1"/></radialGradient></defs><path d="M 20.51 44.634 C 21.576 23.439 21.09 22.872 0 20.511 C 21.195 21.576 21.763 21.09 24.123 0 C 23.058 21.195 23.544 21.763 44.634 24.124 C 23.439 23.062 22.872 23.538 20.51 44.634 Z" fill="url(#idss3678186748_32g-1943131675)"/></g></g></g></g></svg>
