<svg width="40" height="40" viewBox="0 0 40 40" fill="none" xmlns="http://www.w3.org/2000/svg">
<rect x="0.5" y="0.5" width="39" height="39" fill="white" stroke="#12B76A"/>
<path d="M12.9719 30V29.778C13.0919 29.77 13.1839 29.76 13.2479 29.748C13.3159 29.736 13.3759 29.71 13.4279 29.67C13.4839 29.63 13.5119 29.574 13.5119 29.502C13.5119 28.118 13.4979 26.962 13.4699 26.034C13.4659 25.946 13.4339 25.888 13.3739 25.86C13.3179 25.828 13.2119 25.808 13.0559 25.8L12.9719 25.794V25.572C13.1879 25.588 13.4699 25.596 13.8179 25.596C14.1659 25.596 14.4419 25.586 14.6459 25.566C14.8499 25.546 14.9719 25.536 15.0119 25.536H15.1319C15.3399 25.536 15.5219 25.562 15.6779 25.614C15.8379 25.666 15.9599 25.728 16.0439 25.8C16.1319 25.872 16.2019 25.958 16.2539 26.058C16.3379 26.218 16.3799 26.404 16.3799 26.616C16.3799 27.02 16.1579 27.33 15.7139 27.546L15.5339 27.636C16.2019 27.86 16.5359 28.222 16.5359 28.722C16.5359 29.078 16.3899 29.386 16.0979 29.646C15.8059 29.906 15.4739 30.036 15.1019 30.036H14.9759C14.8599 30.036 14.7019 30.028 14.5019 30.012L14.3099 30C14.0939 29.984 13.8699 29.976 13.6379 29.976C13.4099 29.976 13.1879 29.984 12.9719 30ZM14.0999 29.16C14.0999 29.384 14.1679 29.524 14.3039 29.58C14.4399 29.636 14.7339 29.664 15.1859 29.664C15.3539 29.664 15.5139 29.58 15.6659 29.412C15.8219 29.244 15.8999 29.016 15.8999 28.728C15.8999 28.436 15.8059 28.212 15.6179 28.056C15.4299 27.896 15.1679 27.816 14.8319 27.816C14.4999 27.816 14.2599 27.828 14.1119 27.852C14.1039 28.308 14.0999 28.744 14.0999 29.16ZM14.1119 27.564C14.3719 27.54 14.5799 27.528 14.7359 27.528C14.8919 27.528 15.0179 27.532 15.1139 27.54C15.3299 27.476 15.4859 27.366 15.5819 27.21C15.6779 27.054 15.7259 26.89 15.7259 26.718C15.7259 26.542 15.6959 26.394 15.6359 26.274C15.5759 26.15 15.5059 26.06 15.4259 26.004C15.2619 25.888 15.1399 25.83 15.0599 25.83C14.6199 25.83 14.3359 25.854 14.2079 25.902L14.1359 25.968C14.1239 26.532 14.1159 27.064 14.1119 27.564ZM17.8583 27.828L17.8523 29.454C17.8523 29.578 17.8883 29.66 17.9603 29.7C18.0323 29.736 18.1403 29.764 18.2843 29.784C18.4323 29.804 18.5123 29.814 18.5243 29.814V30H16.8443V29.796C16.9403 29.784 17.0043 29.778 17.0363 29.778C17.0683 29.774 17.1083 29.762 17.1563 29.742C17.2083 29.718 17.2383 29.698 17.2463 29.682C17.2543 29.662 17.2663 29.622 17.2823 29.562C17.2983 29.502 17.3063 29.442 17.3063 29.382V28.908C17.3063 28.104 17.2923 27.632 17.2643 27.492C17.2323 27.336 17.1163 27.258 16.9163 27.258L16.9043 27.03C17.0643 27.014 17.2283 26.976 17.3963 26.916C17.5643 26.856 17.6723 26.826 17.7203 26.826C17.7683 26.826 17.8023 26.85 17.8223 26.898C17.8423 26.942 17.8523 27.024 17.8523 27.144L17.8583 27.372C18.2103 27.032 18.4883 26.862 18.6923 26.862C18.8403 26.862 18.9423 26.88 18.9983 26.916C19.0543 26.952 19.0823 27.018 19.0823 27.114C19.0823 27.146 19.0503 27.362 18.9863 27.762H18.7703C18.7503 27.462 18.6483 27.312 18.4643 27.312C18.3603 27.312 18.2323 27.36 18.0803 27.456C17.9323 27.548 17.8583 27.672 17.8583 27.828ZM19.397 27.606C19.461 27.458 19.615 27.298 19.859 27.126C20.103 26.95 20.323 26.862 20.519 26.862C20.719 26.862 20.889 26.884 21.029 26.928C21.169 26.972 21.279 27.038 21.359 27.126C21.439 27.21 21.503 27.294 21.551 27.378C21.603 27.458 21.637 27.56 21.653 27.684C21.685 27.884 21.701 28.036 21.701 28.14V28.314C21.573 28.394 21.363 28.434 21.071 28.434H19.841C19.841 28.862 19.873 29.136 19.937 29.256C20.033 29.432 20.153 29.542 20.297 29.586C20.389 29.614 20.497 29.628 20.621 29.628C20.969 29.628 21.287 29.486 21.575 29.202L21.707 29.34C21.691 29.356 21.653 29.396 21.593 29.46C21.533 29.52 21.493 29.56 21.473 29.58C21.453 29.6 21.415 29.638 21.359 29.694C21.303 29.746 21.259 29.782 21.227 29.802C21.199 29.822 21.157 29.852 21.101 29.892C21.049 29.932 21.003 29.96 20.963 29.976C20.927 29.992 20.881 30.012 20.825 30.036C20.733 30.072 20.625 30.09 20.501 30.09C20.261 30.09 20.055 30.044 19.883 29.952C19.715 29.856 19.589 29.728 19.505 29.568C19.345 29.276 19.265 28.928 19.265 28.524C19.265 28.12 19.309 27.814 19.397 27.606ZM19.853 28.164H20.195C20.727 28.164 21.043 28.128 21.143 28.056C21.143 27.884 21.115 27.736 21.059 27.612C20.955 27.372 20.771 27.252 20.507 27.252C20.243 27.252 20.067 27.32 19.979 27.456C19.895 27.588 19.853 27.824 19.853 28.164ZM24.3757 27.648L24.3517 29.232C24.3517 29.332 24.3957 29.454 24.4837 29.598C24.5757 29.738 24.6217 29.82 24.6217 29.844C24.6217 29.864 24.6037 29.88 24.5677 29.892C24.2877 29.984 24.1297 30.03 24.0937 30.03C24.0617 30.03 24.0277 30.002 23.9917 29.946C23.9597 29.886 23.9297 29.814 23.9017 29.73C23.8737 29.646 23.8577 29.602 23.8537 29.598C23.7937 29.638 23.7197 29.688 23.6317 29.748C23.5437 29.808 23.4817 29.85 23.4457 29.874C23.4137 29.894 23.3657 29.92 23.3017 29.952C23.2417 29.984 23.1877 30.006 23.1397 30.018C23.0277 30.046 22.8757 30.06 22.6837 30.06C22.4957 30.06 22.3557 29.984 22.2637 29.832C22.1717 29.68 22.1257 29.514 22.1257 29.334C22.1257 29.154 22.1397 29.01 22.1677 28.902C22.1957 28.794 22.2417 28.704 22.3057 28.632C22.3697 28.56 22.4337 28.5 22.4977 28.452C22.5617 28.404 22.6517 28.364 22.7677 28.332C22.8877 28.296 22.9897 28.27 23.0737 28.254C23.1617 28.234 23.2837 28.21 23.4397 28.182C23.5957 28.15 23.7217 28.124 23.8177 28.104L23.8237 27.744C23.8237 27.56 23.7577 27.428 23.6257 27.348C23.4937 27.268 23.3337 27.228 23.1457 27.228C22.9617 27.228 22.8337 27.276 22.7617 27.372C22.6897 27.464 22.6117 27.664 22.5277 27.972L22.2817 27.948C22.2817 27.6 22.3417 27.356 22.4617 27.216C22.6057 27.048 22.7617 26.944 22.9297 26.904C23.0977 26.864 23.2677 26.844 23.4397 26.844C23.6157 26.844 23.7657 26.864 23.8897 26.904C24.0137 26.944 24.1057 26.99 24.1657 27.042C24.2297 27.09 24.2777 27.158 24.3097 27.246C24.3457 27.33 24.3657 27.398 24.3697 27.45C24.3737 27.502 24.3757 27.568 24.3757 27.648ZM22.6657 29.214C22.6657 29.51 22.7997 29.658 23.0677 29.658C23.3037 29.658 23.5417 29.558 23.7817 29.358C23.8097 29.334 23.8237 29.188 23.8237 28.92C23.8237 28.652 23.8217 28.458 23.8177 28.338C23.7457 28.362 23.6537 28.392 23.5417 28.428C23.4337 28.464 23.3557 28.49 23.3077 28.506C23.2637 28.522 23.2037 28.544 23.1277 28.572C23.0517 28.596 22.9997 28.616 22.9717 28.632C22.9477 28.648 22.9117 28.668 22.8637 28.692C22.8197 28.716 22.7917 28.74 22.7797 28.764C22.7677 28.784 22.7497 28.81 22.7257 28.842C22.7017 28.87 22.6877 28.904 22.6837 28.944C22.6717 29.056 22.6657 29.146 22.6657 29.214ZM25.357 29.13L25.369 26.808C25.369 26.34 25.357 26.052 25.333 25.944C25.313 25.832 25.297 25.756 25.285 25.716C25.277 25.672 25.247 25.638 25.195 25.614C25.143 25.586 25.103 25.572 25.075 25.572C25.051 25.568 24.993 25.564 24.901 25.56L24.889 25.362C25.193 25.334 25.415 25.304 25.555 25.272C25.695 25.236 25.771 25.218 25.783 25.218C25.855 25.218 25.891 25.248 25.891 25.308V25.566L25.885 28.23C26.021 28.23 26.213 28.1 26.461 27.84C26.709 27.58 26.833 27.382 26.833 27.246C26.833 27.178 26.791 27.144 26.707 27.144C26.671 27.144 26.643 27.134 26.623 27.114C26.603 27.09 26.593 27.064 26.593 27.036C26.593 26.976 26.631 26.944 26.707 26.94C26.843 26.952 27.035 26.958 27.283 26.958C27.531 26.958 27.723 26.952 27.859 26.94C27.931 26.94 27.967 26.972 27.967 27.036C27.967 27.084 27.945 27.116 27.901 27.132C27.853 27.152 27.823 27.162 27.811 27.162C27.651 27.226 27.461 27.344 27.241 27.516C27.021 27.684 26.841 27.838 26.701 27.978L26.491 28.188L28.129 29.82C28.177 29.868 28.201 29.908 28.201 29.94C28.201 29.968 28.183 29.988 28.147 30H28.129C27.825 30 27.579 30.008 27.391 30.024C26.787 29.308 26.425 28.888 26.305 28.764C26.189 28.636 26.081 28.556 25.981 28.524C25.937 28.508 25.901 28.494 25.873 28.482C25.877 28.538 25.879 28.61 25.879 28.698L25.867 29.418V29.52C25.867 29.544 25.869 29.568 25.873 29.592C25.881 29.616 25.885 29.636 25.885 29.652C25.889 29.664 25.899 29.678 25.915 29.694C25.931 29.706 25.941 29.716 25.945 29.724C25.953 29.728 25.971 29.734 25.999 29.742C26.027 29.75 26.047 29.756 26.059 29.76C26.071 29.76 26.097 29.766 26.137 29.778C26.181 29.786 26.215 29.792 26.239 29.796V30H24.943V29.796C25.055 29.772 25.117 29.758 25.129 29.754C25.141 29.75 25.163 29.744 25.195 29.736C25.227 29.728 25.245 29.72 25.249 29.712C25.257 29.7 25.271 29.686 25.291 29.67C25.311 29.654 25.321 29.636 25.321 29.616L25.351 29.436L25.357 29.13Z" fill="#12B76A"/>
<path d="M10.9973 16.53L11.1373 15.83L15.7373 13.78L15.8573 13.89L15.7373 14.5L11.8973 16.21L15.7373 17.92L15.8573 18.53L15.7373 18.64L10.9973 16.53ZM15.932 11.27C16.4254 11.2233 16.792 11.1733 17.032 11.12C17.2787 11.06 17.412 11.03 17.432 11.03C17.5454 11.03 17.602 11.08 17.602 11.18V11.61L17.562 14.38C18.3554 13.9467 18.8687 13.73 19.102 13.73C19.8487 13.73 20.3454 13.9533 20.592 14.4C20.812 14.7933 20.922 15.3933 20.922 16.2C20.922 17.0067 20.7787 17.6267 20.492 18.06C20.4187 18.16 20.262 18.3167 20.022 18.53C19.7887 18.7433 19.5587 18.9 19.332 19C19.1054 19.1 18.8187 19.15 18.472 19.15C18.132 19.15 17.782 19.0933 17.422 18.98C17.062 18.86 16.8187 18.71 16.692 18.53C16.6854 17.71 16.682 16.8 16.682 15.8C16.682 13.2467 16.6454 11.8967 16.572 11.75C16.532 11.6567 16.3987 11.6067 16.172 11.6H15.952L15.932 11.27ZM17.552 15.47C17.5454 15.87 17.542 16.38 17.542 17C17.542 17.6133 17.5754 17.9533 17.642 18.02C17.722 18.12 17.892 18.22 18.152 18.32C18.412 18.4133 18.6687 18.46 18.922 18.46C19.1754 18.46 19.372 18.42 19.512 18.34C19.6587 18.2533 19.7654 18.0933 19.832 17.86C19.9054 17.6267 19.9554 17.3167 19.982 16.93C20.0154 16.5433 20.032 16.23 20.032 15.99C20.032 15.75 19.9854 15.51 19.892 15.27C19.8054 15.0233 19.6887 14.8433 19.542 14.73C19.2754 14.5233 18.9987 14.42 18.712 14.42C18.432 14.42 18.0454 14.55 17.552 14.81V15.47ZM23.1236 15.38L23.1136 18.09C23.1136 18.2967 23.1736 18.4333 23.2936 18.5C23.4136 18.56 23.5936 18.6067 23.8336 18.64C24.0803 18.6733 24.2136 18.69 24.2336 18.69V19H21.4336V18.66C21.5936 18.64 21.7003 18.63 21.7536 18.63C21.8069 18.6233 21.8736 18.6033 21.9536 18.57C22.0403 18.53 22.0903 18.4967 22.1036 18.47C22.1169 18.4367 22.1369 18.37 22.1636 18.27C22.1903 18.17 22.2036 18.07 22.2036 17.97V17.18C22.2036 15.84 22.1803 15.0533 22.1336 14.82C22.0803 14.56 21.8869 14.43 21.5536 14.43L21.5336 14.05C21.8003 14.0233 22.0736 13.96 22.3536 13.86C22.6336 13.76 22.8136 13.71 22.8936 13.71C22.9736 13.71 23.0303 13.75 23.0636 13.83C23.0969 13.9033 23.1136 14.04 23.1136 14.24L23.1236 14.62C23.7103 14.0533 24.1736 13.77 24.5136 13.77C24.7603 13.77 24.9303 13.8 25.0236 13.86C25.1169 13.92 25.1636 14.03 25.1636 14.19C25.1636 14.2433 25.1103 14.6033 25.0036 15.27H24.6436C24.6103 14.77 24.4403 14.52 24.1336 14.52C23.9603 14.52 23.7469 14.6 23.4936 14.76C23.2469 14.9133 23.1236 15.12 23.1236 15.38ZM25.138 18.53L25.258 17.92L29.098 16.21L25.258 14.5L25.138 13.89L25.258 13.78L29.998 15.89L29.858 16.59L25.258 18.64L25.138 18.53Z" fill="#12B76A"/>
</svg>
