<svg width="40" height="40" viewBox="0 0 40 40" fill="none" xmlns="http://www.w3.org/2000/svg">
<rect x="0.5" y="0.5" width="39" height="39" fill="white" stroke="#12B76A"/>
<path d="M12 4.75H11.75V5V21V21.25H12H28H28.25V21V5V4.75H28H12Z" fill="white" stroke="#12B76A" stroke-width="0.5"/>
<path d="M17.5924 12.9035L20.1123 15.1885" stroke="#12B76A" stroke-linecap="round"/>
<path d="M19.8161 14.7749L19.4943 15.1575L20.1577 15.9058L20.4795 15.5231L19.8161 14.7749ZM23.7918 11.5842C23.9696 11.3728 23.9651 11.034 23.7819 10.8274C23.5987 10.6208 23.3061 10.6246 23.1284 10.8359L23.7918 11.5842ZM20.4795 15.5231L23.7918 11.5842L23.1284 10.8359L19.8161 14.7749L20.4795 15.5231Z" fill="#12B76A"/>
<path d="M11.2885 26.784L11.0905 26.13C11.0665 26.054 11.0345 26.002 10.9945 25.974C10.7025 25.898 10.4045 25.86 10.1005 25.86C9.52845 25.86 9.14645 26.002 8.95445 26.286C8.76245 26.566 8.66645 27.08 8.66645 27.828C8.66645 28.664 8.93245 29.244 9.46445 29.568C9.69245 29.704 9.95445 29.772 10.2505 29.772C10.5505 29.772 10.8345 29.67 11.1025 29.466C11.1425 29.394 11.2005 29.216 11.2765 28.932L11.3605 28.608H11.5825C11.5665 28.772 11.5585 29.17 11.5585 29.802C11.0185 30.002 10.5225 30.102 10.0705 30.102C9.47445 30.102 8.99845 29.94 8.64245 29.616C8.25845 29.264 8.06645 28.66 8.06645 27.804C8.06645 27.308 8.13645 26.896 8.27645 26.568C8.36045 26.372 8.53245 26.162 8.79245 25.938C9.05245 25.71 9.35245 25.574 9.69245 25.53C9.89645 25.502 10.1305 25.488 10.3945 25.488C10.9105 25.488 11.2745 25.546 11.4865 25.662L11.5525 25.728C11.5525 25.928 11.5345 26.28 11.4985 26.784H11.2885ZM12.4393 29.544L12.4453 26.736C12.4453 26.156 12.4253 25.816 12.3853 25.716C12.3453 25.612 12.2193 25.56 12.0073 25.56L11.9953 25.362C12.2913 25.334 12.5113 25.304 12.6553 25.272C12.8033 25.236 12.8833 25.218 12.8953 25.218C12.9633 25.218 12.9973 25.248 12.9973 25.308L12.9913 25.698L12.9853 27.246C13.4493 26.986 13.8253 26.856 14.1133 26.856C14.4053 26.856 14.5953 26.952 14.6833 27.144C14.7713 27.332 14.8153 27.642 14.8153 28.074L14.7973 29.346C14.7973 29.538 14.8113 29.658 14.8393 29.706C14.8713 29.75 14.9593 29.78 15.1033 29.796V30H13.9633V29.796C14.1073 29.764 14.1933 29.72 14.2213 29.664C14.2493 29.608 14.2633 29.458 14.2633 29.214V28.14C14.2633 27.78 14.2353 27.55 14.1793 27.45C14.1273 27.346 14.0013 27.294 13.8013 27.294C13.6813 27.294 13.5353 27.32 13.3633 27.372C13.1953 27.424 13.0693 27.478 12.9853 27.534C12.9733 27.998 12.9673 28.578 12.9673 29.274C12.9673 29.498 12.9833 29.64 13.0153 29.7C13.0513 29.756 13.1493 29.788 13.3093 29.796V30H12.0853V29.796C12.2173 29.788 12.3093 29.764 12.3613 29.724C12.4133 29.684 12.4393 29.624 12.4393 29.544ZM15.5679 27.606C15.6319 27.458 15.7859 27.298 16.0299 27.126C16.2739 26.95 16.4939 26.862 16.6899 26.862C16.8899 26.862 17.0599 26.884 17.1999 26.928C17.3399 26.972 17.4499 27.038 17.5299 27.126C17.6099 27.21 17.6739 27.294 17.7219 27.378C17.7739 27.458 17.8079 27.56 17.8239 27.684C17.8559 27.884 17.8719 28.036 17.8719 28.14V28.314C17.7439 28.394 17.5339 28.434 17.2419 28.434H16.0119C16.0119 28.862 16.0439 29.136 16.1079 29.256C16.2039 29.432 16.3239 29.542 16.4679 29.586C16.5599 29.614 16.6679 29.628 16.7919 29.628C17.1399 29.628 17.4579 29.486 17.7459 29.202L17.8779 29.34C17.8619 29.356 17.8239 29.396 17.7639 29.46C17.7039 29.52 17.6639 29.56 17.6439 29.58C17.6239 29.6 17.5859 29.638 17.5299 29.694C17.4739 29.746 17.4299 29.782 17.3979 29.802C17.3699 29.822 17.3279 29.852 17.2719 29.892C17.2199 29.932 17.1739 29.96 17.1339 29.976C17.0979 29.992 17.0519 30.012 16.9959 30.036C16.9039 30.072 16.7959 30.09 16.6719 30.09C16.4319 30.09 16.2259 30.044 16.0539 29.952C15.8859 29.856 15.7599 29.728 15.6759 29.568C15.5159 29.276 15.4359 28.928 15.4359 28.524C15.4359 28.12 15.4799 27.814 15.5679 27.606ZM16.0239 28.164H16.3659C16.8979 28.164 17.2139 28.128 17.3139 28.056C17.3139 27.884 17.2859 27.736 17.2299 27.612C17.1259 27.372 16.9419 27.252 16.6779 27.252C16.4139 27.252 16.2379 27.32 16.1499 27.456C16.0659 27.588 16.0239 27.824 16.0239 28.164ZM18.3206 29.28C18.2646 29.04 18.2366 28.782 18.2366 28.506C18.2366 28.226 18.2626 27.958 18.3146 27.702C18.3426 27.582 18.4126 27.476 18.5246 27.384C18.7046 27.216 18.8666 27.092 19.0106 27.012C19.1586 26.928 19.2666 26.88 19.3346 26.868C19.4066 26.856 19.5106 26.85 19.6466 26.85C19.7826 26.85 19.9346 26.866 20.1026 26.898C20.2706 26.93 20.3806 26.956 20.4326 26.976C20.4206 27.096 20.4146 27.396 20.4146 27.876H20.2346C20.1946 27.7 20.1626 27.574 20.1386 27.498C20.1186 27.422 20.0326 27.364 19.8806 27.324C19.7286 27.284 19.5466 27.264 19.3346 27.264C19.1226 27.264 18.9746 27.34 18.8906 27.492C18.8106 27.644 18.7706 27.936 18.7706 28.368C18.7706 28.756 18.8186 29.052 18.9146 29.256C19.0266 29.5 19.2506 29.622 19.5866 29.622C19.7066 29.622 19.8346 29.588 19.9706 29.52C20.1066 29.448 20.2126 29.376 20.2886 29.304L20.4086 29.196L20.5346 29.316C20.3786 29.508 20.2406 29.656 20.1206 29.76C20.0046 29.864 19.9166 29.932 19.8566 29.964C19.5166 30.14 19.1446 30.12 18.7406 29.904C18.5766 29.756 18.4366 29.548 18.3206 29.28ZM21.3111 29.13L21.3231 26.808C21.3231 26.34 21.3111 26.052 21.2871 25.944C21.2671 25.832 21.2511 25.756 21.2391 25.716C21.2311 25.672 21.2011 25.638 21.1491 25.614C21.0971 25.586 21.0571 25.572 21.0291 25.572C21.0051 25.568 20.9471 25.564 20.8551 25.56L20.8431 25.362C21.1471 25.334 21.3691 25.304 21.5091 25.272C21.6491 25.236 21.7251 25.218 21.7371 25.218C21.8091 25.218 21.8451 25.248 21.8451 25.308V25.566L21.8391 28.23C21.9751 28.23 22.1671 28.1 22.4151 27.84C22.6631 27.58 22.7871 27.382 22.7871 27.246C22.7871 27.178 22.7451 27.144 22.6611 27.144C22.6251 27.144 22.5971 27.134 22.5771 27.114C22.5571 27.09 22.5471 27.064 22.5471 27.036C22.5471 26.976 22.5851 26.944 22.6611 26.94C22.7971 26.952 22.9891 26.958 23.2371 26.958C23.4851 26.958 23.6771 26.952 23.8131 26.94C23.8851 26.94 23.9211 26.972 23.9211 27.036C23.9211 27.084 23.8991 27.116 23.8551 27.132C23.8071 27.152 23.7771 27.162 23.7651 27.162C23.6051 27.226 23.4151 27.344 23.1951 27.516C22.9751 27.684 22.7951 27.838 22.6551 27.978L22.4451 28.188L24.0831 29.82C24.1311 29.868 24.1551 29.908 24.1551 29.94C24.1551 29.968 24.1371 29.988 24.1011 30H24.0831C23.7791 30 23.5331 30.008 23.3451 30.024C22.7411 29.308 22.3791 28.888 22.2591 28.764C22.1431 28.636 22.0351 28.556 21.9351 28.524C21.8911 28.508 21.8551 28.494 21.8271 28.482C21.8311 28.538 21.8331 28.61 21.8331 28.698L21.8211 29.418V29.52C21.8211 29.544 21.8231 29.568 21.8271 29.592C21.8351 29.616 21.8391 29.636 21.8391 29.652C21.8431 29.664 21.8531 29.678 21.8691 29.694C21.8851 29.706 21.8951 29.716 21.8991 29.724C21.9071 29.728 21.9251 29.734 21.9531 29.742C21.9811 29.75 22.0011 29.756 22.0131 29.76C22.0251 29.76 22.0511 29.766 22.0911 29.778C22.1351 29.786 22.1691 29.792 22.1931 29.796V30H20.8971V29.796C21.0091 29.772 21.0711 29.758 21.0831 29.754C21.0951 29.75 21.1171 29.744 21.1491 29.736C21.1811 29.728 21.1991 29.72 21.2031 29.712C21.2111 29.7 21.2251 29.686 21.2451 29.67C21.2651 29.654 21.2751 29.636 21.2751 29.616L21.3051 29.436L21.3111 29.13ZM24.2163 25.362C24.5123 25.334 24.7323 25.304 24.8763 25.272C25.0243 25.236 25.1043 25.218 25.1163 25.218C25.1843 25.218 25.2183 25.248 25.2183 25.308V25.566L25.1943 27.228C25.6703 26.968 25.9783 26.838 26.1183 26.838C26.5663 26.838 26.8643 26.972 27.0123 27.24C27.1443 27.476 27.2103 27.836 27.2103 28.32C27.2103 28.804 27.1243 29.176 26.9523 29.436C26.9083 29.496 26.8143 29.59 26.6703 29.718C26.5303 29.846 26.3923 29.94 26.2563 30C26.1203 30.06 25.9483 30.09 25.7402 30.09C25.5363 30.09 25.3263 30.056 25.1103 29.988C24.8943 29.916 24.7483 29.826 24.6723 29.718C24.6683 29.226 24.6663 28.68 24.6663 28.08C24.6663 26.548 24.6443 25.738 24.6003 25.65C24.5763 25.594 24.4963 25.564 24.3603 25.56H24.2283L24.2163 25.362ZM25.1883 27.882C25.1843 28.122 25.1823 28.428 25.1823 28.8C25.1823 29.168 25.2023 29.372 25.2423 29.412C25.2903 29.472 25.3923 29.532 25.5483 29.592C25.7043 29.648 25.8583 29.676 26.0103 29.676C26.1623 29.676 26.2803 29.652 26.3643 29.604C26.4523 29.552 26.5163 29.456 26.5563 29.316C26.6003 29.176 26.6303 28.99 26.6463 28.758C26.6663 28.526 26.6763 28.338 26.6763 28.194C26.6763 28.05 26.6483 27.906 26.5923 27.762C26.5403 27.614 26.4703 27.506 26.3823 27.438C26.2223 27.314 26.0563 27.252 25.8843 27.252C25.7163 27.252 25.4843 27.33 25.1883 27.486V27.882ZM27.8412 29.646C27.7572 29.53 27.6872 29.37 27.6312 29.166C27.5752 28.958 27.5472 28.698 27.5472 28.386C27.5472 28.07 27.6292 27.778 27.7932 27.51C27.9012 27.342 28.0892 27.19 28.3572 27.054C28.6252 26.914 28.8472 26.844 29.0232 26.844C29.3792 26.844 29.6832 26.958 29.9352 27.186C30.1872 27.414 30.3132 27.77 30.3132 28.254C30.3132 28.734 30.2252 29.108 30.0492 29.376C29.8132 29.692 29.5832 29.9 29.3592 30C29.2072 30.068 29.0492 30.102 28.8852 30.102C28.7212 30.102 28.5872 30.09 28.4832 30.066C28.3792 30.046 28.2672 30 28.1472 29.928C28.0312 29.856 27.9292 29.762 27.8412 29.646ZM28.1172 28.464C28.1172 28.896 28.1992 29.206 28.3632 29.394C28.5312 29.582 28.7732 29.676 29.0892 29.676C29.2092 29.676 29.2972 29.666 29.3532 29.646C29.6292 29.538 29.7672 29.122 29.7672 28.398C29.7672 28.058 29.7212 27.81 29.6292 27.654C29.5412 27.494 29.3872 27.38 29.1672 27.312C29.0552 27.284 28.9532 27.27 28.8612 27.27C28.7692 27.27 28.7012 27.272 28.6572 27.276C28.6172 27.28 28.5632 27.292 28.4952 27.312C28.4272 27.332 28.3752 27.366 28.3392 27.414C28.3032 27.458 28.2652 27.52 28.2252 27.6C28.1532 27.744 28.1172 28.032 28.1172 28.464ZM32.6988 26.928L33.0468 26.916C33.1268 26.916 33.1668 26.958 33.1668 27.042C33.1668 27.09 33.1328 27.12 33.0648 27.132C32.9768 27.152 32.8948 27.216 32.8188 27.324C32.6508 27.528 32.4348 27.83 32.1708 28.23C32.7468 29.134 33.0588 29.642 33.1068 29.754C33.1588 29.862 33.1848 29.94 33.1848 29.988C33.1848 30.068 33.1508 30.108 33.0828 30.108C32.9588 30.108 32.7968 29.992 32.5968 29.76C32.3968 29.528 32.1328 29.16 31.8048 28.656C31.7568 28.732 31.7028 28.816 31.6428 28.908C31.5828 28.996 31.5368 29.066 31.5048 29.118C31.4728 29.166 31.4368 29.22 31.3968 29.28C31.3568 29.34 31.3268 29.388 31.3068 29.424C31.2868 29.46 31.2668 29.496 31.2468 29.532C31.2148 29.596 31.1988 29.644 31.1988 29.676C31.1988 29.732 31.2728 29.772 31.4208 29.796V30H30.4368V29.796C30.5248 29.788 30.5828 29.776 30.6108 29.76C30.6828 29.72 30.7808 29.616 30.9048 29.448C31.0288 29.276 31.2628 28.928 31.6068 28.404C31.5148 28.256 31.4208 28.104 31.3248 27.948C31.2288 27.788 31.1608 27.676 31.1208 27.612C31.0808 27.548 31.0368 27.482 30.9888 27.414C30.9408 27.342 30.8988 27.296 30.8628 27.276C30.7828 27.228 30.6888 27.198 30.5808 27.186L30.5688 26.988C30.7088 26.972 30.8468 26.944 30.9828 26.904C31.1188 26.864 31.1988 26.844 31.2228 26.844C31.2508 26.844 31.2728 26.846 31.2888 26.85C31.3088 26.854 31.3268 26.864 31.3428 26.88C31.3628 26.896 31.3808 26.914 31.3968 26.934C31.4128 26.95 31.4328 26.976 31.4568 27.012C31.4808 27.048 31.5028 27.084 31.5228 27.12C31.5428 27.156 31.5688 27.206 31.6008 27.27C31.6368 27.33 31.6708 27.39 31.7028 27.45C31.7348 27.51 31.7768 27.588 31.8288 27.684C31.8808 27.776 31.9308 27.866 31.9788 27.954C32.2868 27.522 32.4408 27.286 32.4408 27.246C32.4408 27.202 32.4288 27.17 32.4048 27.15C32.3808 27.126 32.3548 27.114 32.3268 27.114C32.2548 27.114 32.2188 27.082 32.2188 27.018C32.2188 26.99 32.2328 26.966 32.2608 26.946C32.2888 26.926 32.3208 26.916 32.3568 26.916L32.6988 26.928Z" fill="#12B76A"/>
</svg>
