<svg width="40" height="40" viewBox="0 0 40 40" fill="none" xmlns="http://www.w3.org/2000/svg">
<rect x="0.5" y="0.5" width="39" height="39" fill="white" stroke="#12B76A"/>
<path d="M4.5 12.25H4.25V12.5V18.5V18.75H4.5H35.5H35.75V18.5V12.5V12.25H35.5H4.5Z" fill="white" stroke="#12B76A" stroke-width="0.5"/>
<path d="M10.9123 15.092C10.9443 15.0733 11.0136 15.064 11.1203 15.064L11.1763 15.06C11.1256 15.2333 11.0909 15.416 11.0723 15.608H11.4443L11.4043 15.792H11.0523L11.0043 16.156H11.3603L11.3243 16.348H11.0083C10.9789 16.4787 10.9643 16.676 10.9643 16.94C10.9376 16.956 10.8709 16.968 10.7643 16.976L10.7122 16.984C10.7416 16.832 10.7683 16.6213 10.7923 16.352H10.3923C10.3656 16.4693 10.3523 16.664 10.3523 16.936C10.3363 16.944 10.2709 16.9573 10.1562 16.976L10.1043 16.98C10.1416 16.756 10.1669 16.5453 10.1803 16.348H9.84825L9.88425 16.172H10.1963L10.2323 15.8H9.92425L9.96025 15.624H10.2643C10.2963 15.376 10.3123 15.2013 10.3123 15.1C10.3389 15.084 10.4109 15.072 10.5283 15.064L10.5883 15.06C10.5349 15.2173 10.4989 15.4027 10.4803 15.616H10.8643C10.8963 15.368 10.9123 15.1933 10.9123 15.092ZM10.4123 16.168H10.8003L10.8483 15.796H10.4563L10.4123 16.168ZM11.8455 15.44C12.4695 15.104 12.8415 14.924 12.9615 14.9L13.0095 14.944C12.9775 15.424 12.9615 15.7907 12.9615 16.044C12.9615 16.2973 12.9628 16.4613 12.9655 16.536C12.9681 16.608 12.9708 16.6573 12.9735 16.684C12.9788 16.708 12.9895 16.736 13.0055 16.768C13.0215 16.7973 13.0495 16.8173 13.0895 16.828C13.1935 16.8547 13.3308 16.8707 13.5015 16.876V17H11.9735V16.876H12.0735C12.4308 16.8707 12.6135 16.8107 12.6215 16.696C12.6348 16.6027 12.6415 16.4707 12.6415 16.3C12.6415 16.1267 12.6335 15.8147 12.6175 15.364C12.4655 15.364 12.2268 15.4293 11.9015 15.56L11.8455 15.44ZM13.5673 16.884L13.7073 16.768L14.1633 16.412C14.382 16.2413 14.5447 16.0947 14.6513 15.972C14.7607 15.8467 14.8153 15.7213 14.8153 15.596C14.8153 15.3293 14.6687 15.196 14.3753 15.196C14.298 15.196 14.226 15.2053 14.1593 15.224C14.0953 15.2427 13.9847 15.288 13.8273 15.36L13.7713 15.244L14.2593 14.916C14.3207 14.9 14.3927 14.892 14.4753 14.892C14.67 14.892 14.842 14.94 14.9913 15.036C15.1433 15.1293 15.2193 15.2813 15.2193 15.492C15.2193 15.6093 15.1767 15.732 15.0913 15.86C15.006 15.9853 14.914 16.0893 14.8153 16.172C14.7193 16.2547 14.602 16.344 14.4633 16.44L14.2553 16.58C14.1833 16.628 14.13 16.6667 14.0953 16.696C14.2927 16.7013 14.4833 16.704 14.6673 16.704C14.854 16.704 15.0647 16.692 15.2993 16.668L15.3473 16.712C15.3367 16.8027 15.3313 16.8987 15.3313 17H13.6233L13.5673 16.884ZM15.4892 13.908C15.6866 13.8893 15.8332 13.8693 15.9292 13.848C16.0279 13.824 16.0812 13.812 16.0892 13.812C16.1346 13.812 16.1572 13.832 16.1572 13.872V14.044L16.1412 15.152C16.4586 14.9787 16.6639 14.892 16.7572 14.892C17.0559 14.892 17.2546 14.9813 17.3532 15.16C17.4412 15.3173 17.4852 15.5573 17.4852 15.88C17.4852 16.2027 17.4279 16.4507 17.3132 16.624C17.2839 16.664 17.2212 16.7267 17.1252 16.812C17.0319 16.8973 16.9399 16.96 16.8492 17C16.7586 17.04 16.6439 17.06 16.5052 17.06C16.3692 17.06 16.2292 17.0373 16.0852 16.992C15.9412 16.944 15.8439 16.884 15.7932 16.812C15.7906 16.484 15.7892 16.12 15.7892 15.72C15.7892 14.6987 15.7746 14.1587 15.7452 14.1C15.7292 14.0627 15.6759 14.0427 15.5852 14.04H15.4972L15.4892 13.908ZM16.1372 15.588C16.1346 15.748 16.1332 15.952 16.1332 16.2C16.1332 16.4453 16.1466 16.5813 16.1732 16.608C16.2052 16.648 16.2732 16.688 16.3772 16.728C16.4812 16.7653 16.5839 16.784 16.6852 16.784C16.7866 16.784 16.8652 16.768 16.9212 16.736C16.9799 16.7013 17.0226 16.6373 17.0492 16.544C17.0786 16.4507 17.0986 16.3267 17.1092 16.172C17.1226 16.0173 17.1292 15.892 17.1292 15.796C17.1292 15.7 17.1106 15.604 17.0732 15.508C17.0386 15.4093 16.9919 15.3373 16.9332 15.292C16.8266 15.2093 16.7159 15.168 16.6012 15.168C16.4892 15.168 16.3346 15.22 16.1372 15.324V15.588ZM17.7498 15.656C17.7632 15.4347 17.7698 15.2853 17.7698 15.208C17.7698 15.128 17.7685 15.064 17.7658 15.016L17.8218 14.96C17.9232 14.9653 18.1765 14.968 18.5818 14.968C18.9898 14.968 19.2738 14.9653 19.4338 14.96L19.4818 15.004C19.4658 15.2493 19.2792 15.7093 18.9218 16.384C18.5645 17.0587 18.2658 17.5467 18.0258 17.848C17.9778 17.8293 17.9245 17.7973 17.8658 17.752C18.2045 17.2293 18.4605 16.7813 18.6338 16.408C18.8098 16.0347 18.9485 15.6787 19.0498 15.34L19.0018 15.296C18.4312 15.296 18.1112 15.2947 18.0418 15.292C18.0125 15.308 17.9538 15.4293 17.8658 15.656H17.7498ZM19.6117 15.924C19.6117 15.1987 19.8651 14.6453 20.3717 14.264C20.5637 14.12 20.7784 14.0093 21.0157 13.932L21.0917 14.056C21.0011 14.0907 20.8677 14.1653 20.6917 14.28L20.6237 14.324C20.4797 14.4227 20.3437 14.584 20.2157 14.808C20.0904 15.0293 20.0224 15.2533 20.0117 15.48C20.0757 15.3813 20.1531 15.3067 20.2437 15.256C20.3371 15.2053 20.4784 15.18 20.6677 15.18C20.8597 15.18 21.0197 15.2427 21.1477 15.368C21.2784 15.4933 21.3437 15.6973 21.3437 15.98C21.3437 16.1587 21.3211 16.3173 21.2757 16.456C21.2304 16.592 21.1757 16.6987 21.1117 16.776C21.0477 16.8507 20.9731 16.912 20.8877 16.96C20.7491 17.032 20.6037 17.068 20.4517 17.068C19.8917 17.068 19.6117 16.6867 19.6117 15.924ZM19.9957 15.648L19.9917 15.76C19.9917 15.76 19.9931 15.8187 19.9957 15.936L19.9997 16.008C20.0184 16.4213 20.1091 16.68 20.2717 16.784C20.3464 16.832 20.4384 16.856 20.5477 16.856C20.6997 16.856 20.8144 16.78 20.8917 16.628C20.9691 16.4733 21.0077 16.2947 21.0077 16.092C21.0077 15.8893 20.9797 15.7413 20.9237 15.648C20.8704 15.552 20.7771 15.484 20.6437 15.444C20.5904 15.4253 20.5224 15.416 20.4397 15.416C20.3571 15.416 20.2837 15.4293 20.2197 15.456C20.1557 15.4827 20.1104 15.5093 20.0837 15.536C20.0597 15.56 20.0304 15.5973 19.9957 15.648ZM23.0936 15.432L23.0776 16.488C23.0776 16.5547 23.1069 16.636 23.1656 16.732C23.2269 16.8253 23.2576 16.88 23.2576 16.896C23.2576 16.9093 23.2456 16.92 23.2216 16.928C23.0349 16.9893 22.9296 17.02 22.9056 17.02C22.8843 17.02 22.8616 17.0013 22.8376 16.964C22.8163 16.924 22.7963 16.876 22.7776 16.82C22.7589 16.764 22.7483 16.7347 22.7456 16.732C22.7056 16.7587 22.6563 16.792 22.5976 16.832C22.5389 16.872 22.4976 16.9 22.4736 16.916C22.4523 16.9293 22.4203 16.9467 22.3776 16.968C22.3376 16.9893 22.3016 17.004 22.2696 17.012C22.1949 17.0307 22.0936 17.04 21.9656 17.04C21.8403 17.04 21.7469 16.9893 21.6856 16.888C21.6243 16.7867 21.5936 16.676 21.5936 16.556C21.5936 16.436 21.6029 16.34 21.6216 16.268C21.6403 16.196 21.6709 16.136 21.7136 16.088C21.7563 16.04 21.7989 16 21.8416 15.968C21.8843 15.936 21.9443 15.9093 22.0216 15.888C22.1016 15.864 22.1696 15.8467 22.2256 15.836C22.2843 15.8227 22.3656 15.8067 22.4696 15.788C22.5736 15.7667 22.6576 15.7493 22.7216 15.736L22.7256 15.496C22.7256 15.3733 22.6816 15.2853 22.5936 15.232C22.5056 15.1787 22.3989 15.152 22.2736 15.152C22.1509 15.152 22.0656 15.184 22.0176 15.248C21.9696 15.3093 21.9176 15.4427 21.8616 15.648L21.6976 15.632C21.6976 15.4 21.7376 15.2373 21.8176 15.144C21.9136 15.032 22.0176 14.9627 22.1296 14.936C22.2416 14.9093 22.3549 14.896 22.4696 14.896C22.5869 14.896 22.6869 14.9093 22.7696 14.936C22.8523 14.9627 22.9136 14.9933 22.9536 15.028C22.9963 15.06 23.0283 15.1053 23.0496 15.164C23.0736 15.22 23.0869 15.2653 23.0896 15.3C23.0923 15.3347 23.0936 15.3787 23.0936 15.432ZM21.9536 16.476C21.9536 16.6733 22.0429 16.772 22.2216 16.772C22.3789 16.772 22.5376 16.7053 22.6976 16.572C22.7163 16.556 22.7256 16.4587 22.7256 16.28C22.7256 16.1013 22.7243 15.972 22.7216 15.892C22.6736 15.908 22.6123 15.928 22.5376 15.952C22.4656 15.976 22.4136 15.9933 22.3816 16.004C22.3523 16.0147 22.3123 16.0293 22.2616 16.048C22.2109 16.064 22.1763 16.0773 22.1576 16.088C22.1416 16.0987 22.1176 16.112 22.0856 16.128C22.0563 16.144 22.0376 16.16 22.0296 16.176C22.0216 16.1893 22.0096 16.2067 21.9936 16.228C21.9776 16.2467 21.9683 16.2693 21.9656 16.296C21.9576 16.3707 21.9536 16.4307 21.9536 16.476Z" fill="#12B76A"/>
<path d="M30 13.5H34V17.5H30V13.5Z" fill="#12B76A"/>
<path d="M15.8021 26.784L15.6041 26.13C15.5801 26.054 15.5481 26.002 15.5081 25.974C15.2161 25.898 14.9181 25.86 14.6141 25.86C14.0421 25.86 13.6601 26.002 13.4681 26.286C13.2761 26.566 13.1801 27.08 13.1801 27.828C13.1801 28.664 13.4461 29.244 13.9781 29.568C14.2061 29.704 14.4681 29.772 14.7641 29.772C15.0641 29.772 15.3481 29.67 15.6161 29.466C15.6561 29.394 15.7141 29.216 15.7901 28.932L15.8741 28.608H16.0961C16.0801 28.772 16.0721 29.17 16.0721 29.802C15.5321 30.002 15.0361 30.102 14.5841 30.102C13.9881 30.102 13.5121 29.94 13.1561 29.616C12.7721 29.264 12.5801 28.66 12.5801 27.804C12.5801 27.308 12.6501 26.896 12.7901 26.568C12.8741 26.372 13.0461 26.162 13.3061 25.938C13.5661 25.71 13.8661 25.574 14.2061 25.53C14.4101 25.502 14.6441 25.488 14.9081 25.488C15.4241 25.488 15.7881 25.546 16.0001 25.662L16.0661 25.728C16.0661 25.928 16.0481 26.28 16.0121 26.784H15.8021ZM16.851 29.646C16.767 29.53 16.697 29.37 16.641 29.166C16.585 28.958 16.557 28.698 16.557 28.386C16.557 28.07 16.639 27.778 16.803 27.51C16.911 27.342 17.099 27.19 17.367 27.054C17.635 26.914 17.857 26.844 18.033 26.844C18.389 26.844 18.693 26.958 18.945 27.186C19.197 27.414 19.323 27.77 19.323 28.254C19.323 28.734 19.235 29.108 19.059 29.376C18.823 29.692 18.593 29.9 18.369 30C18.217 30.068 18.059 30.102 17.895 30.102C17.731 30.102 17.597 30.09 17.493 30.066C17.389 30.046 17.277 30 17.157 29.928C17.041 29.856 16.939 29.762 16.851 29.646ZM17.127 28.464C17.127 28.896 17.209 29.206 17.373 29.394C17.541 29.582 17.783 29.676 18.099 29.676C18.219 29.676 18.307 29.666 18.363 29.646C18.639 29.538 18.777 29.122 18.777 28.398C18.777 28.058 18.731 27.81 18.639 27.654C18.551 27.494 18.397 27.38 18.177 27.312C18.065 27.284 17.963 27.27 17.871 27.27C17.779 27.27 17.711 27.272 17.667 27.276C17.627 27.28 17.573 27.292 17.505 27.312C17.437 27.332 17.385 27.366 17.349 27.414C17.313 27.458 17.275 27.52 17.235 27.6C17.163 27.744 17.127 28.032 17.127 28.464ZM19.6326 30V29.796C19.6646 29.792 19.7066 29.786 19.7586 29.778C19.8106 29.766 19.8446 29.76 19.8606 29.76C19.8766 29.756 19.9006 29.748 19.9326 29.736C19.9686 29.724 19.9906 29.714 19.9986 29.706C20.0066 29.698 20.0206 29.682 20.0406 29.658C20.0606 29.634 20.0706 29.61 20.0706 29.586C20.0746 29.562 20.0806 29.53 20.0886 29.49C20.0966 29.446 20.1006 29.4 20.1006 29.352V28.062C20.1006 27.65 20.0946 26.992 20.0826 26.088L20.0766 25.8C20.0726 25.7 20.0486 25.636 20.0046 25.608C19.9606 25.58 19.8726 25.566 19.7406 25.566H19.6626L19.6506 25.368C19.9466 25.332 20.1666 25.298 20.3106 25.266C20.4546 25.23 20.5346 25.212 20.5506 25.212C20.6186 25.212 20.6526 25.242 20.6526 25.302C20.6606 25.63 20.6646 26.04 20.6646 26.532C20.6646 27.024 20.6546 27.55 20.6346 28.11C20.6146 28.666 20.6046 29.106 20.6046 29.43C20.6046 29.582 20.6266 29.676 20.6706 29.712C20.7186 29.744 20.8446 29.772 21.0486 29.796V30H19.6326ZM21.6556 29.646C21.5716 29.53 21.5016 29.37 21.4456 29.166C21.3896 28.958 21.3616 28.698 21.3616 28.386C21.3616 28.07 21.4436 27.778 21.6076 27.51C21.7156 27.342 21.9036 27.19 22.1716 27.054C22.4396 26.914 22.6616 26.844 22.8376 26.844C23.1936 26.844 23.4976 26.958 23.7496 27.186C24.0016 27.414 24.1276 27.77 24.1276 28.254C24.1276 28.734 24.0396 29.108 23.8636 29.376C23.6276 29.692 23.3976 29.9 23.1736 30C23.0216 30.068 22.8636 30.102 22.6996 30.102C22.5356 30.102 22.4016 30.09 22.2976 30.066C22.1936 30.046 22.0816 30 21.9616 29.928C21.8456 29.856 21.7436 29.762 21.6556 29.646ZM21.9316 28.464C21.9316 28.896 22.0136 29.206 22.1776 29.394C22.3456 29.582 22.5876 29.676 22.9036 29.676C23.0236 29.676 23.1116 29.666 23.1676 29.646C23.4436 29.538 23.5816 29.122 23.5816 28.398C23.5816 28.058 23.5356 27.81 23.4436 27.654C23.3556 27.494 23.2016 27.38 22.9816 27.312C22.8696 27.284 22.7676 27.27 22.6756 27.27C22.5836 27.27 22.5156 27.272 22.4716 27.276C22.4316 27.28 22.3776 27.292 22.3096 27.312C22.2416 27.332 22.1896 27.366 22.1536 27.414C22.1176 27.458 22.0796 27.52 22.0396 27.6C21.9676 27.744 21.9316 28.032 21.9316 28.464ZM25.4453 27.828L25.4393 29.454C25.4393 29.578 25.4753 29.66 25.5473 29.7C25.6193 29.736 25.7273 29.764 25.8713 29.784C26.0193 29.804 26.0993 29.814 26.1113 29.814V30H24.4313V29.796C24.5273 29.784 24.5913 29.778 24.6233 29.778C24.6553 29.774 24.6953 29.762 24.7433 29.742C24.7953 29.718 24.8253 29.698 24.8333 29.682C24.8413 29.662 24.8533 29.622 24.8693 29.562C24.8853 29.502 24.8933 29.442 24.8933 29.382V28.908C24.8933 28.104 24.8793 27.632 24.8513 27.492C24.8193 27.336 24.7033 27.258 24.5033 27.258L24.4913 27.03C24.6513 27.014 24.8153 26.976 24.9833 26.916C25.1513 26.856 25.2593 26.826 25.3073 26.826C25.3553 26.826 25.3893 26.85 25.4093 26.898C25.4293 26.942 25.4393 27.024 25.4393 27.144L25.4453 27.372C25.7973 27.032 26.0753 26.862 26.2793 26.862C26.4273 26.862 26.5293 26.88 26.5853 26.916C26.6413 26.952 26.6693 27.018 26.6693 27.114C26.6693 27.146 26.6373 27.362 26.5733 27.762H26.3573C26.3373 27.462 26.2353 27.312 26.0513 27.312C25.9473 27.312 25.8193 27.36 25.6673 27.456C25.5193 27.548 25.4453 27.672 25.4453 27.828Z" fill="#12B76A"/>
</svg>
