<svg width="40" height="40" viewBox="0 0 40 40" fill="none" xmlns="http://www.w3.org/2000/svg">
<rect x="0.5" y="0.5" width="39" height="39" fill="white" stroke="#12B76A"/>
<path d="M18.1097 30.036L16.8557 29.976C16.5157 29.976 16.2377 29.984 16.0217 30V29.778C16.1417 29.77 16.2337 29.76 16.2977 29.748C16.3657 29.736 16.4257 29.71 16.4777 29.67C16.5337 29.63 16.5617 29.574 16.5617 29.502C16.5617 28.118 16.5477 26.962 16.5197 26.034C16.5157 25.946 16.4837 25.888 16.4237 25.86C16.3677 25.828 16.2617 25.808 16.1057 25.8L16.0217 25.794V25.572C16.2377 25.588 16.5237 25.596 16.8797 25.596C17.2397 25.596 17.5377 25.586 17.7737 25.566C18.0097 25.546 18.1697 25.536 18.2537 25.536H18.3797C19.0317 25.536 19.5077 25.696 19.8077 26.016C20.1077 26.336 20.2577 26.846 20.2577 27.546C20.2577 27.906 20.2137 28.232 20.1257 28.524C20.0417 28.816 19.9297 29.054 19.7897 29.238C19.6537 29.422 19.4957 29.576 19.3157 29.7C18.9837 29.924 18.6237 30.036 18.2357 30.036H18.1097ZM17.1437 29.16C17.1437 29.36 17.2217 29.494 17.3777 29.562C17.5377 29.63 17.8557 29.664 18.3317 29.664C18.6237 29.664 18.8397 29.612 18.9797 29.508C19.1197 29.4 19.2637 29.212 19.4117 28.944C19.5637 28.676 19.6397 28.274 19.6397 27.738C19.6397 27.082 19.5097 26.602 19.2497 26.298C18.9937 25.99 18.5877 25.836 18.0317 25.836C17.6477 25.836 17.3897 25.858 17.2577 25.902L17.1917 25.968C17.1597 26.816 17.1437 27.88 17.1437 29.16ZM21.3759 26.37C21.3119 26.37 21.2399 26.322 21.1599 26.226C21.0799 26.126 21.0399 26.054 21.0399 26.01C21.0399 25.962 21.0719 25.878 21.1359 25.758C21.2039 25.638 21.2739 25.578 21.3459 25.578C21.4179 25.578 21.4979 25.616 21.5859 25.692C21.6739 25.764 21.7179 25.848 21.7179 25.944C21.7179 26.04 21.6759 26.136 21.5919 26.232C21.5119 26.324 21.4399 26.37 21.3759 26.37ZM20.6859 30V29.796C20.8899 29.78 21.0179 29.754 21.0699 29.718C21.1219 29.678 21.1479 29.598 21.1479 29.478V28.23C21.1479 27.882 21.1379 27.64 21.1179 27.504C21.1019 27.368 21.0739 27.282 21.0339 27.246C20.9939 27.206 20.9179 27.186 20.8059 27.186H20.7159L20.7039 26.988C20.9999 26.96 21.2199 26.93 21.3639 26.898C21.5119 26.862 21.5919 26.844 21.6039 26.844C21.6719 26.844 21.7059 26.876 21.7059 26.94C21.7059 26.988 21.7039 27.12 21.6999 27.336C21.6839 28.192 21.6759 28.93 21.6759 29.55C21.6759 29.63 21.7079 29.69 21.7719 29.73C21.8359 29.766 21.9379 29.788 22.0779 29.796V30H20.6859ZM24.6712 26.946L25.0672 26.922C25.1232 26.922 25.1512 26.952 25.1512 27.012C25.1512 27.024 25.1472 27.036 25.1392 27.048C25.1352 27.056 25.1252 27.072 25.1092 27.096C25.0972 27.12 25.0792 27.15 25.0552 27.186C25.0352 27.218 25.0052 27.272 24.9652 27.348C24.9292 27.42 24.8872 27.504 24.8392 27.6C24.6232 28.04 24.3872 28.614 24.1312 29.322C23.9912 29.71 23.9052 29.926 23.8732 29.97C23.8452 30.014 23.8192 30.044 23.7952 30.06C23.7592 30.08 23.7012 30.09 23.6212 30.09C23.5452 30.09 23.4872 30.056 23.4472 29.988C23.4112 29.916 23.3572 29.762 23.2852 29.526C23.2172 29.286 23.1652 29.112 23.1292 29.004C23.0972 28.892 23.0492 28.726 22.9852 28.506C22.9252 28.282 22.8752 28.104 22.8352 27.972C22.7152 27.56 22.6032 27.32 22.4992 27.252C22.4592 27.224 22.4052 27.208 22.3372 27.204C22.2692 27.2 22.2272 27.196 22.2112 27.192L22.1992 26.994C22.4752 26.958 22.6832 26.922 22.8232 26.886C22.9632 26.846 23.0412 26.826 23.0572 26.826C23.1252 26.826 23.1592 26.856 23.1592 26.916C23.1592 27.032 23.3152 27.66 23.6272 28.8L23.7892 29.37C24.2132 28.25 24.4252 27.568 24.4252 27.324C24.4252 27.216 24.3892 27.162 24.3172 27.162C24.2452 27.162 24.2092 27.122 24.2092 27.042C24.2092 26.97 24.2772 26.934 24.4132 26.934L24.6712 26.946Z" fill="#12B76A"/>
<path d="M9.15652 16.53L9.29652 15.83L13.8965 13.78L14.0165 13.89L13.8965 14.5L10.0565 16.21L13.8965 17.92L14.0165 18.53L13.8965 18.64L9.15652 16.53ZM17.5612 13.86L17.5412 12.36C17.5412 12.1467 17.5379 12 17.5312 11.92C17.5312 11.8333 17.4979 11.76 17.4312 11.7C17.3712 11.64 17.3079 11.61 17.2412 11.61C17.1812 11.6033 17.0479 11.5967 16.8412 11.59L16.8212 11.26C17.3279 11.2133 17.7012 11.1633 17.9412 11.11C18.1812 11.05 18.3112 11.02 18.3312 11.02C18.4445 11.02 18.5012 11.0733 18.5012 11.18C18.5012 12.6133 18.4879 13.99 18.4612 15.31C18.4412 16.6233 18.4312 17.3967 18.4312 17.63C18.4312 17.8567 18.5145 18.0967 18.6812 18.35C18.8545 18.6033 18.9412 18.7367 18.9412 18.75C18.9412 18.7633 18.9112 18.7833 18.8512 18.81C18.7979 18.83 18.7279 18.8533 18.6412 18.88C18.5545 18.9067 18.4412 18.95 18.3012 19.01C18.1679 19.07 18.0745 19.1 18.0212 19.1C17.9679 19.1 17.9145 19.0467 17.8612 18.94C17.8079 18.8267 17.7545 18.7033 17.7012 18.57C17.6545 18.4367 17.6145 18.3533 17.5812 18.32C17.0812 18.8733 16.6379 19.15 16.2512 19.15C15.9179 19.15 15.5312 18.9667 15.0912 18.6C14.8645 18.42 14.6745 18.1533 14.5212 17.8C14.3679 17.4467 14.2912 17.0633 14.2912 16.65C14.2912 16.2367 14.3112 15.8933 14.3512 15.62C14.3912 15.3467 14.4345 15.1367 14.4812 14.99C14.5279 14.8367 14.5979 14.7 14.6912 14.58C14.7912 14.46 14.8645 14.38 14.9112 14.34C14.9645 14.3 15.0479 14.2467 15.1612 14.18L15.5012 13.98C15.7879 13.8067 16.1012 13.72 16.4412 13.72C16.7879 13.72 17.1612 13.7667 17.5612 13.86ZM15.1712 16.09C15.1712 16.8567 15.3012 17.4167 15.5612 17.77C15.8279 18.1167 16.1512 18.29 16.5312 18.29C16.9112 18.29 17.2579 18.14 17.5712 17.84C17.5712 16.6733 17.5645 15.8467 17.5512 15.36C17.5445 14.8667 17.5412 14.6067 17.5412 14.58C17.2279 14.3933 16.8345 14.3 16.3612 14.3C16.1612 14.3 15.9979 14.32 15.8712 14.36C15.7512 14.3933 15.6312 14.4733 15.5112 14.6C15.2845 14.8267 15.1712 15.3233 15.1712 16.09ZM20.7146 12.95C20.608 12.95 20.488 12.87 20.3546 12.71C20.2213 12.5433 20.1546 12.4233 20.1546 12.35C20.1546 12.27 20.208 12.13 20.3146 11.93C20.428 11.73 20.5446 11.63 20.6646 11.63C20.7846 11.63 20.918 11.6933 21.0646 11.82C21.2113 11.94 21.2846 12.08 21.2846 12.24C21.2846 12.4 21.2146 12.56 21.0746 12.72C20.9413 12.8733 20.8213 12.95 20.7146 12.95ZM19.5646 19V18.66C19.9046 18.6333 20.118 18.59 20.2046 18.53C20.2913 18.4633 20.3346 18.33 20.3346 18.13V16.05C20.3346 15.47 20.318 15.0667 20.2846 14.84C20.258 14.6133 20.2113 14.47 20.1446 14.41C20.078 14.3433 19.9513 14.31 19.7646 14.31H19.6146L19.5946 13.98C20.088 13.9333 20.4546 13.8833 20.6946 13.83C20.9413 13.77 21.0746 13.74 21.0946 13.74C21.208 13.74 21.2646 13.7933 21.2646 13.9C21.2646 13.98 21.2613 14.2 21.2546 14.56C21.228 15.9867 21.2146 17.2167 21.2146 18.25C21.2146 18.3833 21.268 18.4833 21.3746 18.55C21.4813 18.61 21.6513 18.6467 21.8846 18.66V19H19.5646ZM26.2069 13.91L26.8669 13.87C26.9602 13.87 27.0069 13.92 27.0069 14.02C27.0069 14.04 27.0002 14.06 26.9869 14.08C26.9802 14.0933 26.9636 14.12 26.9369 14.16C26.9169 14.2 26.8869 14.25 26.8469 14.31C26.8136 14.3633 26.7636 14.4533 26.6969 14.58C26.6369 14.7 26.5669 14.84 26.4869 15C26.1269 15.7333 25.7336 16.69 25.3069 17.87C25.0736 18.5167 24.9302 18.8767 24.8769 18.95C24.8302 19.0233 24.7869 19.0733 24.7469 19.1C24.6869 19.1333 24.5902 19.15 24.4569 19.15C24.3302 19.15 24.2336 19.0933 24.1669 18.98C24.1069 18.86 24.0169 18.6033 23.8969 18.21C23.7836 17.81 23.6969 17.52 23.6369 17.34C23.5836 17.1533 23.5036 16.8767 23.3969 16.51C23.2969 16.1367 23.2136 15.84 23.1469 15.62C22.9469 14.9333 22.7602 14.5333 22.5869 14.42C22.5202 14.3733 22.4302 14.3467 22.3169 14.34C22.2036 14.3333 22.1336 14.3267 22.1069 14.32L22.0869 13.99C22.5469 13.93 22.8936 13.87 23.1269 13.81C23.3602 13.7433 23.4902 13.71 23.5169 13.71C23.6302 13.71 23.6869 13.76 23.6869 13.86C23.6869 14.0533 23.9469 15.1 24.4669 17L24.7369 17.95C25.4436 16.0833 25.7969 14.9467 25.7969 14.54C25.7969 14.36 25.7369 14.27 25.6169 14.27C25.4969 14.27 25.4369 14.2033 25.4369 14.07C25.4369 13.95 25.5502 13.89 25.7769 13.89L26.2069 13.91ZM26.9788 18.53L27.0988 17.92L30.9388 16.21L27.0988 14.5L26.9788 13.89L27.0988 13.78L31.8388 15.89L31.6988 16.59L27.0988 18.64L26.9788 18.53Z" fill="#12B76A"/>
</svg>
