<svg width="40" height="40" viewBox="0 0 40 40" fill="none" xmlns="http://www.w3.org/2000/svg">
<rect x="0.5" y="0.5" width="39" height="39" fill="white" stroke="#12B76A"/>
<path d="M4.5 12.25H4.25V12.5V18.5V18.75H4.5H35.5H35.75V18.5V12.5V12.25H35.5H4.5Z" fill="white" stroke="#12B76A" stroke-width="0.5"/>
<path d="M7.58045 16.572L7.58445 15.444C7.58445 15.3587 7.55912 15.296 7.50845 15.256C7.46045 15.2133 7.36712 15.192 7.22845 15.192C7.17512 15.192 7.10845 15.2093 7.02845 15.244C6.94845 15.276 6.88312 15.308 6.83245 15.34C6.81379 15.9453 6.80445 16.2933 6.80445 16.384V16.584C6.80445 16.6267 6.80712 16.664 6.81245 16.696C6.82045 16.728 6.82579 16.752 6.82845 16.768C6.83112 16.7813 6.84045 16.7947 6.85645 16.808C6.87512 16.8213 6.88845 16.8293 6.89645 16.832C6.93645 16.8373 6.98045 16.848 7.02845 16.864V17H6.21245V16.864C6.30045 16.8587 6.36045 16.8427 6.39245 16.816C6.42712 16.7893 6.44445 16.7493 6.44445 16.696C6.44445 15.8 6.43512 15.324 6.41645 15.268C6.41112 15.2547 6.39912 15.24 6.38045 15.224C6.36179 15.2053 6.30179 15.1907 6.20045 15.18L6.19245 15.028C6.29912 15.0173 6.40845 14.992 6.52045 14.952C6.63245 14.912 6.70445 14.892 6.73645 14.892C6.76845 14.892 6.79112 14.9067 6.80445 14.936C6.81779 14.9653 6.82445 15.0213 6.82445 15.104V15.16C6.84045 15.152 6.87112 15.1347 6.91645 15.108C6.96445 15.0813 6.99779 15.0627 7.01645 15.052C7.03779 15.0413 7.06712 15.0253 7.10445 15.004C7.14445 14.9827 7.17645 14.968 7.20045 14.96C7.22445 14.9493 7.25379 14.9387 7.28845 14.928C7.34179 14.9067 7.39912 14.896 7.46045 14.896C7.61512 14.896 7.78179 14.9907 7.96045 15.18C8.21912 14.9907 8.44179 14.896 8.62845 14.896C8.73779 14.896 8.82979 14.928 8.90445 14.992C9.02179 15.096 9.08045 15.2213 9.08045 15.368L9.07245 16.412C9.07245 16.6227 9.08312 16.7493 9.10445 16.792C9.12845 16.8347 9.18712 16.8587 9.28045 16.864H9.30845V17H8.49245V16.864C8.59379 16.8587 8.65645 16.8387 8.68045 16.804C8.70712 16.7667 8.72045 16.684 8.72045 16.556L8.71645 15.576C8.71645 15.4987 8.71379 15.4413 8.70845 15.404C8.70312 15.3667 8.68979 15.3293 8.66845 15.292C8.64712 15.252 8.61112 15.2253 8.56045 15.212C8.50979 15.1987 8.44445 15.192 8.36445 15.192C8.28445 15.192 8.14845 15.2427 7.95645 15.344C7.95379 15.6907 7.95245 16.0467 7.95245 16.412L7.96045 16.668C7.96045 16.7 7.96579 16.7267 7.97645 16.748C7.98712 16.7667 7.99245 16.7827 7.99245 16.796C7.99512 16.8067 8.00579 16.816 8.02445 16.824C8.04579 16.832 8.05779 16.8373 8.06045 16.84C8.06579 16.8427 8.08445 16.8467 8.11645 16.852C8.14845 16.8573 8.16979 16.8613 8.18045 16.864V17H7.36445V16.864C7.46312 16.8587 7.52312 16.8387 7.54445 16.804C7.56845 16.7667 7.58045 16.6893 7.58045 16.572ZM11.0604 15.432L11.0444 16.488C11.0444 16.5547 11.0737 16.636 11.1324 16.732C11.1937 16.8253 11.2244 16.88 11.2244 16.896C11.2244 16.9093 11.2124 16.92 11.1884 16.928C11.0017 16.9893 10.8964 17.02 10.8724 17.02C10.8511 17.02 10.8284 17.0013 10.8044 16.964C10.7831 16.924 10.7631 16.876 10.7444 16.82C10.7257 16.764 10.7151 16.7347 10.7124 16.732C10.6724 16.7587 10.6231 16.792 10.5644 16.832C10.5057 16.872 10.4644 16.9 10.4404 16.916C10.4191 16.9293 10.3871 16.9467 10.3444 16.968C10.3044 16.9893 10.2684 17.004 10.2364 17.012C10.1617 17.0307 10.0604 17.04 9.93239 17.04C9.80706 17.04 9.71372 16.9893 9.65239 16.888C9.59106 16.7867 9.56039 16.676 9.56039 16.556C9.56039 16.436 9.56972 16.34 9.58839 16.268C9.60706 16.196 9.63772 16.136 9.68039 16.088C9.72306 16.04 9.76572 16 9.80839 15.968C9.85106 15.936 9.91106 15.9093 9.98839 15.888C10.0684 15.864 10.1364 15.8467 10.1924 15.836C10.2511 15.8227 10.3324 15.8067 10.4364 15.788C10.5404 15.7667 10.6244 15.7493 10.6884 15.736L10.6924 15.496C10.6924 15.3733 10.6484 15.2853 10.5604 15.232C10.4724 15.1787 10.3657 15.152 10.2404 15.152C10.1177 15.152 10.0324 15.184 9.98439 15.248C9.93639 15.3093 9.88439 15.4427 9.82839 15.648L9.66439 15.632C9.66439 15.4 9.70439 15.2373 9.78439 15.144C9.88039 15.032 9.98439 14.9627 10.0964 14.936C10.2084 14.9093 10.3217 14.896 10.4364 14.896C10.5537 14.896 10.6537 14.9093 10.7364 14.936C10.8191 14.9627 10.8804 14.9933 10.9204 15.028C10.9631 15.06 10.9951 15.1053 11.0164 15.164C11.0404 15.22 11.0537 15.2653 11.0564 15.3C11.0591 15.3347 11.0604 15.3787 11.0604 15.432ZM9.92039 16.476C9.92039 16.6733 10.0097 16.772 10.1884 16.772C10.3457 16.772 10.5044 16.7053 10.6644 16.572C10.6831 16.556 10.6924 16.4587 10.6924 16.28C10.6924 16.1013 10.6911 15.972 10.6884 15.892C10.6404 15.908 10.5791 15.928 10.5044 15.952C10.4324 15.976 10.3804 15.9933 10.3484 16.004C10.3191 16.0147 10.2791 16.0293 10.2284 16.048C10.1777 16.064 10.1431 16.0773 10.1244 16.088C10.1084 16.0987 10.0844 16.112 10.0524 16.128C10.0231 16.144 10.0044 16.16 9.99639 16.176C9.98839 16.1893 9.97639 16.2067 9.96039 16.228C9.94439 16.2467 9.93506 16.2693 9.93239 16.296C9.92439 16.3707 9.92039 16.4307 9.92039 16.476ZM11.8905 14.58C11.8479 14.58 11.7999 14.548 11.7465 14.484C11.6932 14.4173 11.6665 14.3693 11.6665 14.34C11.6665 14.308 11.6879 14.252 11.7305 14.172C11.7759 14.092 11.8225 14.052 11.8705 14.052C11.9185 14.052 11.9719 14.0773 12.0305 14.128C12.0892 14.176 12.1185 14.232 12.1185 14.296C12.1185 14.36 12.0905 14.424 12.0345 14.488C11.9812 14.5493 11.9332 14.58 11.8905 14.58ZM11.4305 17V16.864C11.5665 16.8533 11.6519 16.836 11.6865 16.812C11.7212 16.7853 11.7385 16.732 11.7385 16.652V15.82C11.7385 15.588 11.7319 15.4267 11.7185 15.336C11.7079 15.2453 11.6892 15.188 11.6625 15.164C11.6359 15.1373 11.5852 15.124 11.5105 15.124H11.4505L11.4425 14.992C11.6399 14.9733 11.7865 14.9533 11.8825 14.932C11.9812 14.908 12.0345 14.896 12.0425 14.896C12.0879 14.896 12.1105 14.9173 12.1105 14.96C12.1105 14.992 12.1092 15.08 12.1065 15.224C12.0959 15.7947 12.0905 16.2867 12.0905 16.7C12.0905 16.7533 12.1119 16.7933 12.1545 16.82C12.1972 16.844 12.2652 16.8587 12.3585 16.864V17H11.4305ZM12.5435 17V16.864C12.5648 16.8613 12.5928 16.8573 12.6275 16.852C12.6621 16.844 12.6848 16.84 12.6955 16.84C12.7061 16.8373 12.7221 16.832 12.7435 16.824C12.7675 16.816 12.7821 16.8093 12.7875 16.804C12.7928 16.7987 12.8021 16.788 12.8155 16.772C12.8288 16.756 12.8355 16.74 12.8355 16.724C12.8381 16.708 12.8421 16.6867 12.8475 16.66C12.8528 16.6307 12.8555 16.6 12.8555 16.568V15.708C12.8555 15.4333 12.8515 14.9947 12.8435 14.392L12.8395 14.2C12.8368 14.1333 12.8208 14.0907 12.7915 14.072C12.7621 14.0533 12.7035 14.044 12.6155 14.044H12.5635L12.5555 13.912C12.7528 13.888 12.8995 13.8653 12.9955 13.844C13.0915 13.82 13.1448 13.808 13.1555 13.808C13.2008 13.808 13.2235 13.828 13.2235 13.868C13.2288 14.0867 13.2315 14.36 13.2315 14.688C13.2315 15.016 13.2248 15.3667 13.2115 15.74C13.1981 16.1107 13.1915 16.404 13.1915 16.62C13.1915 16.7213 13.2061 16.784 13.2355 16.808C13.2675 16.8293 13.3515 16.848 13.4875 16.864V17H12.5435ZM14.1002 17.268C13.9562 17.1027 13.8455 16.916 13.7682 16.708C13.6935 16.4973 13.6562 16.2707 13.6562 16.028C13.6562 15.7853 13.6948 15.5533 13.7722 15.332C13.8522 15.108 13.9575 14.9173 14.0882 14.76C14.2215 14.6027 14.3748 14.468 14.5482 14.356C14.8895 14.1347 15.2628 14.024 15.6682 14.024C16.0815 14.024 16.4295 14.1427 16.7122 14.38C16.8535 14.4973 16.9655 14.6493 17.0482 14.836C17.1308 15.0227 17.1722 15.2267 17.1722 15.448C17.1722 15.6667 17.1175 15.9013 17.0082 16.152C16.9015 16.4 16.7695 16.612 16.6122 16.788C16.4548 16.9613 16.3122 17.048 16.1842 17.048C16.0082 17.048 15.9002 16.8987 15.8602 16.6C15.7455 16.7093 15.6162 16.812 15.4722 16.908C15.3308 17.004 15.2242 17.052 15.1522 17.052C15.0855 17.052 15.0175 17.0267 14.9482 16.976C14.8788 16.9227 14.8215 16.8667 14.7762 16.808C14.7335 16.7467 14.6962 16.6627 14.6642 16.556C14.6322 16.4467 14.6162 16.316 14.6162 16.164C14.6162 16.012 14.6495 15.8547 14.7162 15.692C14.7828 15.5293 14.8642 15.3933 14.9602 15.284C15.0588 15.172 15.1615 15.0827 15.2682 15.016C15.3775 14.9467 15.4855 14.912 15.5922 14.912C15.6988 14.912 15.8508 14.9493 16.0482 15.024L16.1882 14.9L16.2762 14.936C16.2415 15.0267 16.2122 15.272 16.1882 15.672C16.1668 16.072 16.1562 16.3467 16.1562 16.496C16.1562 16.7013 16.1948 16.804 16.2722 16.804C16.3335 16.804 16.4068 16.7413 16.4922 16.616C16.5802 16.488 16.6562 16.32 16.7202 16.112C16.7868 15.904 16.8202 15.7 16.8202 15.5C16.8202 15.3 16.7828 15.12 16.7082 14.96C16.6335 14.7973 16.5335 14.6667 16.4082 14.568C16.1575 14.368 15.8628 14.268 15.5242 14.268C15.3428 14.268 15.1748 14.2973 15.0202 14.356C14.8682 14.4147 14.7388 14.4947 14.6322 14.596C14.5255 14.6947 14.4308 14.8067 14.3482 14.932C14.2682 15.0547 14.2055 15.1867 14.1602 15.328C14.0668 15.6027 14.0202 15.8507 14.0202 16.072C14.0202 16.2933 14.0495 16.4933 14.1082 16.672C14.1695 16.8507 14.2602 17.012 14.3802 17.156C14.5028 17.3 14.6668 17.4133 14.8722 17.496C15.0775 17.5813 15.2895 17.624 15.5082 17.624C15.7268 17.624 15.9722 17.5933 16.2442 17.532L16.2762 17.648C16.1855 17.6827 16.0548 17.7187 15.8842 17.756C15.7135 17.7933 15.5748 17.812 15.4682 17.812C15.1748 17.812 14.9095 17.7627 14.6722 17.664C14.4375 17.5653 14.2468 17.4333 14.1002 17.268ZM14.9042 16.1C14.9042 16.236 14.9468 16.3747 15.0322 16.516C15.1202 16.6573 15.2082 16.728 15.2962 16.728C15.3842 16.728 15.4815 16.696 15.5882 16.632C15.6948 16.5653 15.7895 16.48 15.8722 16.376C15.9068 15.968 15.9242 15.656 15.9242 15.44C15.7402 15.256 15.5695 15.164 15.4122 15.164C15.2575 15.164 15.1335 15.2507 15.0402 15.424C14.9495 15.5973 14.9042 15.8227 14.9042 16.1ZM18.7719 16.572L18.7759 15.444C18.7759 15.3587 18.7505 15.296 18.6999 15.256C18.6519 15.2133 18.5585 15.192 18.4199 15.192C18.3665 15.192 18.2999 15.2093 18.2199 15.244C18.1399 15.276 18.0745 15.308 18.0239 15.34C18.0052 15.9453 17.9959 16.2933 17.9959 16.384V16.584C17.9959 16.6267 17.9985 16.664 18.0039 16.696C18.0119 16.728 18.0172 16.752 18.0199 16.768C18.0225 16.7813 18.0319 16.7947 18.0479 16.808C18.0665 16.8213 18.0799 16.8293 18.0879 16.832C18.1279 16.8373 18.1719 16.848 18.2199 16.864V17H17.4039V16.864C17.4919 16.8587 17.5519 16.8427 17.5839 16.816C17.6185 16.7893 17.6359 16.7493 17.6359 16.696C17.6359 15.8 17.6265 15.324 17.6079 15.268C17.6025 15.2547 17.5905 15.24 17.5719 15.224C17.5532 15.2053 17.4932 15.1907 17.3919 15.18L17.3839 15.028C17.4905 15.0173 17.5999 14.992 17.7119 14.952C17.8239 14.912 17.8959 14.892 17.9279 14.892C17.9599 14.892 17.9825 14.9067 17.9959 14.936C18.0092 14.9653 18.0159 15.0213 18.0159 15.104V15.16C18.0319 15.152 18.0625 15.1347 18.1079 15.108C18.1559 15.0813 18.1892 15.0627 18.2079 15.052C18.2292 15.0413 18.2585 15.0253 18.2959 15.004C18.3359 14.9827 18.3679 14.968 18.3919 14.96C18.4159 14.9493 18.4452 14.9387 18.4799 14.928C18.5332 14.9067 18.5905 14.896 18.6519 14.896C18.8065 14.896 18.9732 14.9907 19.1519 15.18C19.4105 14.9907 19.6332 14.896 19.8199 14.896C19.9292 14.896 20.0212 14.928 20.0959 14.992C20.2132 15.096 20.2719 15.2213 20.2719 15.368L20.2639 16.412C20.2639 16.6227 20.2745 16.7493 20.2959 16.792C20.3199 16.8347 20.3785 16.8587 20.4719 16.864H20.4999V17H19.6839V16.864C19.7852 16.8587 19.8479 16.8387 19.8719 16.804C19.8985 16.7667 19.9119 16.684 19.9119 16.556L19.9079 15.576C19.9079 15.4987 19.9052 15.4413 19.8999 15.404C19.8945 15.3667 19.8812 15.3293 19.8599 15.292C19.8385 15.252 19.8025 15.2253 19.7519 15.212C19.7012 15.1987 19.6359 15.192 19.5559 15.192C19.4759 15.192 19.3399 15.2427 19.1479 15.344C19.1452 15.6907 19.1439 16.0467 19.1439 16.412L19.1519 16.668C19.1519 16.7 19.1572 16.7267 19.1679 16.748C19.1785 16.7667 19.1839 16.7827 19.1839 16.796C19.1865 16.8067 19.1972 16.816 19.2159 16.824C19.2372 16.832 19.2492 16.8373 19.2519 16.84C19.2572 16.8427 19.2759 16.8467 19.3079 16.852C19.3399 16.8573 19.3612 16.8613 19.3719 16.864V17H18.5559V16.864C18.6545 16.8587 18.7145 16.8387 18.7359 16.804C18.7599 16.7667 18.7719 16.6893 18.7719 16.572ZM22.2518 15.432L22.2358 16.488C22.2358 16.5547 22.2651 16.636 22.3238 16.732C22.3851 16.8253 22.4158 16.88 22.4158 16.896C22.4158 16.9093 22.4038 16.92 22.3798 16.928C22.1931 16.9893 22.0878 17.02 22.0638 17.02C22.0425 17.02 22.0198 17.0013 21.9958 16.964C21.9745 16.924 21.9545 16.876 21.9358 16.82C21.9171 16.764 21.9065 16.7347 21.9038 16.732C21.8638 16.7587 21.8145 16.792 21.7558 16.832C21.6971 16.872 21.6558 16.9 21.6318 16.916C21.6105 16.9293 21.5785 16.9467 21.5358 16.968C21.4958 16.9893 21.4598 17.004 21.4278 17.012C21.3531 17.0307 21.2518 17.04 21.1238 17.04C20.9985 17.04 20.9051 16.9893 20.8438 16.888C20.7825 16.7867 20.7518 16.676 20.7518 16.556C20.7518 16.436 20.7611 16.34 20.7798 16.268C20.7985 16.196 20.8291 16.136 20.8718 16.088C20.9145 16.04 20.9571 16 20.9998 15.968C21.0425 15.936 21.1025 15.9093 21.1798 15.888C21.2598 15.864 21.3278 15.8467 21.3838 15.836C21.4425 15.8227 21.5238 15.8067 21.6278 15.788C21.7318 15.7667 21.8158 15.7493 21.8798 15.736L21.8838 15.496C21.8838 15.3733 21.8398 15.2853 21.7518 15.232C21.6638 15.1787 21.5571 15.152 21.4318 15.152C21.3091 15.152 21.2238 15.184 21.1758 15.248C21.1278 15.3093 21.0758 15.4427 21.0198 15.648L20.8558 15.632C20.8558 15.4 20.8958 15.2373 20.9758 15.144C21.0718 15.032 21.1758 14.9627 21.2878 14.936C21.3998 14.9093 21.5131 14.896 21.6278 14.896C21.7451 14.896 21.8451 14.9093 21.9278 14.936C22.0105 14.9627 22.0718 14.9933 22.1118 15.028C22.1545 15.06 22.1865 15.1053 22.2078 15.164C22.2318 15.22 22.2451 15.2653 22.2478 15.3C22.2505 15.3347 22.2518 15.3787 22.2518 15.432ZM21.1118 16.476C21.1118 16.6733 21.2011 16.772 21.3798 16.772C21.5371 16.772 21.6958 16.7053 21.8558 16.572C21.8745 16.556 21.8838 16.4587 21.8838 16.28C21.8838 16.1013 21.8825 15.972 21.8798 15.892C21.8318 15.908 21.7705 15.928 21.6958 15.952C21.6238 15.976 21.5718 15.9933 21.5398 16.004C21.5105 16.0147 21.4705 16.0293 21.4198 16.048C21.3691 16.064 21.3345 16.0773 21.3158 16.088C21.2998 16.0987 21.2758 16.112 21.2438 16.128C21.2145 16.144 21.1958 16.16 21.1878 16.176C21.1798 16.1893 21.1678 16.2067 21.1518 16.228C21.1358 16.2467 21.1265 16.2693 21.1238 16.296C21.1158 16.3707 21.1118 16.4307 21.1118 16.476ZM23.082 14.58C23.0393 14.58 22.9913 14.548 22.938 14.484C22.8846 14.4173 22.858 14.3693 22.858 14.34C22.858 14.308 22.8793 14.252 22.922 14.172C22.9673 14.092 23.014 14.052 23.062 14.052C23.11 14.052 23.1633 14.0773 23.222 14.128C23.2806 14.176 23.31 14.232 23.31 14.296C23.31 14.36 23.282 14.424 23.226 14.488C23.1726 14.5493 23.1246 14.58 23.082 14.58ZM22.622 17V16.864C22.758 16.8533 22.8433 16.836 22.878 16.812C22.9126 16.7853 22.93 16.732 22.93 16.652V15.82C22.93 15.588 22.9233 15.4267 22.91 15.336C22.8993 15.2453 22.8806 15.188 22.854 15.164C22.8273 15.1373 22.7766 15.124 22.702 15.124H22.642L22.634 14.992C22.8313 14.9733 22.978 14.9533 23.074 14.932C23.1726 14.908 23.226 14.896 23.234 14.896C23.2793 14.896 23.302 14.9173 23.302 14.96C23.302 14.992 23.3006 15.08 23.298 15.224C23.2873 15.7947 23.282 16.2867 23.282 16.7C23.282 16.7533 23.3033 16.7933 23.346 16.82C23.3886 16.844 23.4566 16.8587 23.55 16.864V17H22.622ZM23.7349 17V16.864C23.7562 16.8613 23.7842 16.8573 23.8189 16.852C23.8535 16.844 23.8762 16.84 23.8869 16.84C23.8975 16.8373 23.9135 16.832 23.9349 16.824C23.9589 16.816 23.9735 16.8093 23.9789 16.804C23.9842 16.7987 23.9935 16.788 24.0069 16.772C24.0202 16.756 24.0269 16.74 24.0269 16.724C24.0295 16.708 24.0335 16.6867 24.0389 16.66C24.0442 16.6307 24.0469 16.6 24.0469 16.568V15.708C24.0469 15.4333 24.0429 14.9947 24.0349 14.392L24.0309 14.2C24.0282 14.1333 24.0122 14.0907 23.9829 14.072C23.9535 14.0533 23.8949 14.044 23.8069 14.044H23.7549L23.7469 13.912C23.9442 13.888 24.0909 13.8653 24.1869 13.844C24.2829 13.82 24.3362 13.808 24.3469 13.808C24.3922 13.808 24.4149 13.828 24.4149 13.868C24.4202 14.0867 24.4229 14.36 24.4229 14.688C24.4229 15.016 24.4162 15.3667 24.4029 15.74C24.3895 16.1107 24.3829 16.404 24.3829 16.62C24.3829 16.7213 24.3975 16.784 24.4269 16.808C24.4589 16.8293 24.5429 16.848 24.6789 16.864V17H23.7349ZM24.9436 16.52C24.9062 16.36 24.8876 16.188 24.8876 16.004C24.8876 15.8173 24.9049 15.6387 24.9396 15.468C24.9582 15.388 25.0049 15.3173 25.0796 15.256C25.1996 15.144 25.3076 15.0613 25.4036 15.008C25.5022 14.952 25.5742 14.92 25.6196 14.912C25.6676 14.904 25.7369 14.9 25.8276 14.9C25.9182 14.9 26.0196 14.9107 26.1316 14.932C26.2436 14.9533 26.3169 14.9707 26.3516 14.984C26.3436 15.064 26.3396 15.264 26.3396 15.584H26.2196C26.1929 15.4667 26.1716 15.3827 26.1556 15.332C26.1422 15.2813 26.0849 15.2427 25.9836 15.216C25.8822 15.1893 25.7609 15.176 25.6196 15.176C25.4782 15.176 25.3796 15.2267 25.3236 15.328C25.2702 15.4293 25.2436 15.624 25.2436 15.912C25.2436 16.1707 25.2756 16.368 25.3396 16.504C25.4142 16.6667 25.5636 16.748 25.7876 16.748C25.8676 16.748 25.9529 16.7253 26.0436 16.68C26.1342 16.632 26.2049 16.584 26.2556 16.536L26.3356 16.464L26.4196 16.544C26.3156 16.672 26.2236 16.7707 26.1436 16.84C26.0662 16.9093 26.0076 16.9547 25.9676 16.976C25.7409 17.0933 25.4929 17.08 25.2236 16.936C25.1142 16.8373 25.0209 16.6987 24.9436 16.52ZM26.8492 16.764C26.7932 16.6867 26.7465 16.58 26.7092 16.444C26.6719 16.3053 26.6532 16.132 26.6532 15.924C26.6532 15.7133 26.7079 15.5187 26.8172 15.34C26.8892 15.228 27.0145 15.1267 27.1932 15.036C27.3719 14.9427 27.5199 14.896 27.6372 14.896C27.8745 14.896 28.0772 14.972 28.2452 15.124C28.4132 15.276 28.4972 15.5133 28.4972 15.836C28.4972 16.156 28.4385 16.4053 28.3212 16.584C28.1639 16.7947 28.0105 16.9333 27.8612 17C27.7599 17.0453 27.6545 17.068 27.5452 17.068C27.4359 17.068 27.3465 17.06 27.2772 17.044C27.2079 17.0307 27.1332 17 27.0532 16.952C26.9759 16.904 26.9079 16.8413 26.8492 16.764ZM27.0332 15.976C27.0332 16.264 27.0879 16.4707 27.1972 16.596C27.3092 16.7213 27.4705 16.784 27.6812 16.784C27.7612 16.784 27.8199 16.7773 27.8572 16.764C28.0412 16.692 28.1332 16.4147 28.1332 15.932C28.1332 15.7053 28.1025 15.54 28.0412 15.436C27.9825 15.3293 27.8799 15.2533 27.7332 15.208C27.6585 15.1893 27.5905 15.18 27.5292 15.18C27.4679 15.18 27.4225 15.1813 27.3932 15.184C27.3665 15.1867 27.3305 15.1947 27.2852 15.208C27.2399 15.2213 27.2052 15.244 27.1812 15.276C27.1572 15.3053 27.1319 15.3467 27.1052 15.4C27.0572 15.496 27.0332 15.688 27.0332 15.976ZM30.1156 16.572L30.1196 15.444C30.1196 15.3587 30.0943 15.296 30.0436 15.256C29.9956 15.2133 29.9023 15.192 29.7636 15.192C29.7103 15.192 29.6436 15.2093 29.5636 15.244C29.4836 15.276 29.4183 15.308 29.3676 15.34C29.3489 15.9453 29.3396 16.2933 29.3396 16.384V16.584C29.3396 16.6267 29.3423 16.664 29.3476 16.696C29.3556 16.728 29.3609 16.752 29.3636 16.768C29.3663 16.7813 29.3756 16.7947 29.3916 16.808C29.4103 16.8213 29.4236 16.8293 29.4316 16.832C29.4716 16.8373 29.5156 16.848 29.5636 16.864V17H28.7476V16.864C28.8356 16.8587 28.8956 16.8427 28.9276 16.816C28.9623 16.7893 28.9796 16.7493 28.9796 16.696C28.9796 15.8 28.9703 15.324 28.9516 15.268C28.9463 15.2547 28.9343 15.24 28.9156 15.224C28.8969 15.2053 28.8369 15.1907 28.7356 15.18L28.7276 15.028C28.8343 15.0173 28.9436 14.992 29.0556 14.952C29.1676 14.912 29.2396 14.892 29.2716 14.892C29.3036 14.892 29.3263 14.9067 29.3396 14.936C29.3529 14.9653 29.3596 15.0213 29.3596 15.104V15.16C29.3756 15.152 29.4063 15.1347 29.4516 15.108C29.4996 15.0813 29.5329 15.0627 29.5516 15.052C29.5729 15.0413 29.6023 15.0253 29.6396 15.004C29.6796 14.9827 29.7116 14.968 29.7356 14.96C29.7596 14.9493 29.7889 14.9387 29.8236 14.928C29.8769 14.9067 29.9343 14.896 29.9956 14.896C30.1503 14.896 30.3169 14.9907 30.4956 15.18C30.7543 14.9907 30.9769 14.896 31.1636 14.896C31.2729 14.896 31.3649 14.928 31.4396 14.992C31.5569 15.096 31.6156 15.2213 31.6156 15.368L31.6076 16.412C31.6076 16.6227 31.6183 16.7493 31.6396 16.792C31.6636 16.8347 31.7223 16.8587 31.8156 16.864H31.8436V17H31.0276V16.864C31.1289 16.8587 31.1916 16.8387 31.2156 16.804C31.2423 16.7667 31.2556 16.684 31.2556 16.556L31.2516 15.576C31.2516 15.4987 31.2489 15.4413 31.2436 15.404C31.2383 15.3667 31.2249 15.3293 31.2036 15.292C31.1823 15.252 31.1463 15.2253 31.0956 15.212C31.0449 15.1987 30.9796 15.192 30.8996 15.192C30.8196 15.192 30.6836 15.2427 30.4916 15.344C30.4889 15.6907 30.4876 16.0467 30.4876 16.412L30.4956 16.668C30.4956 16.7 30.5009 16.7267 30.5116 16.748C30.5223 16.7667 30.5276 16.7827 30.5276 16.796C30.5303 16.8067 30.5409 16.816 30.5596 16.824C30.5809 16.832 30.5929 16.8373 30.5956 16.84C30.6009 16.8427 30.6196 16.8467 30.6516 16.852C30.6836 16.8573 30.7049 16.8613 30.7156 16.864V17H29.8996V16.864C29.9983 16.8587 30.0583 16.8387 30.0796 16.804C30.1036 16.7667 30.1156 16.6893 30.1156 16.572Z" fill="#12B76A"/>
<path d="M12.1213 30V29.778C12.2413 29.77 12.3333 29.76 12.3973 29.748C12.4653 29.736 12.5253 29.71 12.5773 29.67C12.6333 29.63 12.6613 29.574 12.6613 29.502C12.6773 28.99 12.6853 28.382 12.6853 27.678C12.6853 26.97 12.6773 26.422 12.6613 26.034C12.6573 25.946 12.6253 25.888 12.5653 25.86C12.5093 25.828 12.4053 25.808 12.2533 25.8L12.1693 25.794V25.572C12.3853 25.588 12.6573 25.596 12.9853 25.596C13.3133 25.596 13.5673 25.59 13.7473 25.578L15.3253 25.572L15.3973 25.638C15.3893 25.67 15.3613 25.852 15.3133 26.184C15.2653 26.516 15.2393 26.704 15.2353 26.748H15.0313C14.9553 26.34 14.9073 26.112 14.8873 26.064C14.8713 26.012 14.8433 25.972 14.8033 25.944C14.6713 25.908 14.4293 25.89 14.0773 25.89C13.7293 25.89 13.5193 25.904 13.4473 25.932C13.3753 25.956 13.3373 26.01 13.3333 26.094C13.3253 26.31 13.3173 26.786 13.3093 27.522C13.8733 27.522 14.3653 27.512 14.7853 27.492L14.7253 27.936H14.6233C14.4793 27.832 14.0393 27.78 13.3033 27.78C13.2953 28.372 13.2913 28.946 13.2913 29.502C13.2913 29.598 13.3633 29.662 13.5073 29.694C13.6513 29.722 13.9073 29.736 14.2753 29.736C14.6473 29.736 14.8633 29.712 14.9233 29.664C15.0233 29.576 15.1253 29.332 15.2293 28.932L15.3133 28.608H15.5353C15.5233 28.712 15.5113 28.954 15.4993 29.334C15.4873 29.714 15.4813 29.936 15.4813 30H12.1213ZM18.0592 29.358L18.0652 27.666C18.0652 27.538 18.0272 27.444 17.9512 27.384C17.8792 27.32 17.7392 27.288 17.5312 27.288C17.4512 27.288 17.3512 27.314 17.2312 27.366C17.1112 27.414 17.0132 27.462 16.9372 27.51C16.9092 28.418 16.8952 28.94 16.8952 29.076V29.376C16.8952 29.44 16.8992 29.496 16.9072 29.544C16.9192 29.592 16.9272 29.628 16.9312 29.652C16.9352 29.672 16.9492 29.692 16.9732 29.712C17.0012 29.732 17.0212 29.744 17.0332 29.748C17.0932 29.756 17.1592 29.772 17.2312 29.796V30H16.0072V29.796C16.1392 29.788 16.2292 29.764 16.2772 29.724C16.3292 29.684 16.3552 29.624 16.3552 29.544C16.3552 28.2 16.3412 27.486 16.3132 27.402C16.3052 27.382 16.2872 27.36 16.2592 27.336C16.2312 27.308 16.1412 27.286 15.9892 27.27L15.9772 27.042C16.1372 27.026 16.3012 26.988 16.4692 26.928C16.6372 26.868 16.7452 26.838 16.7932 26.838C16.8412 26.838 16.8752 26.86 16.8952 26.904C16.9152 26.948 16.9252 27.032 16.9252 27.156V27.24C16.9492 27.228 16.9952 27.202 17.0632 27.162C17.1352 27.122 17.1852 27.094 17.2132 27.078C17.2452 27.062 17.2892 27.038 17.3452 27.006C17.4052 26.974 17.4532 26.952 17.4892 26.94C17.5252 26.924 17.5692 26.908 17.6212 26.892C17.7012 26.86 17.7872 26.844 17.8792 26.844C18.1112 26.844 18.3612 26.986 18.6292 27.27C19.0172 26.986 19.3512 26.844 19.6312 26.844C19.7952 26.844 19.9332 26.892 20.0452 26.988C20.2212 27.144 20.3092 27.332 20.3092 27.552L20.2972 29.118C20.2972 29.434 20.3132 29.624 20.3452 29.688C20.3812 29.752 20.4692 29.788 20.6092 29.796H20.6512V30H19.4272V29.796C19.5792 29.788 19.6732 29.758 19.7092 29.706C19.7492 29.65 19.7692 29.526 19.7692 29.334L19.7632 27.864C19.7632 27.748 19.7592 27.662 19.7512 27.606C19.7432 27.55 19.7232 27.494 19.6912 27.438C19.6592 27.378 19.6052 27.338 19.5292 27.318C19.4532 27.298 19.3552 27.288 19.2352 27.288C19.1152 27.288 18.9112 27.364 18.6232 27.516C18.6192 28.036 18.6172 28.57 18.6172 29.118L18.6292 29.502C18.6292 29.55 18.6372 29.59 18.6532 29.622C18.6692 29.65 18.6772 29.674 18.6772 29.694C18.6812 29.71 18.6972 29.724 18.7252 29.736C18.7572 29.748 18.7752 29.756 18.7792 29.76C18.7872 29.764 18.8152 29.77 18.8632 29.778C18.9112 29.786 18.9432 29.792 18.9592 29.796V30H17.7352V29.796C17.8832 29.788 17.9732 29.758 18.0052 29.706C18.0412 29.65 18.0592 29.534 18.0592 29.358ZM23.2791 27.648L23.2551 29.232C23.2551 29.332 23.2991 29.454 23.3871 29.598C23.4791 29.738 23.5251 29.82 23.5251 29.844C23.5251 29.864 23.5071 29.88 23.4711 29.892C23.1911 29.984 23.0331 30.03 22.9971 30.03C22.9651 30.03 22.9311 30.002 22.8951 29.946C22.8631 29.886 22.8331 29.814 22.8051 29.73C22.7771 29.646 22.7611 29.602 22.7571 29.598C22.6971 29.638 22.6231 29.688 22.5351 29.748C22.4471 29.808 22.3851 29.85 22.3491 29.874C22.3171 29.894 22.2691 29.92 22.2051 29.952C22.1451 29.984 22.0911 30.006 22.0431 30.018C21.9311 30.046 21.7791 30.06 21.5871 30.06C21.3991 30.06 21.2591 29.984 21.1671 29.832C21.0751 29.68 21.0291 29.514 21.0291 29.334C21.0291 29.154 21.0431 29.01 21.0711 28.902C21.0991 28.794 21.1451 28.704 21.2091 28.632C21.2731 28.56 21.3371 28.5 21.4011 28.452C21.4651 28.404 21.5551 28.364 21.6711 28.332C21.7911 28.296 21.8931 28.27 21.9771 28.254C22.0651 28.234 22.1871 28.21 22.3431 28.182C22.4991 28.15 22.6251 28.124 22.7211 28.104L22.7271 27.744C22.7271 27.56 22.6611 27.428 22.5291 27.348C22.3971 27.268 22.2371 27.228 22.0491 27.228C21.8651 27.228 21.7371 27.276 21.6651 27.372C21.5931 27.464 21.5151 27.664 21.4311 27.972L21.1851 27.948C21.1851 27.6 21.2451 27.356 21.3651 27.216C21.5091 27.048 21.6651 26.944 21.8331 26.904C22.0011 26.864 22.1711 26.844 22.3431 26.844C22.5191 26.844 22.6691 26.864 22.7931 26.904C22.9171 26.944 23.0091 26.99 23.0691 27.042C23.1331 27.09 23.1811 27.158 23.2131 27.246C23.2491 27.33 23.2691 27.398 23.2731 27.45C23.2771 27.502 23.2791 27.568 23.2791 27.648ZM21.5691 29.214C21.5691 29.51 21.7031 29.658 21.9711 29.658C22.2071 29.658 22.4451 29.558 22.6851 29.358C22.7131 29.334 22.7271 29.188 22.7271 28.92C22.7271 28.652 22.7251 28.458 22.7211 28.338C22.6491 28.362 22.5571 28.392 22.4451 28.428C22.3371 28.464 22.2591 28.49 22.2111 28.506C22.1671 28.522 22.1071 28.544 22.0311 28.572C21.9551 28.596 21.9031 28.616 21.8751 28.632C21.8511 28.648 21.8151 28.668 21.7671 28.692C21.7231 28.716 21.6951 28.74 21.6831 28.764C21.6711 28.784 21.6531 28.81 21.6291 28.842C21.6051 28.87 21.5911 28.904 21.5871 28.944C21.5751 29.056 21.5691 29.146 21.5691 29.214ZM24.5243 26.37C24.4603 26.37 24.3883 26.322 24.3083 26.226C24.2283 26.126 24.1883 26.054 24.1883 26.01C24.1883 25.962 24.2203 25.878 24.2843 25.758C24.3523 25.638 24.4223 25.578 24.4943 25.578C24.5663 25.578 24.6463 25.616 24.7343 25.692C24.8223 25.764 24.8663 25.848 24.8663 25.944C24.8663 26.04 24.8243 26.136 24.7403 26.232C24.6603 26.324 24.5883 26.37 24.5243 26.37ZM23.8343 30V29.796C24.0383 29.78 24.1663 29.754 24.2183 29.718C24.2703 29.678 24.2963 29.598 24.2963 29.478V28.23C24.2963 27.882 24.2863 27.64 24.2663 27.504C24.2503 27.368 24.2223 27.282 24.1823 27.246C24.1423 27.206 24.0663 27.186 23.9543 27.186H23.8643L23.8523 26.988C24.1483 26.96 24.3683 26.93 24.5123 26.898C24.6603 26.862 24.7403 26.844 24.7523 26.844C24.8203 26.844 24.8543 26.876 24.8543 26.94C24.8543 26.988 24.8523 27.12 24.8483 27.336C24.8323 28.192 24.8243 28.93 24.8243 29.55C24.8243 29.63 24.8563 29.69 24.9203 29.73C24.9843 29.766 25.0863 29.788 25.2263 29.796V30H23.8343ZM25.5037 30V29.796C25.5357 29.792 25.5777 29.786 25.6297 29.778C25.6817 29.766 25.7157 29.76 25.7317 29.76C25.7477 29.756 25.7717 29.748 25.8037 29.736C25.8397 29.724 25.8617 29.714 25.8697 29.706C25.8777 29.698 25.8917 29.682 25.9117 29.658C25.9317 29.634 25.9417 29.61 25.9417 29.586C25.9457 29.562 25.9517 29.53 25.9597 29.49C25.9677 29.446 25.9717 29.4 25.9717 29.352V28.062C25.9717 27.65 25.9657 26.992 25.9537 26.088L25.9477 25.8C25.9437 25.7 25.9197 25.636 25.8757 25.608C25.8317 25.58 25.7437 25.566 25.6117 25.566H25.5337L25.5217 25.368C25.8177 25.332 26.0377 25.298 26.1817 25.266C26.3257 25.23 26.4057 25.212 26.4217 25.212C26.4897 25.212 26.5237 25.242 26.5237 25.302C26.5317 25.63 26.5357 26.04 26.5357 26.532C26.5357 27.024 26.5257 27.55 26.5057 28.11C26.4857 28.666 26.4757 29.106 26.4757 29.43C26.4757 29.582 26.4977 29.676 26.5417 29.712C26.5897 29.744 26.7157 29.772 26.9197 29.796V30H25.5037Z" fill="#12B76A"/>
</svg>
