<svg width="40" height="40" viewBox="0 0 40 40" fill="none" xmlns="http://www.w3.org/2000/svg">
<rect x="0.5" y="0.5" width="39" height="39" fill="white" stroke="#12B76A"/>
<path d="M9.22402 27.78L9.21202 29.502C9.21202 29.626 9.29602 29.708 9.46402 29.748C9.53202 29.76 9.62802 29.77 9.75202 29.778V30H8.09002V29.778C8.21002 29.77 8.30202 29.76 8.36602 29.748C8.43402 29.736 8.49402 29.71 8.54602 29.67C8.60202 29.63 8.63002 29.574 8.63002 29.502C8.63002 28.118 8.61602 26.962 8.58802 26.034C8.58402 25.946 8.55202 25.888 8.49202 25.86C8.43602 25.828 8.33002 25.808 8.17402 25.8L8.09002 25.794V25.572H9.75202V25.794L9.66802 25.8C9.51202 25.808 9.40402 25.828 9.34402 25.86C9.28802 25.888 9.25802 25.946 9.25402 26.034C9.24202 26.742 9.23402 27.238 9.23002 27.522H11.696C11.692 27.038 11.682 26.542 11.666 26.034C11.662 25.946 11.63 25.888 11.57 25.86C11.514 25.828 11.408 25.808 11.252 25.8L11.168 25.794V25.572H12.83V25.794L12.746 25.8C12.59 25.808 12.482 25.828 12.422 25.86C12.366 25.888 12.336 25.946 12.332 26.034C12.304 26.834 12.29 27.99 12.29 29.502C12.29 29.626 12.376 29.708 12.548 29.748C12.612 29.76 12.706 29.77 12.83 29.778V30H11.168V29.778C11.288 29.77 11.38 29.76 11.444 29.748C11.512 29.736 11.572 29.71 11.624 29.67C11.68 29.63 11.708 29.574 11.708 29.502C11.708 28.95 11.704 28.376 11.696 27.78H9.22402ZM13.3198 27.606C13.3838 27.458 13.5378 27.298 13.7818 27.126C14.0258 26.95 14.2458 26.862 14.4418 26.862C14.6418 26.862 14.8118 26.884 14.9518 26.928C15.0918 26.972 15.2018 27.038 15.2818 27.126C15.3618 27.21 15.4258 27.294 15.4738 27.378C15.5258 27.458 15.5598 27.56 15.5758 27.684C15.6078 27.884 15.6238 28.036 15.6238 28.14V28.314C15.4958 28.394 15.2858 28.434 14.9938 28.434H13.7638C13.7638 28.862 13.7958 29.136 13.8598 29.256C13.9558 29.432 14.0758 29.542 14.2198 29.586C14.3118 29.614 14.4198 29.628 14.5438 29.628C14.8918 29.628 15.2098 29.486 15.4978 29.202L15.6298 29.34C15.6138 29.356 15.5758 29.396 15.5158 29.46C15.4558 29.52 15.4158 29.56 15.3958 29.58C15.3758 29.6 15.3378 29.638 15.2818 29.694C15.2258 29.746 15.1818 29.782 15.1498 29.802C15.1218 29.822 15.0798 29.852 15.0238 29.892C14.9718 29.932 14.9258 29.96 14.8858 29.976C14.8498 29.992 14.8038 30.012 14.7478 30.036C14.6558 30.072 14.5478 30.09 14.4238 30.09C14.1838 30.09 13.9778 30.044 13.8058 29.952C13.6378 29.856 13.5118 29.728 13.4278 29.568C13.2678 29.276 13.1878 28.928 13.1878 28.524C13.1878 28.12 13.2318 27.814 13.3198 27.606ZM13.7758 28.164H14.1178C14.6498 28.164 14.9658 28.128 15.0658 28.056C15.0658 27.884 15.0378 27.736 14.9818 27.612C14.8778 27.372 14.6938 27.252 14.4298 27.252C14.1658 27.252 13.9898 27.32 13.9018 27.456C13.8178 27.588 13.7758 27.824 13.7758 28.164ZM18.2986 27.648L18.2746 29.232C18.2746 29.332 18.3186 29.454 18.4066 29.598C18.4986 29.738 18.5446 29.82 18.5446 29.844C18.5446 29.864 18.5266 29.88 18.4906 29.892C18.2106 29.984 18.0526 30.03 18.0166 30.03C17.9846 30.03 17.9506 30.002 17.9146 29.946C17.8826 29.886 17.8526 29.814 17.8246 29.73C17.7966 29.646 17.7806 29.602 17.7766 29.598C17.7166 29.638 17.6426 29.688 17.5546 29.748C17.4666 29.808 17.4046 29.85 17.3686 29.874C17.3366 29.894 17.2886 29.92 17.2246 29.952C17.1646 29.984 17.1106 30.006 17.0626 30.018C16.9506 30.046 16.7986 30.06 16.6066 30.06C16.4186 30.06 16.2786 29.984 16.1866 29.832C16.0946 29.68 16.0486 29.514 16.0486 29.334C16.0486 29.154 16.0626 29.01 16.0906 28.902C16.1186 28.794 16.1646 28.704 16.2286 28.632C16.2926 28.56 16.3566 28.5 16.4206 28.452C16.4846 28.404 16.5746 28.364 16.6906 28.332C16.8106 28.296 16.9126 28.27 16.9966 28.254C17.0846 28.234 17.2066 28.21 17.3626 28.182C17.5186 28.15 17.6446 28.124 17.7406 28.104L17.7466 27.744C17.7466 27.56 17.6806 27.428 17.5486 27.348C17.4166 27.268 17.2566 27.228 17.0686 27.228C16.8846 27.228 16.7566 27.276 16.6846 27.372C16.6126 27.464 16.5346 27.664 16.4506 27.972L16.2046 27.948C16.2046 27.6 16.2646 27.356 16.3846 27.216C16.5286 27.048 16.6846 26.944 16.8526 26.904C17.0206 26.864 17.1906 26.844 17.3626 26.844C17.5386 26.844 17.6886 26.864 17.8126 26.904C17.9366 26.944 18.0286 26.99 18.0886 27.042C18.1526 27.09 18.2006 27.158 18.2326 27.246C18.2686 27.33 18.2886 27.398 18.2926 27.45C18.2966 27.502 18.2986 27.568 18.2986 27.648ZM16.5886 29.214C16.5886 29.51 16.7226 29.658 16.9906 29.658C17.2266 29.658 17.4646 29.558 17.7046 29.358C17.7326 29.334 17.7466 29.188 17.7466 28.92C17.7466 28.652 17.7446 28.458 17.7406 28.338C17.6686 28.362 17.5766 28.392 17.4646 28.428C17.3566 28.464 17.2786 28.49 17.2306 28.506C17.1866 28.522 17.1266 28.544 17.0506 28.572C16.9746 28.596 16.9226 28.616 16.8946 28.632C16.8706 28.648 16.8346 28.668 16.7866 28.692C16.7426 28.716 16.7146 28.74 16.7026 28.764C16.6906 28.784 16.6726 28.81 16.6486 28.842C16.6246 28.87 16.6106 28.904 16.6066 28.944C16.5946 29.056 16.5886 29.146 16.5886 29.214ZM20.8158 26.916L20.8038 26.016C20.8038 25.888 20.8018 25.8 20.7978 25.752C20.7978 25.7 20.7778 25.656 20.7378 25.62C20.7018 25.584 20.6638 25.566 20.6238 25.566C20.5878 25.562 20.5078 25.558 20.3838 25.554L20.3718 25.356C20.6758 25.328 20.8998 25.298 21.0438 25.266C21.1878 25.23 21.2658 25.212 21.2778 25.212C21.3458 25.212 21.3798 25.244 21.3798 25.308C21.3798 26.168 21.3718 26.994 21.3558 27.786C21.3438 28.574 21.3378 29.038 21.3378 29.178C21.3378 29.314 21.3878 29.458 21.4878 29.61C21.5918 29.762 21.6438 29.842 21.6438 29.85C21.6438 29.858 21.6258 29.87 21.5898 29.886C21.5578 29.898 21.5158 29.912 21.4638 29.928C21.4118 29.944 21.3438 29.97 21.2598 30.006C21.1798 30.042 21.1238 30.06 21.0918 30.06C21.0598 30.06 21.0278 30.028 20.9958 29.964C20.9638 29.896 20.9318 29.822 20.8998 29.742C20.8718 29.662 20.8478 29.612 20.8278 29.592C20.5278 29.924 20.2618 30.09 20.0298 30.09C19.8298 30.09 19.5978 29.98 19.3338 29.76C19.1978 29.652 19.0838 29.492 18.9918 29.28C18.8998 29.068 18.8538 28.838 18.8538 28.59C18.8538 28.342 18.8658 28.136 18.8898 27.972C18.9138 27.808 18.9398 27.682 18.9678 27.594C18.9958 27.502 19.0378 27.42 19.0938 27.348C19.1538 27.276 19.1978 27.228 19.2258 27.204C19.2578 27.18 19.3078 27.148 19.3758 27.108L19.5798 26.988C19.7518 26.884 19.9398 26.832 20.1438 26.832C20.3518 26.832 20.5758 26.86 20.8158 26.916ZM19.3818 28.254C19.3818 28.714 19.4598 29.05 19.6158 29.262C19.7758 29.47 19.9698 29.574 20.1978 29.574C20.4258 29.574 20.6338 29.484 20.8218 29.304C20.8218 28.604 20.8178 28.108 20.8098 27.816C20.8058 27.52 20.8038 27.364 20.8038 27.348C20.6158 27.236 20.3798 27.18 20.0958 27.18C19.9758 27.18 19.8778 27.192 19.8018 27.216C19.7298 27.236 19.6578 27.284 19.5858 27.36C19.4498 27.496 19.3818 27.794 19.3818 28.254ZM22.7079 26.37C22.6439 26.37 22.5719 26.322 22.4919 26.226C22.4119 26.126 22.3719 26.054 22.3719 26.01C22.3719 25.962 22.4039 25.878 22.4679 25.758C22.5359 25.638 22.6059 25.578 22.6779 25.578C22.7499 25.578 22.8299 25.616 22.9179 25.692C23.0059 25.764 23.0499 25.848 23.0499 25.944C23.0499 26.04 23.0079 26.136 22.9239 26.232C22.8439 26.324 22.7719 26.37 22.7079 26.37ZM22.0179 30V29.796C22.2219 29.78 22.3499 29.754 22.4019 29.718C22.4539 29.678 22.4799 29.598 22.4799 29.478V28.23C22.4799 27.882 22.4699 27.64 22.4499 27.504C22.4339 27.368 22.4059 27.282 22.3659 27.246C22.3259 27.206 22.2499 27.186 22.1379 27.186H22.0479L22.0359 26.988C22.3319 26.96 22.5519 26.93 22.6959 26.898C22.8439 26.862 22.9239 26.844 22.9359 26.844C23.0039 26.844 23.0379 26.876 23.0379 26.94C23.0379 26.988 23.0359 27.12 23.0319 27.336C23.0159 28.192 23.0079 28.93 23.0079 29.55C23.0079 29.63 23.0399 29.69 23.1039 29.73C23.1679 29.766 23.2699 29.788 23.4099 29.796V30H22.0179ZM23.7233 27.042C23.8873 27.026 24.0513 26.988 24.2153 26.928C24.3833 26.868 24.4913 26.838 24.5393 26.838C24.5913 26.838 24.6273 26.862 24.6473 26.91C24.6673 26.954 24.6773 27.036 24.6773 27.156V27.24C25.1373 26.98 25.4973 26.85 25.7573 26.85C26.0213 26.85 26.2033 26.922 26.3033 27.066C26.4033 27.206 26.4533 27.368 26.4533 27.552V29.556C26.4533 29.644 26.4713 29.704 26.5073 29.736C26.5473 29.768 26.6353 29.788 26.7713 29.796V30H25.5473V29.796C25.6993 29.784 25.7933 29.76 25.8293 29.724C25.8693 29.688 25.8893 29.624 25.8893 29.532V27.63C25.8893 27.53 25.8573 27.454 25.7933 27.402C25.7333 27.346 25.6693 27.314 25.6013 27.306C25.5373 27.294 25.4613 27.288 25.3733 27.288C25.2893 27.288 25.1753 27.312 25.0312 27.36C24.8873 27.404 24.7753 27.454 24.6953 27.51C24.6913 27.746 24.6853 27.992 24.6773 28.248C24.6613 28.768 24.6533 29.128 24.6533 29.328C24.6533 29.524 24.6733 29.65 24.7133 29.706C24.7533 29.758 24.8513 29.788 25.0073 29.796V30H23.7473V29.796C23.8673 29.78 23.9513 29.758 23.9993 29.73C24.0513 29.698 24.0833 29.652 24.0953 29.592C24.1113 29.488 24.1193 29.368 24.1193 29.232C24.1193 29.092 24.1133 28.768 24.1013 28.26C24.0893 27.748 24.0813 27.484 24.0773 27.468C24.0733 27.448 24.0673 27.43 24.0593 27.414C24.0553 27.394 24.0473 27.378 24.0353 27.366C24.0273 27.354 24.0193 27.344 24.0113 27.336C24.0073 27.328 23.9973 27.32 23.9813 27.312C23.9653 27.304 23.9533 27.3 23.9453 27.3C23.9373 27.296 23.9213 27.292 23.8973 27.288C23.8773 27.284 23.8633 27.28 23.8553 27.276C23.8313 27.272 23.7933 27.27 23.7413 27.27L23.7233 27.042ZM26.9721 30.498C26.9721 30.266 27.0881 30.072 27.3201 29.916C27.4321 29.84 27.5721 29.766 27.7401 29.694C27.4241 29.65 27.2661 29.542 27.2661 29.37C27.2661 29.19 27.4441 29.046 27.8001 28.938C27.5961 28.846 27.4501 28.75 27.3621 28.65C27.2741 28.546 27.2121 28.398 27.1761 28.206C27.1721 28.19 27.1701 28.152 27.1701 28.092C27.1701 27.876 27.2021 27.7 27.2661 27.564C27.3301 27.424 27.4821 27.272 27.7221 27.108C27.9621 26.94 28.2101 26.856 28.4661 26.856C28.7261 26.856 28.9521 26.936 29.1441 27.096C29.3401 27.088 29.5341 27.062 29.7261 27.018L29.7621 27.054V27.306H29.2881C29.3201 27.35 29.3481 27.438 29.3721 27.57C29.3961 27.702 29.4081 27.836 29.4081 27.972C29.4081 28.248 29.2921 28.492 29.0601 28.704C28.8521 28.824 28.6001 28.916 28.3041 28.98C27.9761 29.064 27.8121 29.178 27.8121 29.322C27.8121 29.378 27.8361 29.426 27.8841 29.466C27.9321 29.506 27.9941 29.526 28.0701 29.526H28.7841C29.0481 29.526 29.2301 29.546 29.3301 29.586C29.4301 29.626 29.5261 29.706 29.6181 29.826C29.7141 29.946 29.7621 30.068 29.7621 30.192C29.7621 30.32 29.7341 30.438 29.6781 30.546C29.6221 30.658 29.5361 30.766 29.4201 30.87C29.3081 30.974 29.1461 31.058 28.9341 31.122C28.7221 31.19 28.5141 31.224 28.3101 31.224C28.1061 31.224 27.9381 31.212 27.8061 31.188C27.6781 31.168 27.5481 31.132 27.4161 31.08C27.2841 31.032 27.1761 30.956 27.0921 30.852C27.0121 30.752 26.9721 30.634 26.9721 30.498ZM27.4881 30.324C27.4881 30.508 27.5761 30.664 27.7521 30.792C27.9281 30.924 28.1121 30.99 28.3041 30.99C28.6001 30.99 28.8201 30.924 28.9641 30.792C29.1121 30.66 29.1861 30.488 29.1861 30.276C29.1861 29.972 28.9521 29.82 28.4841 29.82C27.8201 29.82 27.4881 29.988 27.4881 30.324ZM27.7221 28.056C27.7221 28.24 27.7741 28.39 27.8781 28.506C27.9821 28.622 28.1321 28.68 28.3281 28.68C28.5241 28.68 28.6581 28.628 28.7301 28.524C28.8021 28.42 28.8381 28.232 28.8381 27.96C28.8381 27.684 28.7981 27.5 28.7181 27.408C28.6381 27.316 28.4821 27.256 28.2501 27.228C28.2301 27.224 28.2021 27.222 28.1661 27.222C28.0181 27.222 27.9061 27.284 27.8301 27.408C27.7581 27.528 27.7221 27.744 27.7221 28.056ZM31.3332 30.942L31.3632 30.894C31.4432 30.906 31.5192 30.912 31.5912 30.912C31.9792 30.912 32.3192 30.798 32.6112 30.57C32.9072 30.342 33.0552 30.08 33.0552 29.784C33.0552 29.376 32.9652 29.12 32.7852 29.016C32.6852 28.964 32.5892 28.932 32.4972 28.92C32.4052 28.904 32.2772 28.896 32.1132 28.896H31.7772L31.6512 28.788C31.8192 27.74 31.9112 27.152 31.9272 27.024L32.0112 26.94C32.1152 26.948 32.2952 26.952 32.5512 26.952C32.8072 26.952 33.1372 26.944 33.5412 26.928L33.6132 26.994C33.5892 27.11 33.5772 27.266 33.5772 27.462C32.9612 27.454 32.6292 27.45 32.5812 27.45C32.5372 27.45 32.3952 27.454 32.1552 27.462C32.0832 27.786 32.0392 28.096 32.0232 28.392C32.1392 28.38 32.2852 28.374 32.4612 28.374C32.7772 28.374 33.0552 28.466 33.2952 28.65C33.5352 28.83 33.6552 29.096 33.6552 29.448C33.6552 29.992 33.4472 30.422 33.0312 30.738C32.6152 31.058 32.0952 31.218 31.4712 31.218L31.3332 30.942Z" fill="#12B76A"/>
<path d="M7.41657 16.789L7.59857 15.879L13.5786 13.214L13.7346 13.357L13.5786 14.15L8.58657 16.373L13.5786 18.596L13.7346 19.389L13.5786 19.532L7.41657 16.789ZM14.9497 19.012L14.9627 12.928C14.9627 11.6713 14.9193 10.9347 14.8327 10.718C14.746 10.4927 14.473 10.38 14.0137 10.38L13.9877 9.951C14.629 9.89033 15.1057 9.82533 15.4177 9.756C15.7383 9.678 15.9117 9.639 15.9377 9.639C16.085 9.639 16.1587 9.704 16.1587 9.834L16.1457 10.679L16.1327 14.033C17.138 13.4697 17.9527 13.188 18.5767 13.188C19.2093 13.188 19.621 13.396 19.8117 13.812C20.0023 14.2193 20.0977 14.891 20.0977 15.827L20.0587 18.583C20.0587 18.999 20.089 19.259 20.1497 19.363C20.219 19.4583 20.4097 19.5233 20.7217 19.558V20H18.2517V19.558C18.5637 19.4887 18.75 19.3933 18.8107 19.272C18.8713 19.1507 18.9017 18.8257 18.9017 18.297V15.97C18.9017 15.19 18.841 14.6917 18.7197 14.475C18.607 14.2497 18.334 14.137 17.9007 14.137C17.6407 14.137 17.3243 14.1933 16.9517 14.306C16.5877 14.4187 16.3147 14.5357 16.1327 14.657C16.1067 15.6623 16.0937 16.919 16.0937 18.427C16.0937 18.9123 16.1283 19.22 16.1977 19.35C16.2757 19.4713 16.488 19.5407 16.8347 19.558V20H14.1827V19.558C14.4687 19.5407 14.668 19.4887 14.7807 19.402C14.8933 19.3153 14.9497 19.1853 14.9497 19.012ZM21.3382 22.041L21.4032 21.937C21.5766 21.963 21.7412 21.976 21.8972 21.976C22.7379 21.976 23.4746 21.729 24.1072 21.235C24.7486 20.741 25.0692 20.1733 25.0692 19.532C25.0692 18.648 24.8742 18.0933 24.4842 17.868C24.2676 17.7553 24.0596 17.686 23.8602 17.66C23.6609 17.6253 23.3836 17.608 23.0282 17.608H22.3002L22.0272 17.374C22.3912 15.1033 22.5906 13.8293 22.6252 13.552L22.8072 13.37C23.0326 13.3873 23.4226 13.396 23.9772 13.396C24.5319 13.396 25.2469 13.3787 26.1222 13.344L26.2782 13.487C26.2262 13.7383 26.2002 14.0763 26.2002 14.501C24.8656 14.4837 24.1462 14.475 24.0422 14.475C23.9469 14.475 23.6392 14.4837 23.1192 14.501C22.9632 15.203 22.8679 15.8747 22.8332 16.516C23.0846 16.49 23.4009 16.477 23.7822 16.477C24.4669 16.477 25.0692 16.6763 25.5892 17.075C26.1092 17.465 26.3692 18.0413 26.3692 18.804C26.3692 19.9827 25.9186 20.9143 25.0172 21.599C24.1159 22.2923 22.9892 22.639 21.6372 22.639L21.3382 22.041ZM27.2593 19.389L27.4153 18.596L32.4073 16.373L27.4153 14.15L27.2593 13.357L27.4153 13.214L33.5773 15.957L33.3953 16.867L27.4153 19.532L27.2593 19.389Z" fill="#12B76A"/>
</svg>
