<svg width="40" height="40" viewBox="0 0 40 40" fill="none" xmlns="http://www.w3.org/2000/svg">
<rect x="0.5" y="0.5" width="39" height="39" fill="white" stroke="#12B76A"/>
<path d="M8.72402 27.78L8.71202 29.502C8.71202 29.626 8.79602 29.708 8.96402 29.748C9.03202 29.76 9.12802 29.77 9.25202 29.778V30H7.59002V29.778C7.71002 29.77 7.80202 29.76 7.86602 29.748C7.93402 29.736 7.99402 29.71 8.04602 29.67C8.10202 29.63 8.13002 29.574 8.13002 29.502C8.13002 28.118 8.11602 26.962 8.08802 26.034C8.08402 25.946 8.05202 25.888 7.99202 25.86C7.93602 25.828 7.83002 25.808 7.67402 25.8L7.59002 25.794V25.572H9.25202V25.794L9.16802 25.8C9.01202 25.808 8.90402 25.828 8.84402 25.86C8.78802 25.888 8.75802 25.946 8.75402 26.034C8.74202 26.742 8.73402 27.238 8.73002 27.522H11.196C11.192 27.038 11.182 26.542 11.166 26.034C11.162 25.946 11.13 25.888 11.07 25.86C11.014 25.828 10.908 25.808 10.752 25.8L10.668 25.794V25.572H12.33V25.794L12.246 25.8C12.09 25.808 11.982 25.828 11.922 25.86C11.866 25.888 11.836 25.946 11.832 26.034C11.804 26.834 11.79 27.99 11.79 29.502C11.79 29.626 11.876 29.708 12.048 29.748C12.112 29.76 12.206 29.77 12.33 29.778V30H10.668V29.778C10.788 29.77 10.88 29.76 10.944 29.748C11.012 29.736 11.072 29.71 11.124 29.67C11.18 29.63 11.208 29.574 11.208 29.502C11.208 28.95 11.204 28.376 11.196 27.78H8.72402ZM12.8198 27.606C12.8838 27.458 13.0378 27.298 13.2818 27.126C13.5258 26.95 13.7458 26.862 13.9418 26.862C14.1418 26.862 14.3118 26.884 14.4518 26.928C14.5918 26.972 14.7018 27.038 14.7818 27.126C14.8618 27.21 14.9258 27.294 14.9738 27.378C15.0258 27.458 15.0598 27.56 15.0758 27.684C15.1078 27.884 15.1238 28.036 15.1238 28.14V28.314C14.9958 28.394 14.7858 28.434 14.4938 28.434H13.2638C13.2638 28.862 13.2958 29.136 13.3598 29.256C13.4558 29.432 13.5758 29.542 13.7198 29.586C13.8118 29.614 13.9198 29.628 14.0438 29.628C14.3918 29.628 14.7098 29.486 14.9978 29.202L15.1298 29.34C15.1138 29.356 15.0758 29.396 15.0158 29.46C14.9558 29.52 14.9158 29.56 14.8958 29.58C14.8758 29.6 14.8378 29.638 14.7818 29.694C14.7258 29.746 14.6818 29.782 14.6498 29.802C14.6218 29.822 14.5798 29.852 14.5238 29.892C14.4718 29.932 14.4258 29.96 14.3858 29.976C14.3498 29.992 14.3038 30.012 14.2478 30.036C14.1558 30.072 14.0478 30.09 13.9238 30.09C13.6838 30.09 13.4778 30.044 13.3058 29.952C13.1378 29.856 13.0118 29.728 12.9278 29.568C12.7678 29.276 12.6878 28.928 12.6878 28.524C12.6878 28.12 12.7318 27.814 12.8198 27.606ZM13.2758 28.164H13.6178C14.1498 28.164 14.4658 28.128 14.5658 28.056C14.5658 27.884 14.5378 27.736 14.4818 27.612C14.3778 27.372 14.1938 27.252 13.9298 27.252C13.6658 27.252 13.4898 27.32 13.4018 27.456C13.3178 27.588 13.2758 27.824 13.2758 28.164ZM17.7986 27.648L17.7746 29.232C17.7746 29.332 17.8186 29.454 17.9066 29.598C17.9986 29.738 18.0446 29.82 18.0446 29.844C18.0446 29.864 18.0266 29.88 17.9906 29.892C17.7106 29.984 17.5526 30.03 17.5166 30.03C17.4846 30.03 17.4506 30.002 17.4146 29.946C17.3826 29.886 17.3526 29.814 17.3246 29.73C17.2966 29.646 17.2806 29.602 17.2766 29.598C17.2166 29.638 17.1426 29.688 17.0546 29.748C16.9666 29.808 16.9046 29.85 16.8686 29.874C16.8366 29.894 16.7886 29.92 16.7246 29.952C16.6646 29.984 16.6106 30.006 16.5626 30.018C16.4506 30.046 16.2986 30.06 16.1066 30.06C15.9186 30.06 15.7786 29.984 15.6866 29.832C15.5946 29.68 15.5486 29.514 15.5486 29.334C15.5486 29.154 15.5626 29.01 15.5906 28.902C15.6186 28.794 15.6646 28.704 15.7286 28.632C15.7926 28.56 15.8566 28.5 15.9206 28.452C15.9846 28.404 16.0746 28.364 16.1906 28.332C16.3106 28.296 16.4126 28.27 16.4966 28.254C16.5846 28.234 16.7066 28.21 16.8626 28.182C17.0186 28.15 17.1446 28.124 17.2406 28.104L17.2466 27.744C17.2466 27.56 17.1806 27.428 17.0486 27.348C16.9166 27.268 16.7566 27.228 16.5686 27.228C16.3846 27.228 16.2566 27.276 16.1846 27.372C16.1126 27.464 16.0346 27.664 15.9506 27.972L15.7046 27.948C15.7046 27.6 15.7646 27.356 15.8846 27.216C16.0286 27.048 16.1846 26.944 16.3526 26.904C16.5206 26.864 16.6906 26.844 16.8626 26.844C17.0386 26.844 17.1886 26.864 17.3126 26.904C17.4366 26.944 17.5286 26.99 17.5886 27.042C17.6526 27.09 17.7006 27.158 17.7326 27.246C17.7686 27.33 17.7886 27.398 17.7926 27.45C17.7966 27.502 17.7986 27.568 17.7986 27.648ZM16.0886 29.214C16.0886 29.51 16.2226 29.658 16.4906 29.658C16.7266 29.658 16.9646 29.558 17.2046 29.358C17.2326 29.334 17.2466 29.188 17.2466 28.92C17.2466 28.652 17.2446 28.458 17.2406 28.338C17.1686 28.362 17.0766 28.392 16.9646 28.428C16.8566 28.464 16.7786 28.49 16.7306 28.506C16.6866 28.522 16.6266 28.544 16.5506 28.572C16.4746 28.596 16.4226 28.616 16.3946 28.632C16.3706 28.648 16.3346 28.668 16.2866 28.692C16.2426 28.716 16.2146 28.74 16.2026 28.764C16.1906 28.784 16.1726 28.81 16.1486 28.842C16.1246 28.87 16.1106 28.904 16.1066 28.944C16.0946 29.056 16.0886 29.146 16.0886 29.214ZM20.3158 26.916L20.3038 26.016C20.3038 25.888 20.3018 25.8 20.2978 25.752C20.2978 25.7 20.2778 25.656 20.2378 25.62C20.2018 25.584 20.1638 25.566 20.1238 25.566C20.0878 25.562 20.0078 25.558 19.8838 25.554L19.8718 25.356C20.1758 25.328 20.3998 25.298 20.5438 25.266C20.6878 25.23 20.7658 25.212 20.7778 25.212C20.8458 25.212 20.8798 25.244 20.8798 25.308C20.8798 26.168 20.8718 26.994 20.8558 27.786C20.8438 28.574 20.8378 29.038 20.8378 29.178C20.8378 29.314 20.8878 29.458 20.9878 29.61C21.0918 29.762 21.1438 29.842 21.1438 29.85C21.1438 29.858 21.1258 29.87 21.0898 29.886C21.0578 29.898 21.0158 29.912 20.9638 29.928C20.9118 29.944 20.8438 29.97 20.7598 30.006C20.6798 30.042 20.6238 30.06 20.5918 30.06C20.5598 30.06 20.5278 30.028 20.4958 29.964C20.4638 29.896 20.4318 29.822 20.3998 29.742C20.3718 29.662 20.3478 29.612 20.3278 29.592C20.0278 29.924 19.7618 30.09 19.5298 30.09C19.3298 30.09 19.0978 29.98 18.8338 29.76C18.6978 29.652 18.5838 29.492 18.4918 29.28C18.3998 29.068 18.3538 28.838 18.3538 28.59C18.3538 28.342 18.3658 28.136 18.3898 27.972C18.4138 27.808 18.4398 27.682 18.4678 27.594C18.4958 27.502 18.5378 27.42 18.5938 27.348C18.6538 27.276 18.6978 27.228 18.7258 27.204C18.7578 27.18 18.8078 27.148 18.8758 27.108L19.0798 26.988C19.2518 26.884 19.4398 26.832 19.6438 26.832C19.8518 26.832 20.0758 26.86 20.3158 26.916ZM18.8818 28.254C18.8818 28.714 18.9598 29.05 19.1158 29.262C19.2758 29.47 19.4698 29.574 19.6978 29.574C19.9258 29.574 20.1338 29.484 20.3218 29.304C20.3218 28.604 20.3178 28.108 20.3098 27.816C20.3058 27.52 20.3038 27.364 20.3038 27.348C20.1158 27.236 19.8798 27.18 19.5958 27.18C19.4758 27.18 19.3778 27.192 19.3018 27.216C19.2298 27.236 19.1578 27.284 19.0858 27.36C18.9498 27.496 18.8818 27.794 18.8818 28.254ZM22.2079 26.37C22.1439 26.37 22.0719 26.322 21.9919 26.226C21.9119 26.126 21.8719 26.054 21.8719 26.01C21.8719 25.962 21.9039 25.878 21.9679 25.758C22.0359 25.638 22.1059 25.578 22.1779 25.578C22.2499 25.578 22.3299 25.616 22.4179 25.692C22.5059 25.764 22.5499 25.848 22.5499 25.944C22.5499 26.04 22.5079 26.136 22.4239 26.232C22.3439 26.324 22.2719 26.37 22.2079 26.37ZM21.5179 30V29.796C21.7219 29.78 21.8499 29.754 21.9019 29.718C21.9539 29.678 21.9799 29.598 21.9799 29.478V28.23C21.9799 27.882 21.9699 27.64 21.9499 27.504C21.9339 27.368 21.9059 27.282 21.8659 27.246C21.8259 27.206 21.7499 27.186 21.6379 27.186H21.5479L21.5359 26.988C21.8319 26.96 22.0519 26.93 22.1959 26.898C22.3439 26.862 22.4239 26.844 22.4359 26.844C22.5039 26.844 22.5379 26.876 22.5379 26.94C22.5379 26.988 22.5359 27.12 22.5319 27.336C22.5159 28.192 22.5079 28.93 22.5079 29.55C22.5079 29.63 22.5399 29.69 22.6039 29.73C22.6679 29.766 22.7699 29.788 22.9099 29.796V30H21.5179ZM23.2233 27.042C23.3873 27.026 23.5513 26.988 23.7153 26.928C23.8833 26.868 23.9913 26.838 24.0393 26.838C24.0913 26.838 24.1273 26.862 24.1473 26.91C24.1673 26.954 24.1773 27.036 24.1773 27.156V27.24C24.6373 26.98 24.9973 26.85 25.2573 26.85C25.5213 26.85 25.7033 26.922 25.8033 27.066C25.9033 27.206 25.9533 27.368 25.9533 27.552V29.556C25.9533 29.644 25.9713 29.704 26.0073 29.736C26.0473 29.768 26.1353 29.788 26.2713 29.796V30H25.0473V29.796C25.1993 29.784 25.2933 29.76 25.3293 29.724C25.3693 29.688 25.3893 29.624 25.3893 29.532V27.63C25.3893 27.53 25.3573 27.454 25.2933 27.402C25.2333 27.346 25.1693 27.314 25.1013 27.306C25.0373 27.294 24.9613 27.288 24.8733 27.288C24.7893 27.288 24.6753 27.312 24.5312 27.36C24.3873 27.404 24.2753 27.454 24.1953 27.51C24.1913 27.746 24.1853 27.992 24.1773 28.248C24.1613 28.768 24.1533 29.128 24.1533 29.328C24.1533 29.524 24.1733 29.65 24.2133 29.706C24.2533 29.758 24.3513 29.788 24.5073 29.796V30H23.2473V29.796C23.3673 29.78 23.4513 29.758 23.4993 29.73C23.5513 29.698 23.5833 29.652 23.5953 29.592C23.6113 29.488 23.6193 29.368 23.6193 29.232C23.6193 29.092 23.6133 28.768 23.6013 28.26C23.5893 27.748 23.5813 27.484 23.5773 27.468C23.5733 27.448 23.5673 27.43 23.5593 27.414C23.5553 27.394 23.5473 27.378 23.5353 27.366C23.5273 27.354 23.5193 27.344 23.5113 27.336C23.5073 27.328 23.4973 27.32 23.4813 27.312C23.4653 27.304 23.4533 27.3 23.4453 27.3C23.4373 27.296 23.4213 27.292 23.3973 27.288C23.3773 27.284 23.3633 27.28 23.3553 27.276C23.3313 27.272 23.2933 27.27 23.2413 27.27L23.2233 27.042ZM26.4721 30.498C26.4721 30.266 26.5881 30.072 26.8201 29.916C26.9321 29.84 27.0721 29.766 27.2401 29.694C26.9241 29.65 26.7661 29.542 26.7661 29.37C26.7661 29.19 26.9441 29.046 27.3001 28.938C27.0961 28.846 26.9501 28.75 26.8621 28.65C26.7741 28.546 26.7121 28.398 26.6761 28.206C26.6721 28.19 26.6701 28.152 26.6701 28.092C26.6701 27.876 26.7021 27.7 26.7661 27.564C26.8301 27.424 26.9821 27.272 27.2221 27.108C27.4621 26.94 27.7101 26.856 27.9661 26.856C28.2261 26.856 28.4521 26.936 28.6441 27.096C28.8401 27.088 29.0341 27.062 29.2261 27.018L29.2621 27.054V27.306H28.7881C28.8201 27.35 28.8481 27.438 28.8721 27.57C28.8961 27.702 28.9081 27.836 28.9081 27.972C28.9081 28.248 28.7921 28.492 28.5601 28.704C28.3521 28.824 28.1001 28.916 27.8041 28.98C27.4761 29.064 27.3121 29.178 27.3121 29.322C27.3121 29.378 27.3361 29.426 27.3841 29.466C27.4321 29.506 27.4941 29.526 27.5701 29.526H28.2841C28.5481 29.526 28.7301 29.546 28.8301 29.586C28.9301 29.626 29.0261 29.706 29.1181 29.826C29.2141 29.946 29.2621 30.068 29.2621 30.192C29.2621 30.32 29.2341 30.438 29.1781 30.546C29.1221 30.658 29.0361 30.766 28.9201 30.87C28.8081 30.974 28.6461 31.058 28.4341 31.122C28.2221 31.19 28.0141 31.224 27.8101 31.224C27.6061 31.224 27.4381 31.212 27.3061 31.188C27.1781 31.168 27.0481 31.132 26.9161 31.08C26.7841 31.032 26.6761 30.956 26.5921 30.852C26.5121 30.752 26.4721 30.634 26.4721 30.498ZM26.9881 30.324C26.9881 30.508 27.0761 30.664 27.2521 30.792C27.4281 30.924 27.6121 30.99 27.8041 30.99C28.1001 30.99 28.3201 30.924 28.4641 30.792C28.6121 30.66 28.6861 30.488 28.6861 30.276C28.6861 29.972 28.4521 29.82 27.9841 29.82C27.3201 29.82 26.9881 29.988 26.9881 30.324ZM27.2221 28.056C27.2221 28.24 27.2741 28.39 27.3781 28.506C27.4821 28.622 27.6321 28.68 27.8281 28.68C28.0241 28.68 28.1581 28.628 28.2301 28.524C28.3021 28.42 28.3381 28.232 28.3381 27.96C28.3381 27.684 28.2981 27.5 28.2181 27.408C28.1381 27.316 27.9821 27.256 27.7501 27.228C27.7301 27.224 27.7021 27.222 27.6661 27.222C27.5181 27.222 27.4061 27.284 27.3301 27.408C27.2581 27.528 27.2221 27.744 27.2221 28.056ZM31.0612 27.66C31.9972 27.156 32.5552 26.886 32.7352 26.85L32.8072 26.916C32.7592 27.636 32.7352 28.186 32.7352 28.566C32.7352 28.946 32.7372 29.192 32.7412 29.304C32.7452 29.412 32.7492 29.486 32.7532 29.526C32.7612 29.562 32.7772 29.604 32.8012 29.652C32.8252 29.696 32.8672 29.726 32.9272 29.742C33.0832 29.782 33.2892 29.806 33.5452 29.814V30H31.2532V29.814H31.4032C31.9392 29.806 32.2132 29.716 32.2252 29.544C32.2452 29.404 32.2552 29.206 32.2552 28.95C32.2552 28.69 32.2432 28.222 32.2192 27.546C31.9912 27.546 31.6332 27.644 31.1452 27.84L31.0612 27.66Z" fill="#12B76A"/>
<path d="M7.41657 16.789L7.59857 15.879L13.5786 13.214L13.7346 13.357L13.5786 14.15L8.58657 16.373L13.5786 18.596L13.7346 19.389L13.5786 19.532L7.41657 16.789ZM14.9497 19.012L14.9627 12.928C14.9627 11.6713 14.9193 10.9347 14.8327 10.718C14.746 10.4927 14.473 10.38 14.0137 10.38L13.9877 9.951C14.629 9.89033 15.1057 9.82533 15.4177 9.756C15.7383 9.678 15.9117 9.639 15.9377 9.639C16.085 9.639 16.1587 9.704 16.1587 9.834L16.1457 10.679L16.1327 14.033C17.138 13.4697 17.9527 13.188 18.5767 13.188C19.2093 13.188 19.621 13.396 19.8117 13.812C20.0023 14.2193 20.0977 14.891 20.0977 15.827L20.0587 18.583C20.0587 18.999 20.089 19.259 20.1497 19.363C20.219 19.4583 20.4097 19.5233 20.7217 19.558V20H18.2517V19.558C18.5637 19.4887 18.75 19.3933 18.8107 19.272C18.8713 19.1507 18.9017 18.8257 18.9017 18.297V15.97C18.9017 15.19 18.841 14.6917 18.7197 14.475C18.607 14.2497 18.334 14.137 17.9007 14.137C17.6407 14.137 17.3243 14.1933 16.9517 14.306C16.5877 14.4187 16.3147 14.5357 16.1327 14.657C16.1067 15.6623 16.0937 16.919 16.0937 18.427C16.0937 18.9123 16.1283 19.22 16.1977 19.35C16.2757 19.4713 16.488 19.5407 16.8347 19.558V20H14.1827V19.558C14.4687 19.5407 14.668 19.4887 14.7807 19.402C14.8933 19.3153 14.9497 19.1853 14.9497 19.012ZM21.8322 14.93C23.8602 13.838 25.0692 13.253 25.4592 13.175L25.6152 13.318C25.5112 14.878 25.4592 16.0697 25.4592 16.893C25.4592 17.7163 25.4636 18.2493 25.4722 18.492C25.4809 18.726 25.4896 18.8863 25.4982 18.973C25.5156 19.051 25.5502 19.142 25.6022 19.246C25.6542 19.3413 25.7452 19.4063 25.8752 19.441C26.2132 19.5277 26.6596 19.5797 27.2142 19.597V20H22.2482V19.597H22.5732C23.7346 19.5797 24.3282 19.3847 24.3542 19.012C24.3976 18.7087 24.4192 18.2797 24.4192 17.725C24.4192 17.1617 24.3932 16.1477 24.3412 14.683C23.8472 14.683 23.0716 14.8953 22.0142 15.32L21.8322 14.93ZM27.2593 19.389L27.4153 18.596L32.4073 16.373L27.4153 14.15L27.2593 13.357L27.4153 13.214L33.5773 15.957L33.3953 16.867L27.4153 19.532L27.2593 19.389Z" fill="#12B76A"/>
</svg>
