<svg width="178" height="125" viewBox="0 0 178 125" fill="none" xmlns="http://www.w3.org/2000/svg">
<path opacity="0.6" d="M46 15L117.796 15C120.558 15 122.796 17.2386 122.796 20V80V89.7041V117.21H46.0002C43.2387 117.21 41.0002 114.972 41.0002 112.21L41.0001 107.105L41.0002 103L41.0001 100V97L41 36.5L41 32.5L41 25.5L41 20C41 17.2386 43.2386 15 46 15Z" fill="#C0DDFF"/>
<circle cx="81.6685" cy="53.149" r="13.149" fill="white"/>
<path d="M81.6681 68.9287C68.5966 68.9287 58 76.5818 58 86.0224C65.8894 89.0905 86.4018 93.3858 105.336 86.0224C105.336 76.5818 94.7397 68.9287 81.6681 68.9287Z" fill="white"/>
<g opacity="0.3">
<path d="M17 87.4843V86.7786C17 83.0349 20.0349 80 23.7786 80H41V94.2629H23.7786C20.0349 94.2629 17 91.2281 17 87.4843Z" fill="#B4D4FF"/>
<path d="M147 88.1885V86.9827C147 83.239 143.965 80.2041 140.221 80.2041H122.804V94.9671H140.221C143.965 94.9671 147 91.9322 147 88.1885Z" fill="#B4D4FF"/>
<path d="M28.5517 45.4843V44.7786C28.5517 41.0349 31.5865 38 35.3303 38H41.5V52.263H35.3303C31.5865 52.263 28.5517 49.2281 28.5517 45.4843Z" fill="#B4D4FF"/>
<path d="M154.121 44.7786V45.4843C154.121 49.2281 151.086 52.263 147.342 52.2629L122.83 52.2629V38L147.342 38C151.086 38 154.121 41.0349 154.121 44.7786Z" fill="#B4D4FF"/>
<path d="M160.924 72.7786V73.4843C160.924 77.2281 157.889 80.2629 154.145 80.2629H122.797V66H154.145C157.889 66 160.924 69.0349 160.924 72.7786Z" fill="#B4D4FF"/>
<path d="M33.5197 67.6787L31.5002 66H41.4238V80.2629H31.5002L34.0707 77.592C36.8012 74.7548 36.5478 70.1959 33.5197 67.6787Z" fill="#B4D4FF"/>
<path d="M11 58.4388V59.1445C11 62.8882 14.0349 65.9231 17.7786 65.9231H41.5V51.6602H17.7786C14.0349 51.6602 11 54.695 11 58.4388Z" fill="#B4D4FF"/>
<path d="M130.081 53.6105L132.126 51.6602H122.811V65.9231H132.126L129.566 62.871C127.269 60.1314 127.494 56.0785 130.081 53.6105Z" fill="#B4D4FF"/>
<circle r="5.24349" transform="matrix(-1 0 0 1 138.243 59.2435)" fill="#B4D4FF"/>
</g>
<path d="M129.616 123.407C128.352 124.671 126.275 124.671 125.011 123.407L116.072 114.649C114.808 113.385 114.808 111.308 116.072 109.954C117.336 108.69 119.413 108.69 120.677 109.954L129.525 118.712C130.88 120.066 130.88 122.143 129.616 123.407Z" fill="#8FBCFF"/>
<path d="M90.7002 85.6657C82.9352 93.4307 83.1158 106.071 91.2419 113.475C98.9166 120.518 111.196 120.247 118.329 112.663C125.552 105.078 125.552 92.9793 118.058 85.5754C110.383 78.1716 98.2846 78.0813 90.7002 85.6657ZM114.988 109.954C109.029 115.913 99.0972 115.732 93.3186 109.412C88.172 103.814 88.172 94.9656 93.3186 89.2773C99.0972 82.957 109.029 82.7764 114.988 88.7356C120.857 94.6045 120.857 104.085 114.988 109.954Z" fill="#8FBCFF"/>
<path d="M145.376 4.75223C144.109 4.75223 143 3.64337 143 2.37611C143 1.10885 144.109 0 145.376 0C146.643 0 147.752 1.10885 147.752 2.37611C147.752 3.80178 146.643 4.75223 145.376 4.75223Z" fill="#EAA8FF"/>
<path d="M169.09 100.581H171.581V97.9341C171.581 97.467 172.048 97 172.515 97C172.982 97 173.449 97.467 173.449 97.9341V100.581H176.095C176.562 100.581 177.029 101.048 177.029 101.515C177.029 101.982 176.562 102.449 176.095 102.449H173.449V105.095C173.449 105.562 172.982 106.029 172.515 106.029C172.048 106.029 171.581 105.562 171.581 105.095V102.449H168.934C168.467 102.449 168 101.982 168 101.515C168.156 101.048 168.623 100.581 169.09 100.581Z" fill="#FFB5D7"/>
<path d="M5.2434 5.55839L6.49489 4.37897L5.24177 3.04927C5.02063 2.81462 5.03415 2.35882 5.2688 2.13768C5.50345 1.91654 5.95924 1.93006 6.18038 2.16472L7.4335 3.49442L8.76321 2.24129C8.99786 2.02015 9.45366 2.03366 9.6748 2.26831C9.89594 2.50297 9.88242 2.95876 9.64777 3.1799L8.31806 4.43303L9.57119 5.76273C9.79233 5.99739 9.77882 6.45317 9.54417 6.67431C9.30952 6.89545 8.85372 6.88194 8.63258 6.64729L7.37945 5.31759L6.04975 6.57071C5.8151 6.79185 5.3593 6.77834 5.13816 6.54369C4.99524 6.23532 5.00875 5.77953 5.2434 5.55839Z" fill="#B2ABFF"/>
<path d="M3.56474 105.128C1.66385 105.128 0.000566483 103.465 0.000566483 101.564C0.000566483 99.6633 1.66385 98 3.56474 98C5.46563 98 7.12891 99.6633 7.12891 101.564C7.12891 103.703 5.46563 105.128 3.56474 105.128Z" fill="#FFDE92"/>
<path d="M104.76 108.998C104.041 108.998 103.412 108.369 103.412 107.65C103.412 106.931 104.041 106.212 104.85 106.212C105.569 106.212 106.288 106.841 106.288 107.56C106.198 108.459 105.569 108.998 104.76 108.998ZM104.85 104.684C104.131 104.684 103.502 104.055 103.412 103.336C103.412 103.246 103.412 103.246 103.412 103.156V100.37C103.412 98.9325 104.311 97.6743 105.659 97.1351C106.737 96.7756 107.456 95.6972 107.366 94.6188C107.277 93.3606 106.288 92.2821 104.94 92.1923H104.76C103.682 92.1923 102.693 92.9112 102.334 94.0795C102.154 94.7086 101.615 94.9782 100.986 94.9782C100.806 94.9782 100.626 94.9782 100.446 94.8884C99.8174 94.6188 99.368 93.9897 99.5478 93.1808C100.177 90.9341 102.334 89.2266 104.76 89.2266H104.94C106.288 89.2266 107.636 89.6759 108.535 90.6645C109.613 91.8328 110.242 93.2707 110.152 94.8884C110.063 96.9554 108.625 98.9325 106.737 99.6515H106.647H106.558C106.378 99.7413 106.198 99.9211 106.288 100.191V102.887C106.288 103.336 106.217 103.753 106.069 104.049C105.716 104.755 105.114 104.684 104.85 104.684Z" fill="white"/>
</svg>
