<svg width="191" height="127" viewBox="0 0 191 127" fill="none" xmlns="http://www.w3.org/2000/svg">
<path d="M117.94 3.58056H115.449V0.934059C115.449 0.46703 114.982 0 114.515 0C114.048 0 113.581 0.46703 113.581 0.934059V3.58056H110.934C110.467 3.58056 110 4.04759 110 4.51462C110 4.98164 110.467 5.44867 110.934 5.44867H113.581V8.09517C113.581 8.5622 114.048 9.02923 114.515 9.02923C114.982 9.02923 115.449 8.5622 115.449 8.09517V5.44867H118.095C118.562 5.44867 119.029 4.98164 119.029 4.51462C118.874 4.04759 118.407 3.58056 117.94 3.58056Z" fill="#FFB5D7"/>
<path d="M22.5691 113.262L21.3176 112.083L22.5707 110.753C22.7919 110.519 22.7784 110.063 22.5437 109.842C22.309 109.621 21.8533 109.634 21.6321 109.869L20.379 111.199L19.0493 109.945C18.8146 109.724 18.3588 109.738 18.1377 109.972C17.9166 110.207 17.9301 110.663 18.1647 110.884L19.4944 112.137L18.2413 113.467C18.0202 113.701 18.0337 114.157 18.2683 114.378C18.503 114.6 18.9588 114.586 19.1799 114.351L20.433 113.022L21.7627 114.275C21.9974 114.496 22.4532 114.482 22.6743 114.248C22.8173 113.939 22.8037 113.484 22.5691 113.262Z" fill="#B2ABFF"/>
<path d="M180.376 70.7522C181.643 70.7522 182.752 69.6434 182.752 68.3761C182.752 67.1089 181.643 66 180.376 66C179.109 66 178 67.1089 178 68.3761C178 69.8018 179.109 70.7522 180.376 70.7522Z" fill="#EAA8FF"/>
<path d="M156.564 125.128C158.465 125.128 160.128 123.465 160.128 121.564C160.128 119.663 158.465 118 156.564 118C154.663 118 153 119.663 153 121.564C153 123.703 154.663 125.128 156.564 125.128Z" fill="#FFDE92"/>
<path opacity="0.5" d="M47.8466 11.2121L46.6072 14.1992L49.5907 13.2458L59.7139 9.06128L47.8466 11.2121Z" fill="#5198FF"/>
<path opacity="0.5" d="M46.6071 14.1991L51.7563 13.4435L50.4258 12.9011L46.6071 14.1991Z" fill="#A8CCFF"/>
<path opacity="0.5" d="M47.8466 11.2121L46.701 8.54175L59.7139 9.06128L47.8466 11.2121Z" fill="#9BC4FF"/>
<path opacity="0.5" d="M59.7139 9.06128L49.5907 13.2458L51.5058 17.1084L59.7139 9.06128Z" fill="#98C2FF"/>
<path opacity="0.2" fill-rule="evenodd" clip-rule="evenodd" d="M56 66.7041H56.1755C56.1855 66.7496 56.1958 66.795 56.2066 66.8404C56.3748 67.5505 56.6394 68.2483 56.9946 68.9315C56.5589 68.1829 56.2291 67.4372 56 66.7041ZM56 66.7041V77.4017L55.9988 77.3777C55.9928 77.2521 55.9897 77.1262 55.9897 77V95C55.9897 98.3534 58.1294 101.493 61.8555 104.18C62.2717 104.481 62.7077 104.775 63.1627 105.064C66.8259 107.388 71.7221 109.325 77.4489 110.704H49.0199C45.1888 110.704 42.0544 107.536 42.0544 103.664C42.0544 101.728 42.838 99.9681 44.0569 98.7361C45.1888 97.5921 46.669 96.8881 48.4104 96.7121H7.74915C3.56983 96.7121 0 93.2801 0 89.1441C0 87.1201 0.870691 85.2721 2.17673 83.9521C3.48276 82.6321 5.39828 81.7521 7.40087 81.7521H45.45C41.3578 81.7521 38.0492 78.4081 38.0492 74.1841C38.0492 72.0721 38.9199 70.2241 40.2259 68.9041C41.5319 67.5841 43.4475 66.7041 45.45 66.7041H56ZM74.3258 79.8731C71.2498 78.9943 68.5914 77.9603 66.323 76.8248C66.5133 76.9183 66.7058 77.011 66.9006 77.1028C69.1113 78.1452 71.6035 79.076 74.3258 79.8731ZM61.5543 85.9597C59.9078 84.7325 58.5891 83.4142 57.6495 82.0269C58.5795 83.3412 59.914 84.7138 61.6814 86.0537C61.6388 86.0224 61.5964 85.9911 61.5543 85.9597ZM120.24 92.2413L120.215 92.2761C118.519 92.7304 116.741 93.1343 114.893 93.4828C116.624 93.1439 118.427 92.7326 120.24 92.2413ZM126.563 90.1638L126.604 90.1764C126.67 90.1498 126.737 90.1231 126.803 90.0964C128.813 89.2839 130.636 88.3874 132.241 87.42C132.31 87.3784 132.378 87.3368 132.447 87.2949L132.428 87.2841C130.645 88.381 128.652 89.3365 126.563 90.1638ZM139.528 97.6787C139.316 98.2882 139.032 98.8876 138.681 99.4755C136.787 102.648 132.926 105.483 127.688 107.728C127.216 107.93 126.732 108.128 126.238 108.321C126.249 108.383 126.255 108.446 126.255 108.511C126.164 109.422 125.526 109.969 124.705 109.969C124.223 109.969 123.78 109.689 123.536 109.289C121.953 109.809 120.281 110.283 118.531 110.704H135.041C135.159 110.594 135.276 110.481 135.391 110.366C138.852 106.904 140.231 102.161 139.528 97.6787ZM140.552 110.704C143.33 106.687 144.41 101.825 143.762 97.1725C146.291 98.1153 148.233 100.416 148.366 103.224C148.54 105.336 147.669 107.272 146.363 108.68C145.144 109.912 143.403 110.704 141.487 110.704H140.552ZM136.11 84.5662L136.074 84.5405C137.974 82.7533 139.336 80.6878 139.88 78.3108C139.876 78.3355 139.872 78.3602 139.867 78.385C139.478 80.5787 138.171 82.6626 136.11 84.5662ZM139.99 78.2649V77.7645L140 77.7041V66.7041H159.162C163.516 66.7041 167.086 70.1361 166.998 74.3601C166.998 76.3841 166.128 78.2321 164.822 79.5521C163.516 80.9601 161.6 81.7521 159.598 81.7521H142.619C141.693 81.7521 140.807 81.9235 139.99 82.2366V78.2649ZM107.815 82.5048C106.942 82.5944 106.059 82.6724 105.166 82.7383L105.12 82.7417C105.412 82.73 105.705 82.7175 106 82.7041C106.615 82.6414 107.22 82.5749 107.815 82.5048Z" fill="#B4D4FF"/>
<path opacity="0.2" fill-rule="evenodd" clip-rule="evenodd" d="M104.19 53.51C104.791 53.4804 105.398 53.4465 106.01 53.4082C106.625 53.3455 107.23 53.279 107.826 53.2088C106.633 53.3314 105.42 53.4321 104.19 53.51ZM139.999 35.8251C140.007 35.6856 140.01 35.5466 140.01 35.4082V48.4082C140.007 48.4284 140.003 48.4485 140 48.4686V54.7041H147.201C149.303 54.7041 151.23 53.8295 152.544 52.5175C153.858 51.2056 154.734 49.3688 154.734 47.2697C154.734 43.0714 151.318 39.7478 147.201 39.7478H183.554C185.569 39.7478 187.496 38.9607 188.81 37.5612C190.124 36.1618 191 34.3251 191 32.226C191 28.0277 187.671 24.7041 183.554 24.7041H131.247C136.735 27.746 140 31.5616 140 35.7041C140 35.7445 140 35.7848 139.999 35.8251ZM139.89 49.015C139.4 51.156 138.247 53.0443 136.634 54.7041H136.706C138.45 52.9344 139.554 51.0202 139.89 49.015ZM59.356 54.7041C58.2778 53.5969 57.4834 52.5122 56.94 51.5088C57.4955 52.6151 58.2882 53.6836 59.2942 54.7041H59.356ZM56.0103 48.1058V39.7478H32.4459C30.4311 39.7478 28.504 40.6225 27.19 41.9344C25.876 43.3338 25 45.1706 25 47.2697C25 51.3805 28.4164 54.7041 32.5335 54.7041H56V47.7041C56 47.8303 56.003 47.9562 56.0091 48.0818L56.0103 48.1058ZM66.43 47.5762C72.0391 50.4295 79.9312 52.6643 90.3253 53.4043C80.8695 52.656 72.5239 50.5503 66.43 47.5762Z" fill="#B4D4FF"/>
<path d="M106.01 95.4082C70.3848 97.9082 56.0098 84.9082 56.0098 78.4082V67.4082C58.5098 75.4082 73.0098 84.9082 106.01 83.4082C130.51 80.9082 140.01 72.4082 140.01 65.4082V78.4082C138.01 90.4082 115.51 94.7415 106.01 95.4082Z" fill="white"/>
<path d="M148.217 125.492C146.978 126.731 144.942 126.731 143.703 125.492L134.939 116.906C133.7 115.667 133.7 113.631 134.939 112.303C136.179 111.064 138.271 111.135 139.51 112.374L148.185 120.96C149.512 122.288 149.456 124.253 148.217 125.492Z" fill="#8FBCFF"/>
<path opacity="0.2" fill-rule="evenodd" clip-rule="evenodd" d="M98.2471 17.7044C98.1648 17.7042 98.0824 17.7041 98 17.7041C74.804 17.7041 56 25.763 56 35.7041C56 45.6144 74.6876 53.6541 97.7844 53.7039C74.6924 53.6518 56.0103 45.613 56.0103 35.7041C56.0103 25.763 74.8143 17.7041 98.0103 17.7041C98.0893 17.7041 98.1682 17.7042 98.2471 17.7044ZM56 65.7041V47.7041C56 47.8384 56.0034 47.9723 56.0103 48.1058V60.1751C56.0643 60.1939 56.1184 60.2126 56.1725 60.2312C56.4337 60.3208 56.5727 60.6052 56.4831 60.8664C56.4119 61.0738 56.2179 61.2042 56.0103 61.2043V65.7041C56.0103 75.613 74.6924 83.6518 97.7844 83.7039C74.6876 83.6541 56 75.6144 56 65.7041ZM140 48.1059V47.7041C140 57.6452 121.196 65.7041 98 65.7041C97.9281 65.7041 97.8562 65.704 97.7844 65.7039C97.8596 65.704 97.9349 65.7041 98.0103 65.7041C120.893 65.7041 139.502 57.8615 140 48.1059ZM56 95.7041V77.7041C56 77.8384 56.0034 77.9723 56.0103 78.1058V95.7041C56.0103 99.057 58.1493 102.196 61.8745 104.884C61.8716 104.884 61.8687 104.884 61.8657 104.885C58.1396 102.197 56 99.0575 56 95.7041ZM62.4157 105.263C62.4162 105.265 62.4166 105.267 62.4171 105.269L62.4176 105.271C69.7238 110.252 82.5655 113.59 97.2441 113.701C82.5616 113.589 69.7181 110.247 62.4157 105.263ZM107.531 95.2397C107.531 95.2393 107.531 95.239 107.531 95.2386C105.184 95.472 102.761 95.6211 100.281 95.678C100.28 95.6781 100.28 95.6782 100.28 95.6783C102.76 95.6217 105.183 95.4729 107.531 95.2397ZM98.887 95.7003C98.887 95.7002 98.887 95.7002 98.887 95.7002C98.5921 95.7028 98.2964 95.7041 98 95.7041C97.9281 95.7041 97.8562 95.704 97.7844 95.7039C97.8596 95.704 97.9349 95.7041 98.0103 95.7041C98.3032 95.7041 98.5955 95.7028 98.887 95.7003ZM118.052 111.524C118.049 111.525 118.047 111.525 118.045 111.526C116.814 110.829 115.67 109.929 114.663 108.828C111.112 104.965 110.218 99.4251 111.981 94.6828C115.394 94.1666 118.605 93.4667 121.549 92.6107C121.548 92.612 121.547 92.6133 121.546 92.6146C118.605 93.4688 115.399 94.1674 111.991 94.6828C110.228 99.4252 111.123 104.965 114.673 108.828C115.68 109.928 116.823 110.827 118.052 111.524ZM132.475 87.9944C132.473 87.9933 132.471 87.9922 132.47 87.9911C130.812 89.0095 128.915 89.9509 126.813 90.8005C127.644 90.985 128.413 91.3785 128.985 92.008C129.984 93.0905 130.567 94.4227 130.484 95.9215C130.4 97.8366 129.068 99.6684 127.32 100.335H127.236H127.153C126.986 100.418 126.82 100.584 126.903 100.834V103.332C126.903 103.748 126.82 103.998 126.57 104.248C126.32 104.498 125.987 104.664 125.654 104.748L125.571 104.997C125.574 104.997 125.578 104.997 125.581 104.997L125.665 104.748C125.998 104.664 126.331 104.498 126.58 104.248C126.83 103.998 126.913 103.748 126.913 103.332V100.834C126.83 100.584 126.997 100.418 127.163 100.335H127.247H127.33C129.078 99.6684 130.411 97.8366 130.494 95.9215C130.577 94.4227 129.994 93.0905 128.995 92.008C128.423 91.3786 127.654 90.9851 126.824 90.8005C128.923 89.9518 130.818 89.0115 132.475 87.9944ZM125.655 93.4236C125.654 93.4236 125.654 93.4235 125.654 93.4235H125.488C124.489 93.4235 123.573 94.0897 123.24 95.1721C123.073 95.755 122.573 96.0048 121.991 96.0048M125.655 93.4236H125.498C124.499 93.4236 123.583 94.0897 123.25 95.1721C123.083 95.755 122.584 96.0048 122.001 96.0048M139.895 79.0454C139.502 81.3354 138.109 83.5062 135.902 85.4782C136.45 85.8991 136.979 86.355 137.488 86.8458C138.463 87.8085 139.3 88.8573 140 89.9683V89.9846C139.298 88.8675 138.457 87.8131 137.478 86.8457C136.969 86.355 136.439 85.8991 135.892 85.4782C138.096 83.5087 139.488 81.3407 139.884 79.0539C139.888 79.051 139.892 79.0482 139.895 79.0454ZM125.493 108.994C125.495 108.994 125.496 108.994 125.498 108.994C126.247 108.994 126.83 108.495 126.913 107.662C126.913 106.996 126.247 106.413 125.581 106.413C125.579 106.413 125.577 106.413 125.576 106.413C126.24 106.416 126.903 106.997 126.903 107.662C126.82 108.492 126.24 108.992 125.493 108.994Z" fill="#B4D4FF"/>
<g opacity="0.6">
<path d="M56 77.7041V95.7041C56 105.645 74.804 113.704 98 113.704C121.196 113.704 140 105.645 140 95.7041V77.7041C140 87.6452 121.196 95.7041 98 95.7041C74.804 95.7041 56 87.6452 56 77.7041Z" fill="#C0DDFF"/>
<path d="M56 47.7041V65.7041C56 75.6452 74.804 83.7041 98 83.7041C121.196 83.7041 140 75.6452 140 65.7041V47.7041C140 57.6452 121.196 65.7041 98 65.7041C74.804 65.7041 56 57.6452 56 47.7041Z" fill="#C0DDFF"/>
<path d="M140 35.7041C140 45.6452 121.196 53.7041 98 53.7041C74.804 53.7041 56 45.6452 56 35.7041C56 25.763 74.804 17.7041 98 17.7041C121.196 17.7041 140 25.763 140 35.7041Z" fill="#C0DDFF"/>
</g>
<path d="M111.589 87.2586C103.977 94.8711 104.154 107.264 112.12 114.522C119.644 121.426 131.683 121.161 138.676 113.725C145.757 106.29 145.757 94.4285 138.41 87.1701C130.886 79.9116 119.025 79.8231 111.589 87.2586ZM135.401 111.07C129.558 116.912 119.822 116.735 114.156 110.539C109.111 105.051 109.111 96.3759 114.156 90.7993C119.822 84.603 129.558 84.426 135.401 90.2682C141.154 96.0218 141.154 105.316 135.401 111.07Z" fill="#8FBCFF"/>
<path d="M124.716 110.673C123.987 110.673 123.349 110.035 123.349 109.306C123.349 108.577 123.987 107.848 124.807 107.848C125.536 107.848 126.265 108.486 126.265 109.215C126.174 110.126 125.536 110.673 124.716 110.673ZM124.807 106.299C124.078 106.299 123.44 105.661 123.349 104.932C123.349 104.84 123.349 104.84 123.349 104.749V101.924C123.349 100.466 124.26 99.1903 125.627 98.6435C126.721 98.279 127.45 97.1854 127.359 96.0919C127.267 94.816 126.265 93.7225 124.898 93.6313H124.716C123.622 93.6313 122.62 94.3604 122.255 95.5451C122.073 96.183 121.526 96.4564 120.888 96.4564C120.706 96.4564 120.524 96.4564 120.341 96.3653C119.704 96.0919 119.248 95.454 119.43 94.6338C120.068 92.3555 122.255 90.624 124.716 90.624H124.898C126.265 90.624 127.632 91.0797 128.543 92.0821C129.637 93.2668 130.275 94.7249 130.184 96.3653C130.092 98.4613 128.634 100.466 126.721 101.195H126.629H126.538C126.356 101.286 126.174 101.469 126.265 101.742V104.476C126.265 104.932 126.193 105.354 126.043 105.654C125.685 106.371 125.075 106.299 124.807 106.299Z" fill="white"/>
<path d="M106.01 65.4082C68.0098 67.9082 56.0098 53.9082 56.0098 48.4082V37.4082C58.5098 45.4082 74.0098 55.4082 106.01 53.4082C130.51 50.9082 140.01 42.4082 140.01 35.4082V48.4082C138.01 60.4082 115.51 64.7415 106.01 65.4082Z" fill="white"/>
</svg>
