<svg width="200" height="123" viewBox="0 0 200 123" fill="none" xmlns="http://www.w3.org/2000/svg">
<path d="M152.376 4.75223C151.109 4.75223 150 3.64337 150 2.37611C150 1.10885 151.109 0 152.376 0C153.643 0 154.752 1.10885 154.752 2.37611C154.752 3.80178 153.643 4.75223 152.376 4.75223Z" fill="#EAA8FF"/>
<path d="M191.09 71.2847H193.581V68.6382C193.581 68.1711 194.048 67.7041 194.515 67.7041C194.982 67.7041 195.449 68.1711 195.449 68.6382V71.2847H198.095C198.562 71.2847 199.029 71.7517 199.029 72.2187C199.029 72.6857 198.562 73.1528 198.095 73.1528H195.449V75.7993C195.449 76.2663 194.982 76.7333 194.515 76.7333C194.048 76.7333 193.581 76.2663 193.581 75.7993V73.1528H190.934C190.467 73.1528 190 72.6857 190 72.2187C190.156 71.7517 190.623 71.2847 191.09 71.2847Z" fill="#FFB5D7"/>
<path d="M29.2434 8.26249L30.4949 7.08308L29.2418 5.75337C29.0206 5.51872 29.0341 5.06292 29.2688 4.84178C29.5035 4.62064 29.9592 4.63416 30.1804 4.86882L31.4335 6.19852L32.7632 4.94539C32.9979 4.72425 33.4537 4.73776 33.6748 4.97242C33.8959 5.20707 33.8824 5.66286 33.6478 5.884L32.3181 7.13713L33.5712 8.46683C33.7923 8.70149 33.7788 9.15727 33.5442 9.37841C33.3095 9.59955 32.8537 9.58604 32.6326 9.35139L31.3795 8.02169L30.0498 9.27481C29.8151 9.49595 29.3593 9.48244 29.1382 9.24779C28.9952 8.93942 29.0088 8.48363 29.2434 8.26249Z" fill="#B2ABFF"/>
<path d="M3.56376 84.8324C1.66287 84.8324 -0.00041008 83.1692 -0.00041008 81.2683C-0.00041008 79.3674 1.66287 77.7041 3.56376 77.7041C5.46465 77.7041 7.12793 79.3674 7.12793 81.2683C7.12793 83.4068 5.46465 84.8324 3.56376 84.8324Z" fill="#FFDE92"/>
<path opacity="0.2" fill-rule="evenodd" clip-rule="evenodd" d="M153.59 34.1613H66.6071L66.6069 34.1616H153.12V46.0437H187.554C189.569 46.0437 191.496 45.2566 192.81 43.8571C194.124 42.4577 195 40.621 195 38.5219C195 34.3236 191.671 31 187.554 31H157.303C157.016 32.7921 155.463 34.1613 153.59 34.1613ZM153.12 46.2911V60.7537C154.455 60.4061 155.644 59.7124 156.544 58.8134C157.858 57.5015 158.734 55.6647 158.734 53.5656C158.734 50.0421 156.328 47.1346 153.12 46.2911ZM58.6406 61V46.0437H36.4459C34.4311 46.0437 32.504 46.9184 31.19 48.2303C29.876 49.6297 29 51.4665 29 53.5656C29 57.6764 32.4164 61 36.5335 61H58.6406Z" fill="#B4D4FF"/>
<path opacity="0.6" d="M145.599 102.318H66.1614C62.0078 102.318 58.6406 98.9512 58.6406 94.7976V34.1616H153.12V94.7976C153.12 98.9512 149.753 102.318 145.599 102.318Z" fill="#C0DDFF"/>
<path opacity="0.6" d="M56.7604 34.1613H60.8148H153.59C155.667 34.1613 157.35 32.4777 157.35 30.4009V24.7604C157.35 22.6836 155.667 21 153.59 21H56.7604C54.6836 21 53 22.6836 53 24.7604V30.4009C53 32.4777 54.6836 34.1613 56.7604 34.1613Z" fill="#ABCDFF"/>
<path opacity="0.6" fill-rule="evenodd" clip-rule="evenodd" d="M110.394 102.318C110.345 102.318 108.465 102.318 108.465 102.318L125.905 121.781C127.308 123.311 129.687 123.415 131.218 122.012C132.749 120.608 132.852 118.229 131.449 116.699L117.866 102.318L110.394 102.318Z" fill="#ABCDFF"/>
<path opacity="0.6" fill-rule="evenodd" clip-rule="evenodd" d="M102.307 102.318C102.355 102.318 103.765 102.318 103.765 102.318L86.7951 121.78C85.3917 123.311 83.013 123.415 81.4821 122.011C79.9512 120.608 79.8478 118.229 81.2511 116.699L94.8341 102.318L102.307 102.318Z" fill="#ABCDFF"/>
<path fill-rule="evenodd" clip-rule="evenodd" d="M129.183 104.207C121.122 96.8628 120.943 84.3232 128.646 76.6204C136.17 69.0967 148.172 69.1862 155.785 76.5308C162.353 83.0196 163.118 93.1438 158.266 100.603C158.306 100.639 158.344 100.676 158.382 100.714L167.16 109.402C168.503 110.745 168.503 112.805 167.249 114.059C165.995 115.313 163.935 115.313 162.681 114.059L153.842 105.399C146.641 110.908 136.053 110.511 129.183 104.207ZM131.243 100.177C136.976 106.447 146.828 106.626 152.74 100.714C158.562 94.8923 158.562 85.4876 152.74 79.6657C146.828 73.7542 136.976 73.9334 131.243 80.2031C126.138 85.8459 126.138 94.6236 131.243 100.177Z" fill="#98C2FF"/>
<path d="M142.516 99C141.898 99 141.357 98.4591 141.357 97.8409C141.357 97.2227 141.898 96.6045 142.593 96.6045C143.212 96.6045 143.83 97.1455 143.83 97.7636C143.753 98.5364 143.212 99 142.516 99ZM142.593 95.2909C141.975 95.2909 141.434 94.75 141.357 94.1318C141.357 94.0545 141.357 94.0545 141.357 93.9773V91.5818C141.357 90.3455 142.13 89.2636 143.289 88.8C144.216 88.4909 144.834 87.5636 144.757 86.6364C144.68 85.5545 143.83 84.6273 142.671 84.55H142.516C141.589 84.55 140.739 85.1682 140.43 86.1727C140.275 86.7136 139.812 86.9455 139.271 86.9455C139.116 86.9455 138.962 86.9455 138.807 86.8682C138.266 86.6364 137.88 86.0955 138.034 85.4C138.575 83.4682 140.43 82 142.516 82H142.671C143.83 82 144.989 82.3864 145.762 83.2364C146.689 84.2409 147.23 85.4773 147.153 86.8682C147.075 88.6455 145.839 90.3455 144.216 90.9636H144.139H144.062C143.907 91.0409 143.753 91.1955 143.83 91.4273V93.7455C143.83 94.1318 143.769 94.4901 143.642 94.7446C143.338 95.3521 142.821 95.2909 142.593 95.2909Z" fill="white"/>
<path d="M80 77.3951L94.1976 63.9448L105.033 74.4062L129.318 49" stroke="white" stroke-width="5.56401" stroke-linecap="round" stroke-linejoin="round"/>
<path opacity="0.1" fill-rule="evenodd" clip-rule="evenodd" d="M117.867 102.318H127.373C127.925 102.979 128.528 103.61 129.183 104.207C136.053 110.511 146.641 110.908 153.842 105.399L159.745 111.182C158.779 111.7 157.666 112 156.487 112H127.011L117.867 102.318ZM152.74 100.714C147.599 105.855 139.478 106.39 133.677 102.318H145.599C149.013 102.318 151.895 100.044 152.814 96.9288C153.454 97.3772 154.183 97.7035 154.968 97.8737C154.357 98.8851 153.614 99.8401 152.74 100.714ZM153.12 84.5853C153.811 84.0501 154.599 83.6355 155.453 83.3724C154.844 82.1928 154.066 81.0768 153.12 80.06V84.5853ZM155.785 76.5308C157.719 78.4416 159.15 80.6676 160.082 83.048H174.598C176.6 83.048 178.516 82.256 179.822 80.848C181.128 79.528 181.998 77.68 181.998 75.656C182.086 71.432 178.516 68 174.162 68H153.12V74.3675C154.054 75.0002 154.946 75.7215 155.785 76.5308ZM158.266 100.603C158.664 99.9909 159.025 99.3606 159.347 98.7158C161.586 99.7765 163.244 101.933 163.366 104.52C163.397 104.901 163.395 105.275 163.362 105.642L158.382 100.714C158.344 100.676 158.306 100.639 158.266 100.603ZM108.466 102.318H103.765L95.3229 112H117.141L108.466 102.318ZM66.1614 102.318H94.8337L85.689 112H64.0199C60.1888 112 57.0544 108.832 57.0544 104.96C57.0544 103.024 57.838 101.264 59.0569 100.032C59.3659 99.7198 59.7007 99.4403 60.0598 99.1954C61.4257 101.087 63.6497 102.318 66.1614 102.318ZM59.3583 98.008C58.898 97.0344 58.6406 95.9461 58.6406 94.7976V83.048H22.4009C20.3983 83.048 18.4828 83.928 17.1767 85.248C15.8707 86.568 15 88.416 15 90.44C15 94.576 18.5698 98.008 22.7491 98.008H59.3583ZM58.6406 82.8232V68.2373C57.3259 68.5835 56.1299 69.2863 55.2259 70.2C53.9199 71.52 53.0492 73.368 53.0492 75.48C53.0492 79.0595 55.4252 82.0071 58.6406 82.8232Z" fill="#B4D4FF"/>
</svg>
