<svg width="40" height="40" viewBox="0 0 40 40" fill="none" xmlns="http://www.w3.org/2000/svg">
<rect x="0.5" y="0.5" width="39" height="39" fill="white" stroke="#12B76A"/>
<path d="M4.5 12.25H4.25V12.5V18.5V18.75H4.5H35.5H35.75V18.5V12.5V12.25H35.5H4.5Z" fill="white" stroke="#12B76A" stroke-width="0.5"/>
<path d="M8.15906 15.992C8.15906 15.4773 8.3564 15.136 8.75106 14.968C8.85506 14.9227 8.9364 14.9 8.99506 14.9C9.13906 14.9 9.26706 14.9333 9.37906 15C9.49106 15.064 9.5804 15.1493 9.64706 15.256C9.77506 15.472 9.83906 15.7227 9.83906 16.008C9.83906 16.2373 9.78706 16.4347 9.68306 16.6C9.5684 16.784 9.43506 16.9147 9.28306 16.992C9.18173 17.0453 9.0764 17.072 8.96706 17.072C8.71373 17.072 8.51506 16.972 8.37106 16.772C8.22973 16.572 8.15906 16.312 8.15906 15.992ZM8.42706 15.952C8.42706 16.1947 8.48973 16.384 8.61506 16.52C8.74306 16.656 8.8804 16.724 9.02706 16.724C9.22973 16.724 9.3684 16.672 9.44306 16.568C9.5204 16.4613 9.55906 16.284 9.55906 16.036C9.55906 15.788 9.49773 15.5947 9.37506 15.456C9.25506 15.3147 9.11906 15.244 8.96706 15.244C8.9084 15.244 8.8604 15.2467 8.82306 15.252C8.7884 15.2547 8.74306 15.2693 8.68706 15.296C8.63106 15.3227 8.58573 15.36 8.55106 15.408C8.4684 15.528 8.42706 15.7093 8.42706 15.952ZM10.0289 16L10.0849 15.736H10.9289L10.9729 15.78L10.9249 16H10.0289ZM11.1791 15.904C11.1791 15.5173 11.2764 15.248 11.4711 15.096C11.6444 14.9653 11.8591 14.9 12.1151 14.9C12.2537 14.9 12.3737 14.9307 12.4751 14.992C12.5764 15.0533 12.6524 15.1347 12.7031 15.236C12.7991 15.428 12.8471 15.6427 12.8471 15.88C12.8471 16.1147 12.8271 16.3293 12.7871 16.524C12.7471 16.7187 12.6951 16.8813 12.6311 17.012C12.5671 17.1427 12.4884 17.2573 12.3951 17.356C12.3017 17.4547 12.2084 17.532 12.1151 17.588C12.0217 17.644 11.9191 17.6907 11.8071 17.728C11.6364 17.7813 11.4404 17.8107 11.2191 17.816L11.1951 17.68C11.5497 17.6293 11.8217 17.5267 12.0111 17.372C12.2031 17.22 12.3324 16.98 12.3991 16.652C12.2364 16.7507 12.0751 16.8 11.9151 16.8C11.7017 16.8 11.5257 16.7173 11.3871 16.552C11.2484 16.384 11.1791 16.168 11.1791 15.904ZM11.5231 15.796C11.5231 16.188 11.6137 16.432 11.7951 16.528C11.8724 16.5707 11.9764 16.592 12.1071 16.592C12.2377 16.592 12.3444 16.5573 12.4271 16.488C12.4511 16.3173 12.4631 16.16 12.4631 16.016C12.4631 15.8693 12.4577 15.764 12.4471 15.7C12.4391 15.6333 12.4204 15.552 12.3911 15.456C12.3644 15.3573 12.3151 15.2787 12.2431 15.22C12.1711 15.1613 12.0764 15.132 11.9591 15.132C11.8417 15.132 11.7391 15.1893 11.6511 15.304C11.5657 15.416 11.5231 15.58 11.5231 15.796Z" fill="#12B76A"/>
<path d="M9.51045 26.838L9.50445 26.28V25.998C9.48845 25.898 9.40245 25.84 9.24645 25.824L8.94645 25.794V25.572H10.0804C10.1284 25.712 10.9864 26.87 12.6544 29.046C12.6384 28.822 12.6304 28.424 12.6304 27.852C12.6304 27.276 12.6224 26.724 12.6064 26.196C12.6024 26.056 12.5724 25.962 12.5164 25.914C12.4604 25.862 12.3104 25.824 12.0664 25.8V25.572H13.5184V25.788C13.2504 25.812 13.0884 25.866 13.0324 25.95L12.9964 26.136C12.9684 27.108 12.9544 28.068 12.9544 29.016L12.9664 30H12.6124C12.4524 29.76 12.2504 29.486 12.0064 29.178C11.7624 28.866 11.5644 28.614 11.4124 28.422C11.1084 28.03 10.5844 27.362 9.84045 26.418V28.26C9.86045 29.024 9.87045 29.444 9.87045 29.52C9.87045 29.596 9.91445 29.652 10.0024 29.688C10.0944 29.724 10.2224 29.75 10.3864 29.766V30H8.97045V29.784C9.28245 29.756 9.44845 29.668 9.46845 29.52C9.49645 29.32 9.51045 28.58 9.51045 27.3V26.838ZM15.8665 29.112L15.8785 27.69C15.8785 27.402 15.8525 27.244 15.8005 27.216C15.7725 27.2 15.7225 27.192 15.6505 27.192H15.4585L15.4465 26.994C15.7585 26.966 15.9825 26.936 16.1185 26.904C16.2585 26.868 16.3345 26.85 16.3465 26.85C16.4185 26.85 16.4545 26.88 16.4545 26.94C16.4545 27.444 16.4465 27.934 16.4305 28.41C16.4145 28.886 16.4065 29.168 16.4065 29.256C16.4065 29.344 16.4505 29.46 16.5385 29.604C16.6305 29.744 16.6765 29.826 16.6765 29.85C16.6765 29.87 16.6585 29.886 16.6225 29.898C16.3425 29.99 16.1845 30.036 16.1485 30.036C16.1165 30.036 16.0825 30.008 16.0465 29.952C16.0145 29.892 15.9845 29.82 15.9565 29.736C15.9285 29.652 15.9125 29.608 15.9085 29.604C15.6685 29.772 15.4485 29.89 15.2485 29.958C15.0485 30.022 14.8865 30.054 14.7625 30.054C14.6425 30.054 14.5145 29.996 14.3785 29.88C14.2465 29.764 14.1585 29.62 14.1145 29.448C14.0745 29.32 14.0545 29.072 14.0545 28.704V27.738C14.0545 27.638 14.0365 27.5 14.0005 27.324C13.9925 27.296 13.9665 27.272 13.9225 27.252C13.8785 27.232 13.8445 27.222 13.8205 27.222C13.7965 27.218 13.7445 27.216 13.6645 27.216L13.6525 27.012C13.9085 26.984 14.1105 26.95 14.2585 26.91C14.4065 26.87 14.4885 26.85 14.5045 26.85C14.5765 26.85 14.6125 26.88 14.6125 26.94L14.5885 28.692C14.5885 28.988 14.6045 29.184 14.6365 29.28C14.6725 29.376 14.7265 29.45 14.7985 29.502C14.8745 29.554 14.9485 29.58 15.0205 29.58C15.0965 29.58 15.2005 29.566 15.3325 29.538C15.4685 29.51 15.5785 29.474 15.6625 29.43C15.7505 29.382 15.8065 29.342 15.8305 29.31C15.8545 29.274 15.8665 29.208 15.8665 29.112ZM19.1285 29.358L19.1345 27.666C19.1345 27.538 19.0965 27.444 19.0205 27.384C18.9485 27.32 18.8085 27.288 18.6005 27.288C18.5205 27.288 18.4205 27.314 18.3005 27.366C18.1805 27.414 18.0825 27.462 18.0065 27.51C17.9785 28.418 17.9645 28.94 17.9645 29.076V29.376C17.9645 29.44 17.9685 29.496 17.9765 29.544C17.9885 29.592 17.9965 29.628 18.0005 29.652C18.0045 29.672 18.0185 29.692 18.0425 29.712C18.0705 29.732 18.0905 29.744 18.1025 29.748C18.1625 29.756 18.2285 29.772 18.3005 29.796V30H17.0765V29.796C17.2085 29.788 17.2985 29.764 17.3465 29.724C17.3985 29.684 17.4245 29.624 17.4245 29.544C17.4245 28.2 17.4105 27.486 17.3825 27.402C17.3745 27.382 17.3565 27.36 17.3285 27.336C17.3005 27.308 17.2105 27.286 17.0585 27.27L17.0465 27.042C17.2065 27.026 17.3705 26.988 17.5385 26.928C17.7065 26.868 17.8145 26.838 17.8625 26.838C17.9105 26.838 17.9445 26.86 17.9645 26.904C17.9845 26.948 17.9945 27.032 17.9945 27.156V27.24C18.0185 27.228 18.0645 27.202 18.1325 27.162C18.2045 27.122 18.2545 27.094 18.2825 27.078C18.3145 27.062 18.3585 27.038 18.4145 27.006C18.4745 26.974 18.5225 26.952 18.5585 26.94C18.5945 26.924 18.6385 26.908 18.6905 26.892C18.7705 26.86 18.8565 26.844 18.9485 26.844C19.1805 26.844 19.4305 26.986 19.6985 27.27C20.0865 26.986 20.4205 26.844 20.7005 26.844C20.8645 26.844 21.0025 26.892 21.1145 26.988C21.2905 27.144 21.3785 27.332 21.3785 27.552L21.3665 29.118C21.3665 29.434 21.3825 29.624 21.4145 29.688C21.4505 29.752 21.5385 29.788 21.6785 29.796H21.7205V30H20.4965V29.796C20.6485 29.788 20.7425 29.758 20.7785 29.706C20.8185 29.65 20.8385 29.526 20.8385 29.334L20.8325 27.864C20.8325 27.748 20.8285 27.662 20.8205 27.606C20.8125 27.55 20.7925 27.494 20.7605 27.438C20.7285 27.378 20.6745 27.338 20.5985 27.318C20.5225 27.298 20.4245 27.288 20.3045 27.288C20.1845 27.288 19.9805 27.364 19.6925 27.516C19.6885 28.036 19.6865 28.57 19.6865 29.118L19.6985 29.502C19.6985 29.55 19.7065 29.59 19.7225 29.622C19.7385 29.65 19.7465 29.674 19.7465 29.694C19.7505 29.71 19.7665 29.724 19.7945 29.736C19.8265 29.748 19.8445 29.756 19.8485 29.76C19.8565 29.764 19.8845 29.77 19.9325 29.778C19.9805 29.786 20.0125 29.792 20.0285 29.796V30H18.8045V29.796C18.9525 29.788 19.0425 29.758 19.0745 29.706C19.1105 29.65 19.1285 29.534 19.1285 29.358ZM21.8012 25.362C22.0972 25.334 22.3172 25.304 22.4612 25.272C22.6092 25.236 22.6892 25.218 22.7012 25.218C22.7692 25.218 22.8032 25.248 22.8032 25.308V25.566L22.7792 27.228C23.2552 26.968 23.5632 26.838 23.7032 26.838C24.1512 26.838 24.4492 26.972 24.5972 27.24C24.7292 27.476 24.7952 27.836 24.7952 28.32C24.7952 28.804 24.7092 29.176 24.5372 29.436C24.4932 29.496 24.3992 29.59 24.2552 29.718C24.1152 29.846 23.9772 29.94 23.8412 30C23.7052 30.06 23.5332 30.09 23.3252 30.09C23.1212 30.09 22.9112 30.056 22.6952 29.988C22.4792 29.916 22.3332 29.826 22.2572 29.718C22.2532 29.226 22.2512 28.68 22.2512 28.08C22.2512 26.548 22.2292 25.738 22.1852 25.65C22.1612 25.594 22.0812 25.564 21.9452 25.56H21.8132L21.8012 25.362ZM22.7732 27.882C22.7692 28.122 22.7672 28.428 22.7672 28.8C22.7672 29.168 22.7872 29.372 22.8272 29.412C22.8752 29.472 22.9772 29.532 23.1332 29.592C23.2892 29.648 23.4432 29.676 23.5952 29.676C23.7472 29.676 23.8652 29.652 23.9492 29.604C24.0372 29.552 24.1012 29.456 24.1412 29.316C24.1852 29.176 24.2152 28.99 24.2312 28.758C24.2512 28.526 24.2612 28.338 24.2612 28.194C24.2612 28.05 24.2332 27.906 24.1772 27.762C24.1252 27.614 24.0552 27.506 23.9672 27.438C23.8072 27.314 23.6412 27.252 23.4692 27.252C23.3012 27.252 23.0692 27.33 22.7732 27.486V27.882ZM25.2641 27.606C25.3281 27.458 25.4821 27.298 25.7261 27.126C25.9701 26.95 26.1901 26.862 26.3861 26.862C26.5861 26.862 26.7561 26.884 26.8961 26.928C27.0361 26.972 27.1461 27.038 27.2261 27.126C27.3061 27.21 27.3701 27.294 27.4181 27.378C27.4701 27.458 27.5041 27.56 27.5201 27.684C27.5521 27.884 27.5681 28.036 27.5681 28.14V28.314C27.4401 28.394 27.2301 28.434 26.9381 28.434H25.7081C25.7081 28.862 25.7401 29.136 25.8041 29.256C25.9001 29.432 26.0201 29.542 26.1641 29.586C26.2561 29.614 26.3641 29.628 26.4881 29.628C26.8361 29.628 27.1541 29.486 27.4421 29.202L27.5741 29.34C27.5581 29.356 27.5201 29.396 27.4601 29.46C27.4001 29.52 27.3601 29.56 27.3401 29.58C27.3201 29.6 27.2821 29.638 27.2261 29.694C27.1701 29.746 27.1261 29.782 27.0941 29.802C27.0661 29.822 27.0241 29.852 26.9681 29.892C26.9161 29.932 26.8701 29.96 26.8301 29.976C26.7941 29.992 26.7481 30.012 26.6921 30.036C26.6001 30.072 26.4921 30.09 26.3681 30.09C26.1281 30.09 25.9221 30.044 25.7501 29.952C25.5821 29.856 25.4561 29.728 25.3721 29.568C25.2121 29.276 25.1321 28.928 25.1321 28.524C25.1321 28.12 25.1761 27.814 25.2641 27.606ZM25.7201 28.164H26.0621C26.5941 28.164 26.9101 28.128 27.0101 28.056C27.0101 27.884 26.9821 27.736 26.9261 27.612C26.8221 27.372 26.6381 27.252 26.3741 27.252C26.1101 27.252 25.9341 27.32 25.8461 27.456C25.7621 27.588 25.7201 27.824 25.7201 28.164ZM28.9169 27.828L28.9109 29.454C28.9109 29.578 28.9469 29.66 29.0189 29.7C29.0909 29.736 29.1989 29.764 29.3429 29.784C29.4909 29.804 29.5709 29.814 29.5829 29.814V30H27.9029V29.796C27.9989 29.784 28.0629 29.778 28.0949 29.778C28.1269 29.774 28.1669 29.762 28.2149 29.742C28.2669 29.718 28.2969 29.698 28.3049 29.682C28.3129 29.662 28.3249 29.622 28.3409 29.562C28.3569 29.502 28.3649 29.442 28.3649 29.382V28.908C28.3649 28.104 28.3509 27.632 28.3229 27.492C28.2909 27.336 28.1749 27.258 27.9749 27.258L27.9629 27.03C28.1229 27.014 28.2869 26.976 28.4549 26.916C28.6229 26.856 28.7309 26.826 28.7789 26.826C28.8269 26.826 28.8609 26.85 28.8809 26.898C28.9009 26.942 28.9109 27.024 28.9109 27.144L28.9169 27.372C29.2689 27.032 29.5469 26.862 29.7509 26.862C29.8989 26.862 30.0009 26.88 30.0569 26.916C30.1129 26.952 30.1409 27.018 30.1409 27.114C30.1409 27.146 30.1089 27.362 30.0449 27.762H29.8289C29.8089 27.462 29.7069 27.312 29.5229 27.312C29.4189 27.312 29.2909 27.36 29.1389 27.456C28.9909 27.548 28.9169 27.672 28.9169 27.828Z" fill="#12B76A"/>
</svg>
