<svg width="40" height="40" viewBox="0 0 40 40" fill="none" xmlns="http://www.w3.org/2000/svg">
<rect x="0.5" y="0.5" width="39" height="39" fill="white" stroke="#12B76A"/>
<path d="M8.66348 27.972L8.65148 29.502C8.65148 29.61 8.72348 29.68 8.86748 29.712C8.98748 29.744 9.13548 29.766 9.31148 29.778L9.53948 29.796V30H7.48748V29.778C7.60748 29.77 7.69948 29.76 7.76348 29.748C7.82748 29.736 7.88748 29.71 7.94348 29.67C7.99948 29.63 8.02748 29.574 8.02748 29.502C8.03948 29.094 8.04548 28.516 8.04548 27.768C8.04548 27.02 8.03948 26.442 8.02748 26.034C8.02348 25.946 7.99148 25.888 7.93148 25.86C7.87548 25.828 7.76948 25.808 7.61348 25.8L7.52948 25.794V25.572C7.75348 25.588 8.03748 25.596 8.38148 25.596C8.72948 25.596 9.00348 25.586 9.20348 25.566C9.40748 25.546 9.52948 25.536 9.56948 25.536H9.68948C9.92548 25.536 10.1275 25.572 10.2955 25.644C10.4675 25.712 10.5975 25.808 10.6855 25.932C10.8455 26.16 10.9255 26.434 10.9255 26.754C10.9255 26.97 10.8455 27.192 10.6855 27.42C10.3735 27.852 9.91348 28.068 9.30548 28.068C9.02148 28.068 8.80748 28.036 8.66348 27.972ZM8.66948 27.588C8.80548 27.708 9.03548 27.768 9.35948 27.768C9.52348 27.768 9.66548 27.746 9.78548 27.702C9.90548 27.654 9.99348 27.6 10.0495 27.54C10.1095 27.48 10.1555 27.404 10.1875 27.312C10.2315 27.18 10.2535 27.044 10.2535 26.904C10.2535 26.764 10.2495 26.66 10.2415 26.592C10.2375 26.524 10.2215 26.44 10.1935 26.34C10.1455 26.14 10.0115 25.988 9.79148 25.884C9.71148 25.848 9.65348 25.83 9.61748 25.83C9.18948 25.83 8.90548 25.854 8.76548 25.902L8.69948 25.968C8.68748 26.292 8.67748 26.832 8.66948 27.588ZM13.325 27.648L13.301 29.232C13.301 29.332 13.345 29.454 13.433 29.598C13.525 29.738 13.571 29.82 13.571 29.844C13.571 29.864 13.553 29.88 13.517 29.892C13.237 29.984 13.079 30.03 13.043 30.03C13.011 30.03 12.977 30.002 12.941 29.946C12.909 29.886 12.879 29.814 12.851 29.73C12.823 29.646 12.807 29.602 12.803 29.598C12.743 29.638 12.669 29.688 12.581 29.748C12.493 29.808 12.431 29.85 12.395 29.874C12.363 29.894 12.315 29.92 12.251 29.952C12.191 29.984 12.137 30.006 12.089 30.018C11.977 30.046 11.825 30.06 11.633 30.06C11.445 30.06 11.305 29.984 11.213 29.832C11.121 29.68 11.075 29.514 11.075 29.334C11.075 29.154 11.089 29.01 11.117 28.902C11.145 28.794 11.191 28.704 11.255 28.632C11.319 28.56 11.383 28.5 11.447 28.452C11.511 28.404 11.601 28.364 11.717 28.332C11.837 28.296 11.939 28.27 12.023 28.254C12.111 28.234 12.233 28.21 12.389 28.182C12.545 28.15 12.671 28.124 12.767 28.104L12.773 27.744C12.773 27.56 12.707 27.428 12.575 27.348C12.443 27.268 12.283 27.228 12.095 27.228C11.911 27.228 11.783 27.276 11.711 27.372C11.639 27.464 11.561 27.664 11.477 27.972L11.231 27.948C11.231 27.6 11.291 27.356 11.411 27.216C11.555 27.048 11.711 26.944 11.879 26.904C12.047 26.864 12.217 26.844 12.389 26.844C12.565 26.844 12.715 26.864 12.839 26.904C12.963 26.944 13.055 26.99 13.115 27.042C13.179 27.09 13.227 27.158 13.259 27.246C13.295 27.33 13.315 27.398 13.319 27.45C13.323 27.502 13.325 27.568 13.325 27.648ZM11.615 29.214C11.615 29.51 11.749 29.658 12.017 29.658C12.253 29.658 12.491 29.558 12.731 29.358C12.759 29.334 12.773 29.188 12.773 28.92C12.773 28.652 12.771 28.458 12.767 28.338C12.695 28.362 12.603 28.392 12.491 28.428C12.383 28.464 12.305 28.49 12.257 28.506C12.213 28.522 12.153 28.544 12.077 28.572C12.001 28.596 11.949 28.616 11.921 28.632C11.897 28.648 11.861 28.668 11.813 28.692C11.769 28.716 11.741 28.74 11.729 28.764C11.717 28.784 11.699 28.81 11.675 28.842C11.651 28.87 11.637 28.904 11.633 28.944C11.621 29.056 11.615 29.146 11.615 29.214ZM14.8642 27.828L14.8582 29.454C14.8582 29.578 14.8942 29.66 14.9662 29.7C15.0382 29.736 15.1462 29.764 15.2902 29.784C15.4382 29.804 15.5182 29.814 15.5302 29.814V30H13.8502V29.796C13.9462 29.784 14.0102 29.778 14.0422 29.778C14.0742 29.774 14.1142 29.762 14.1622 29.742C14.2142 29.718 14.2442 29.698 14.2522 29.682C14.2602 29.662 14.2722 29.622 14.2882 29.562C14.3042 29.502 14.3122 29.442 14.3122 29.382V28.908C14.3122 28.104 14.2982 27.632 14.2702 27.492C14.2382 27.336 14.1222 27.258 13.9222 27.258L13.9102 27.03C14.0702 27.014 14.2342 26.976 14.4022 26.916C14.5702 26.856 14.6782 26.826 14.7262 26.826C14.7742 26.826 14.8082 26.85 14.8282 26.898C14.8482 26.942 14.8582 27.024 14.8582 27.144L14.8642 27.372C15.2162 27.032 15.4942 26.862 15.6982 26.862C15.8462 26.862 15.9482 26.88 16.0042 26.916C16.0602 26.952 16.0882 27.018 16.0882 27.114C16.0882 27.146 16.0562 27.362 15.9922 27.762H15.7762C15.7562 27.462 15.6542 27.312 15.4702 27.312C15.3662 27.312 15.2382 27.36 15.0862 27.456C14.9382 27.548 14.8642 27.672 14.8642 27.828ZM18.5808 27.648L18.5568 29.232C18.5568 29.332 18.6008 29.454 18.6888 29.598C18.7808 29.738 18.8268 29.82 18.8268 29.844C18.8268 29.864 18.8088 29.88 18.7728 29.892C18.4928 29.984 18.3348 30.03 18.2988 30.03C18.2668 30.03 18.2328 30.002 18.1968 29.946C18.1648 29.886 18.1348 29.814 18.1068 29.73C18.0788 29.646 18.0628 29.602 18.0588 29.598C17.9988 29.638 17.9248 29.688 17.8368 29.748C17.7488 29.808 17.6868 29.85 17.6508 29.874C17.6188 29.894 17.5708 29.92 17.5068 29.952C17.4468 29.984 17.3928 30.006 17.3448 30.018C17.2328 30.046 17.0808 30.06 16.8888 30.06C16.7008 30.06 16.5608 29.984 16.4688 29.832C16.3768 29.68 16.3308 29.514 16.3308 29.334C16.3308 29.154 16.3448 29.01 16.3728 28.902C16.4008 28.794 16.4468 28.704 16.5108 28.632C16.5748 28.56 16.6388 28.5 16.7028 28.452C16.7668 28.404 16.8568 28.364 16.9728 28.332C17.0928 28.296 17.1948 28.27 17.2788 28.254C17.3668 28.234 17.4888 28.21 17.6448 28.182C17.8008 28.15 17.9268 28.124 18.0228 28.104L18.0288 27.744C18.0288 27.56 17.9628 27.428 17.8308 27.348C17.6988 27.268 17.5388 27.228 17.3508 27.228C17.1668 27.228 17.0388 27.276 16.9668 27.372C16.8948 27.464 16.8168 27.664 16.7328 27.972L16.4868 27.948C16.4868 27.6 16.5468 27.356 16.6668 27.216C16.8108 27.048 16.9668 26.944 17.1348 26.904C17.3028 26.864 17.4728 26.844 17.6448 26.844C17.8208 26.844 17.9708 26.864 18.0948 26.904C18.2188 26.944 18.3108 26.99 18.3708 27.042C18.4348 27.09 18.4828 27.158 18.5148 27.246C18.5508 27.33 18.5708 27.398 18.5748 27.45C18.5788 27.502 18.5808 27.568 18.5808 27.648ZM16.8708 29.214C16.8708 29.51 17.0048 29.658 17.2728 29.658C17.5088 29.658 17.7468 29.558 17.9868 29.358C18.0148 29.334 18.0288 29.188 18.0288 28.92C18.0288 28.652 18.0268 28.458 18.0228 28.338C17.9508 28.362 17.8588 28.392 17.7468 28.428C17.6388 28.464 17.5608 28.49 17.5128 28.506C17.4688 28.522 17.4088 28.544 17.3328 28.572C17.2568 28.596 17.2048 28.616 17.1768 28.632C17.1528 28.648 17.1168 28.668 17.0688 28.692C17.0248 28.716 16.9968 28.74 16.9848 28.764C16.9728 28.784 16.9548 28.81 16.9308 28.842C16.9068 28.87 16.8928 28.904 16.8888 28.944C16.8768 29.056 16.8708 29.146 16.8708 29.214ZM19.0161 30.498C19.0161 30.266 19.1321 30.072 19.3641 29.916C19.4761 29.84 19.6161 29.766 19.7841 29.694C19.4681 29.65 19.3101 29.542 19.3101 29.37C19.3101 29.19 19.4881 29.046 19.8441 28.938C19.6401 28.846 19.4941 28.75 19.4061 28.65C19.3181 28.546 19.2561 28.398 19.2201 28.206C19.2161 28.19 19.2141 28.152 19.2141 28.092C19.2141 27.876 19.2461 27.7 19.3101 27.564C19.3741 27.424 19.5261 27.272 19.7661 27.108C20.0061 26.94 20.2541 26.856 20.5101 26.856C20.7701 26.856 20.9961 26.936 21.1881 27.096C21.3841 27.088 21.5781 27.062 21.7701 27.018L21.8061 27.054V27.306H21.3321C21.3641 27.35 21.3921 27.438 21.4161 27.57C21.4401 27.702 21.4521 27.836 21.4521 27.972C21.4521 28.248 21.3361 28.492 21.1041 28.704C20.8961 28.824 20.6441 28.916 20.3481 28.98C20.0201 29.064 19.8561 29.178 19.8561 29.322C19.8561 29.378 19.8801 29.426 19.9281 29.466C19.9761 29.506 20.0381 29.526 20.1141 29.526H20.8281C21.0921 29.526 21.2741 29.546 21.3741 29.586C21.4741 29.626 21.5701 29.706 21.6621 29.826C21.7581 29.946 21.8061 30.068 21.8061 30.192C21.8061 30.32 21.7781 30.438 21.7221 30.546C21.6661 30.658 21.5801 30.766 21.4641 30.87C21.3521 30.974 21.1901 31.058 20.9781 31.122C20.7661 31.19 20.5581 31.224 20.3541 31.224C20.1501 31.224 19.9821 31.212 19.8501 31.188C19.7221 31.168 19.5921 31.132 19.4601 31.08C19.3281 31.032 19.2201 30.956 19.1361 30.852C19.0561 30.752 19.0161 30.634 19.0161 30.498ZM19.5321 30.324C19.5321 30.508 19.6201 30.664 19.7961 30.792C19.9721 30.924 20.1561 30.99 20.3481 30.99C20.6441 30.99 20.8641 30.924 21.0081 30.792C21.1561 30.66 21.2301 30.488 21.2301 30.276C21.2301 29.972 20.9961 29.82 20.5281 29.82C19.8641 29.82 19.5321 29.988 19.5321 30.324ZM19.7661 28.056C19.7661 28.24 19.8181 28.39 19.9221 28.506C20.0261 28.622 20.1761 28.68 20.3721 28.68C20.5681 28.68 20.7021 28.628 20.7741 28.524C20.8461 28.42 20.8821 28.232 20.8821 27.96C20.8821 27.684 20.8421 27.5 20.7621 27.408C20.6821 27.316 20.5261 27.256 20.2941 27.228C20.2741 27.224 20.2461 27.222 20.2101 27.222C20.0621 27.222 19.9501 27.284 19.8741 27.408C19.8021 27.528 19.7661 27.744 19.7661 28.056ZM22.9677 27.828L22.9617 29.454C22.9617 29.578 22.9977 29.66 23.0697 29.7C23.1417 29.736 23.2497 29.764 23.3937 29.784C23.5417 29.804 23.6217 29.814 23.6337 29.814V30H21.9537V29.796C22.0497 29.784 22.1137 29.778 22.1457 29.778C22.1777 29.774 22.2177 29.762 22.2657 29.742C22.3177 29.718 22.3477 29.698 22.3557 29.682C22.3637 29.662 22.3757 29.622 22.3917 29.562C22.4077 29.502 22.4157 29.442 22.4157 29.382V28.908C22.4157 28.104 22.4017 27.632 22.3737 27.492C22.3417 27.336 22.2257 27.258 22.0257 27.258L22.0137 27.03C22.1737 27.014 22.3377 26.976 22.5057 26.916C22.6737 26.856 22.7817 26.826 22.8297 26.826C22.8777 26.826 22.9117 26.85 22.9317 26.898C22.9517 26.942 22.9617 27.024 22.9617 27.144L22.9677 27.372C23.3197 27.032 23.5977 26.862 23.8017 26.862C23.9497 26.862 24.0517 26.88 24.1077 26.916C24.1637 26.952 24.1917 27.018 24.1917 27.114C24.1917 27.146 24.1597 27.362 24.0957 27.762H23.8797C23.8597 27.462 23.7577 27.312 23.5737 27.312C23.4697 27.312 23.3417 27.36 23.1897 27.456C23.0417 27.548 22.9677 27.672 22.9677 27.828ZM26.6843 27.648L26.6603 29.232C26.6603 29.332 26.7043 29.454 26.7923 29.598C26.8843 29.738 26.9303 29.82 26.9303 29.844C26.9303 29.864 26.9123 29.88 26.8763 29.892C26.5963 29.984 26.4383 30.03 26.4023 30.03C26.3703 30.03 26.3363 30.002 26.3003 29.946C26.2683 29.886 26.2383 29.814 26.2103 29.73C26.1823 29.646 26.1663 29.602 26.1623 29.598C26.1023 29.638 26.0283 29.688 25.9403 29.748C25.8523 29.808 25.7903 29.85 25.7543 29.874C25.7223 29.894 25.6743 29.92 25.6103 29.952C25.5503 29.984 25.4963 30.006 25.4483 30.018C25.3363 30.046 25.1843 30.06 24.9923 30.06C24.8043 30.06 24.6643 29.984 24.5723 29.832C24.4803 29.68 24.4343 29.514 24.4343 29.334C24.4343 29.154 24.4483 29.01 24.4763 28.902C24.5043 28.794 24.5503 28.704 24.6143 28.632C24.6783 28.56 24.7423 28.5 24.8063 28.452C24.8703 28.404 24.9603 28.364 25.0763 28.332C25.1963 28.296 25.2983 28.27 25.3823 28.254C25.4703 28.234 25.5923 28.21 25.7483 28.182C25.9043 28.15 26.0303 28.124 26.1263 28.104L26.1323 27.744C26.1323 27.56 26.0663 27.428 25.9343 27.348C25.8023 27.268 25.6423 27.228 25.4543 27.228C25.2703 27.228 25.1423 27.276 25.0703 27.372C24.9983 27.464 24.9203 27.664 24.8363 27.972L24.5903 27.948C24.5903 27.6 24.6503 27.356 24.7703 27.216C24.9143 27.048 25.0703 26.944 25.2383 26.904C25.4063 26.864 25.5763 26.844 25.7483 26.844C25.9243 26.844 26.0743 26.864 26.1983 26.904C26.3223 26.944 26.4143 26.99 26.4743 27.042C26.5383 27.09 26.5863 27.158 26.6183 27.246C26.6543 27.33 26.6743 27.398 26.6783 27.45C26.6823 27.502 26.6843 27.568 26.6843 27.648ZM24.9743 29.214C24.9743 29.51 25.1083 29.658 25.3763 29.658C25.6123 29.658 25.8503 29.558 26.0903 29.358C26.1183 29.334 26.1323 29.188 26.1323 28.92C26.1323 28.652 26.1303 28.458 26.1263 28.338C26.0543 28.362 25.9623 28.392 25.8503 28.428C25.7423 28.464 25.6643 28.49 25.6163 28.506C25.5723 28.522 25.5123 28.544 25.4363 28.572C25.3603 28.596 25.3083 28.616 25.2803 28.632C25.2563 28.648 25.2203 28.668 25.1723 28.692C25.1283 28.716 25.1003 28.74 25.0883 28.764C25.0763 28.784 25.0583 28.81 25.0343 28.842C25.0103 28.87 24.9963 28.904 24.9923 28.944C24.9803 29.056 24.9743 29.146 24.9743 29.214ZM28.1936 29.658C28.1776 30.154 28.1696 30.474 28.1696 30.618C28.1736 30.762 28.1956 30.856 28.2356 30.9C28.2756 30.948 28.3736 30.986 28.5296 31.014V31.218H27.3056V31.026C27.4336 31.01 27.5236 30.982 27.5756 30.942C27.6276 30.902 27.6536 30.844 27.6536 30.768C27.6496 30.392 27.6476 29.306 27.6476 27.51C27.6476 27.366 27.6256 27.276 27.5816 27.24C27.5416 27.204 27.4316 27.186 27.2516 27.186L27.2396 26.988C27.5516 26.96 27.7756 26.93 27.9116 26.898C28.0516 26.862 28.1276 26.844 28.1396 26.844C28.2116 26.844 28.2476 26.876 28.2476 26.94C28.2476 26.944 28.2436 26.996 28.2356 27.096C28.2316 27.192 28.2296 27.252 28.2296 27.276C28.2616 27.26 28.3396 27.21 28.4636 27.126C28.7476 26.938 28.9996 26.844 29.2196 26.844C29.3356 26.844 29.4576 26.876 29.5856 26.94C29.7136 27.004 29.8196 27.08 29.9036 27.168C29.9876 27.252 30.0616 27.384 30.1256 27.564C30.1936 27.744 30.2276 27.952 30.2276 28.188C30.2276 28.764 30.1076 29.216 29.8676 29.544C29.6316 29.872 29.3276 30.036 28.9556 30.036C28.7716 30.036 28.6416 30.022 28.5656 29.994C28.4896 29.962 28.4336 29.936 28.3976 29.916C28.3616 29.896 28.3316 29.872 28.3076 29.844C28.2836 29.812 28.2656 29.788 28.2536 29.772C28.2416 29.752 28.2296 29.73 28.2176 29.706C28.2056 29.678 28.1976 29.662 28.1936 29.658ZM28.2236 27.528L28.1936 28.644C28.1936 29.064 28.2356 29.354 28.3196 29.514C28.4076 29.67 28.5716 29.748 28.8116 29.748C29.0516 29.748 29.2516 29.636 29.4116 29.412C29.5716 29.184 29.6516 28.836 29.6516 28.368C29.6516 27.66 29.4216 27.306 28.9616 27.306C28.7576 27.306 28.5116 27.38 28.2236 27.528ZM30.8699 29.544L30.8759 26.736C30.8759 26.156 30.8559 25.816 30.8159 25.716C30.7759 25.612 30.6499 25.56 30.4379 25.56L30.4259 25.362C30.7219 25.334 30.9419 25.304 31.0859 25.272C31.2339 25.236 31.3139 25.218 31.3259 25.218C31.3939 25.218 31.4279 25.248 31.4279 25.308L31.4219 25.698L31.4159 27.246C31.8799 26.986 32.2559 26.856 32.5439 26.856C32.8359 26.856 33.0259 26.952 33.1139 27.144C33.2019 27.332 33.2459 27.642 33.2459 28.074L33.2279 29.346C33.2279 29.538 33.2419 29.658 33.2699 29.706C33.3019 29.75 33.3899 29.78 33.5339 29.796V30H32.3939V29.796C32.5379 29.764 32.6239 29.72 32.6519 29.664C32.6799 29.608 32.6939 29.458 32.6939 29.214V28.14C32.6939 27.78 32.6659 27.55 32.6099 27.45C32.5579 27.346 32.4319 27.294 32.2319 27.294C32.1119 27.294 31.9659 27.32 31.7939 27.372C31.6259 27.424 31.4999 27.478 31.4159 27.534C31.4039 27.998 31.3979 28.578 31.3979 29.274C31.3979 29.498 31.4139 29.64 31.4459 29.7C31.4819 29.756 31.5799 29.788 31.7399 29.796V30H30.5159V29.796C30.6479 29.788 30.7399 29.764 30.7919 29.724C30.8439 29.684 30.8699 29.624 30.8699 29.544Z" fill="#12B76A"/>
<path d="M12.8968 16.53L13.0368 15.83L17.6368 13.78L17.7568 13.89L17.6368 14.5L13.7968 16.21L17.6368 17.92L17.7568 18.53L17.6368 18.64L12.8968 16.53ZM19.6214 18.43C19.5948 19.2567 19.5814 19.79 19.5814 20.03C19.5881 20.27 19.6248 20.4267 19.6914 20.5C19.7581 20.58 19.9214 20.6433 20.1814 20.69V21.03H18.1414V20.71C18.3548 20.6833 18.5048 20.6367 18.5914 20.57C18.6781 20.5033 18.7214 20.4067 18.7214 20.28C18.7148 19.6533 18.7114 17.8433 18.7114 14.85C18.7114 14.61 18.6748 14.46 18.6014 14.4C18.5348 14.34 18.3514 14.31 18.0514 14.31L18.0314 13.98C18.5514 13.9333 18.9248 13.8833 19.1514 13.83C19.3848 13.77 19.5114 13.74 19.5314 13.74C19.6514 13.74 19.7114 13.7933 19.7114 13.9C19.7114 13.9067 19.7048 13.9933 19.6914 14.16C19.6848 14.32 19.6814 14.42 19.6814 14.46C19.7348 14.4333 19.8648 14.35 20.0714 14.21C20.5448 13.8967 20.9648 13.74 21.3314 13.74C21.5248 13.74 21.7281 13.7933 21.9414 13.9C22.1548 14.0067 22.3314 14.1333 22.4714 14.28C22.6114 14.42 22.7348 14.64 22.8414 14.94C22.9548 15.24 23.0114 15.5867 23.0114 15.98C23.0114 16.94 22.8114 17.6933 22.4114 18.24C22.0181 18.7867 21.5114 19.06 20.8914 19.06C20.5848 19.06 20.3681 19.0367 20.2414 18.99C20.1148 18.9367 20.0214 18.8933 19.9614 18.86C19.9014 18.8267 19.8514 18.7867 19.8114 18.74C19.7714 18.6867 19.7414 18.6467 19.7214 18.62C19.7014 18.5867 19.6814 18.55 19.6614 18.51C19.6414 18.4633 19.6281 18.4367 19.6214 18.43ZM19.6714 14.88L19.6214 16.74C19.6214 17.44 19.6914 17.9233 19.8314 18.19C19.9781 18.45 20.2514 18.58 20.6514 18.58C21.0514 18.58 21.3848 18.3933 21.6514 18.02C21.9181 17.64 22.0514 17.06 22.0514 16.28C22.0514 15.1 21.6681 14.51 20.9014 14.51C20.5614 14.51 20.1514 14.6333 19.6714 14.88ZM23.2386 18.53L23.3586 17.92L27.1986 16.21L23.3586 14.5L23.2386 13.89L23.3586 13.78L28.0986 15.89L27.9586 16.59L23.3586 18.64L23.2386 18.53Z" fill="#12B76A"/>
</svg>
