<svg width="40" height="40" viewBox="0 0 40 40" fill="none" xmlns="http://www.w3.org/2000/svg">
<rect x="0.5" y="0.5" width="39" height="39" fill="white" stroke="#12B76A"/>
<path d="M4.5 12.25H4.25V12.5V18.5V18.75H4.5H35.5H35.75V18.5V12.5V12.25H35.5H4.5Z" fill="white" stroke="#12B76A" stroke-width="0.5"/>
<path d="M8.54375 15.784L8.63175 15.468L8.68775 15.436L9.32775 15.744L9.17575 15.004L9.50375 14.996L9.55175 15.036L9.45975 15.74L10.1118 15.364L10.2238 15.676L10.1998 15.736L9.49975 15.86L10.0598 16.368L9.79975 16.572L9.73575 16.564L9.39975 15.94L9.08775 16.628L8.81575 16.444L8.80375 16.38L9.29175 15.868L8.54375 15.784ZM10.6219 15.784L10.7099 15.468L10.7659 15.436L11.4059 15.744L11.2539 15.004L11.5819 14.996L11.6299 15.036L11.5379 15.74L12.1899 15.364L12.3019 15.676L12.2779 15.736L11.5779 15.86L12.1379 16.368L11.8779 16.572L11.8139 16.564L11.4779 15.94L11.1659 16.628L10.8939 16.444L10.8819 16.38L11.3699 15.868L10.6219 15.784ZM12.7 15.784L12.788 15.468L12.844 15.436L13.484 15.744L13.332 15.004L13.66 14.996L13.708 15.036L13.616 15.74L14.268 15.364L14.38 15.676L14.356 15.736L13.656 15.86L14.216 16.368L13.956 16.572L13.892 16.564L13.556 15.94L13.244 16.628L12.972 16.444L12.96 16.38L13.448 15.868L12.7 15.784ZM14.7781 15.784L14.8661 15.468L14.9221 15.436L15.5621 15.744L15.4101 15.004L15.7381 14.996L15.7861 15.036L15.6941 15.74L16.3461 15.364L16.4581 15.676L16.4341 15.736L15.7341 15.86L16.2941 16.368L16.0341 16.572L15.9701 16.564L15.6341 15.94L15.3221 16.628L15.0501 16.444L15.0381 16.38L15.5261 15.868L14.7781 15.784Z" fill="#12B76A"/>
<path d="M8.57754 27.972L8.56554 29.502C8.56554 29.61 8.63754 29.68 8.78154 29.712C8.90154 29.744 9.04954 29.766 9.22554 29.778L9.45354 29.796V30H7.40154V29.778C7.52154 29.77 7.61354 29.76 7.67754 29.748C7.74154 29.736 7.80154 29.71 7.85754 29.67C7.91354 29.63 7.94154 29.574 7.94154 29.502C7.95354 29.094 7.95954 28.516 7.95954 27.768C7.95954 27.02 7.95354 26.442 7.94154 26.034C7.93754 25.946 7.90554 25.888 7.84554 25.86C7.78954 25.828 7.68354 25.808 7.52754 25.8L7.44354 25.794V25.572C7.66754 25.588 7.95154 25.596 8.29554 25.596C8.64354 25.596 8.91754 25.586 9.11754 25.566C9.32154 25.546 9.44354 25.536 9.48354 25.536H9.60354C9.83954 25.536 10.0415 25.572 10.2095 25.644C10.3815 25.712 10.5115 25.808 10.5995 25.932C10.7595 26.16 10.8395 26.434 10.8395 26.754C10.8395 26.97 10.7595 27.192 10.5995 27.42C10.2875 27.852 9.82754 28.068 9.21954 28.068C8.93554 28.068 8.72154 28.036 8.57754 27.972ZM8.58354 27.588C8.71954 27.708 8.94954 27.768 9.27354 27.768C9.43754 27.768 9.57954 27.746 9.69954 27.702C9.81954 27.654 9.90754 27.6 9.96354 27.54C10.0235 27.48 10.0695 27.404 10.1015 27.312C10.1455 27.18 10.1675 27.044 10.1675 26.904C10.1675 26.764 10.1635 26.66 10.1555 26.592C10.1515 26.524 10.1355 26.44 10.1075 26.34C10.0595 26.14 9.92554 25.988 9.70554 25.884C9.62554 25.848 9.56754 25.83 9.53154 25.83C9.10354 25.83 8.81954 25.854 8.67954 25.902L8.61354 25.968C8.60154 26.292 8.59154 26.832 8.58354 27.588ZM13.239 27.648L13.215 29.232C13.215 29.332 13.259 29.454 13.347 29.598C13.439 29.738 13.485 29.82 13.485 29.844C13.485 29.864 13.467 29.88 13.431 29.892C13.151 29.984 12.993 30.03 12.957 30.03C12.925 30.03 12.891 30.002 12.855 29.946C12.823 29.886 12.793 29.814 12.765 29.73C12.737 29.646 12.721 29.602 12.717 29.598C12.657 29.638 12.583 29.688 12.495 29.748C12.407 29.808 12.345 29.85 12.309 29.874C12.277 29.894 12.229 29.92 12.165 29.952C12.105 29.984 12.051 30.006 12.003 30.018C11.891 30.046 11.739 30.06 11.547 30.06C11.359 30.06 11.219 29.984 11.127 29.832C11.035 29.68 10.989 29.514 10.989 29.334C10.989 29.154 11.003 29.01 11.031 28.902C11.059 28.794 11.105 28.704 11.169 28.632C11.233 28.56 11.297 28.5 11.361 28.452C11.425 28.404 11.515 28.364 11.631 28.332C11.751 28.296 11.853 28.27 11.937 28.254C12.025 28.234 12.147 28.21 12.303 28.182C12.459 28.15 12.585 28.124 12.681 28.104L12.687 27.744C12.687 27.56 12.621 27.428 12.489 27.348C12.357 27.268 12.197 27.228 12.009 27.228C11.825 27.228 11.697 27.276 11.625 27.372C11.553 27.464 11.475 27.664 11.391 27.972L11.145 27.948C11.145 27.6 11.205 27.356 11.325 27.216C11.469 27.048 11.625 26.944 11.793 26.904C11.961 26.864 12.131 26.844 12.303 26.844C12.479 26.844 12.629 26.864 12.753 26.904C12.877 26.944 12.969 26.99 13.029 27.042C13.093 27.09 13.141 27.158 13.173 27.246C13.209 27.33 13.229 27.398 13.233 27.45C13.237 27.502 13.239 27.568 13.239 27.648ZM11.529 29.214C11.529 29.51 11.663 29.658 11.931 29.658C12.167 29.658 12.405 29.558 12.645 29.358C12.673 29.334 12.687 29.188 12.687 28.92C12.687 28.652 12.685 28.458 12.681 28.338C12.609 28.362 12.517 28.392 12.405 28.428C12.297 28.464 12.219 28.49 12.171 28.506C12.127 28.522 12.067 28.544 11.991 28.572C11.915 28.596 11.863 28.616 11.835 28.632C11.811 28.648 11.775 28.668 11.727 28.692C11.683 28.716 11.655 28.74 11.643 28.764C11.631 28.784 11.613 28.81 11.589 28.842C11.565 28.87 11.551 28.904 11.547 28.944C11.535 29.056 11.529 29.146 11.529 29.214ZM14.4063 28.608C14.2623 28.552 14.1383 28.462 14.0343 28.338C13.9343 28.214 13.8843 28.054 13.8843 27.858C13.8843 27.662 13.9183 27.512 13.9863 27.408C14.1303 27.176 14.2663 27.026 14.3943 26.958C14.5223 26.886 14.6863 26.85 14.8863 26.85C15.0863 26.85 15.2663 26.884 15.4263 26.952C15.4703 26.968 15.5023 26.984 15.5223 27C15.5943 27.044 15.6303 27.126 15.6303 27.246C15.6303 27.258 15.6283 27.288 15.6243 27.336C15.6163 27.44 15.6123 27.606 15.6123 27.834H15.3903C15.3863 27.782 15.3683 27.706 15.3363 27.606C15.3083 27.506 15.2763 27.43 15.2403 27.378C15.1603 27.262 15.0103 27.204 14.7903 27.204C14.5783 27.204 14.4383 27.256 14.3703 27.36C14.3143 27.444 14.2863 27.538 14.2863 27.642C14.2863 27.742 14.3363 27.832 14.4363 27.912C14.5363 27.988 14.6583 28.05 14.8023 28.098C14.9463 28.146 15.0903 28.2 15.2343 28.26C15.3823 28.316 15.5063 28.412 15.6063 28.548C15.7063 28.68 15.7563 28.85 15.7563 29.058C15.7563 29.266 15.7263 29.42 15.6663 29.52C15.5583 29.692 15.4303 29.836 15.2823 29.952C15.2223 29.996 15.1283 30.032 15.0003 30.06C14.8723 30.088 14.7763 30.102 14.7123 30.102C14.2843 30.102 14.0283 30.03 13.9443 29.886C13.9123 29.834 13.8963 29.766 13.8963 29.682C13.8963 29.358 13.9043 29.16 13.9203 29.088C13.9403 29.012 13.9823 28.974 14.0463 28.974C14.1143 28.974 14.1563 29.002 14.1723 29.058C14.1883 29.114 14.2023 29.192 14.2143 29.292C14.2583 29.576 14.4543 29.718 14.8023 29.718C14.9783 29.718 15.1163 29.678 15.2163 29.598C15.3163 29.518 15.3663 29.41 15.3663 29.274C15.3663 29.134 15.3143 29.024 15.2103 28.944C15.1103 28.864 14.9863 28.802 14.8383 28.758C14.6943 28.71 14.5503 28.66 14.4063 28.608ZM16.7266 28.608C16.5826 28.552 16.4586 28.462 16.3546 28.338C16.2546 28.214 16.2046 28.054 16.2046 27.858C16.2046 27.662 16.2386 27.512 16.3066 27.408C16.4506 27.176 16.5866 27.026 16.7146 26.958C16.8426 26.886 17.0066 26.85 17.2066 26.85C17.4066 26.85 17.5866 26.884 17.7466 26.952C17.7906 26.968 17.8226 26.984 17.8426 27C17.9146 27.044 17.9506 27.126 17.9506 27.246C17.9506 27.258 17.9486 27.288 17.9446 27.336C17.9366 27.44 17.9326 27.606 17.9326 27.834H17.7106C17.7066 27.782 17.6886 27.706 17.6566 27.606C17.6286 27.506 17.5966 27.43 17.5606 27.378C17.4806 27.262 17.3306 27.204 17.1106 27.204C16.8986 27.204 16.7586 27.256 16.6906 27.36C16.6346 27.444 16.6066 27.538 16.6066 27.642C16.6066 27.742 16.6566 27.832 16.7566 27.912C16.8566 27.988 16.9786 28.05 17.1226 28.098C17.2666 28.146 17.4106 28.2 17.5546 28.26C17.7026 28.316 17.8266 28.412 17.9266 28.548C18.0266 28.68 18.0766 28.85 18.0766 29.058C18.0766 29.266 18.0466 29.42 17.9866 29.52C17.8786 29.692 17.7506 29.836 17.6026 29.952C17.5426 29.996 17.4486 30.032 17.3206 30.06C17.1926 30.088 17.0966 30.102 17.0326 30.102C16.6046 30.102 16.3486 30.03 16.2646 29.886C16.2326 29.834 16.2166 29.766 16.2166 29.682C16.2166 29.358 16.2246 29.16 16.2406 29.088C16.2606 29.012 16.3026 28.974 16.3666 28.974C16.4346 28.974 16.4766 29.002 16.4926 29.058C16.5086 29.114 16.5226 29.192 16.5346 29.292C16.5786 29.576 16.7746 29.718 17.1226 29.718C17.2986 29.718 17.4366 29.678 17.5366 29.598C17.6366 29.518 17.6866 29.41 17.6866 29.274C17.6866 29.134 17.6346 29.024 17.5306 28.944C17.4306 28.864 17.3066 28.802 17.1586 28.758C17.0146 28.71 16.8706 28.66 16.7266 28.608ZM22.5809 26.946L23.0369 26.922C23.0929 26.922 23.1209 26.952 23.1209 27.012C23.1209 27.028 23.1129 27.044 23.0969 27.06C23.0849 27.076 23.0589 27.112 23.0189 27.168C22.9789 27.22 22.9309 27.292 22.8749 27.384C22.6469 27.78 22.3689 28.426 22.0409 29.322C21.9009 29.71 21.8149 29.926 21.7829 29.97C21.7549 30.014 21.7289 30.044 21.7049 30.06C21.6689 30.08 21.6109 30.09 21.5309 30.09C21.4549 30.09 21.3969 30.056 21.3569 29.988C21.3209 29.916 21.2669 29.762 21.1949 29.526C21.1269 29.286 21.0749 29.108 21.0389 28.992C21.0029 28.876 20.9489 28.694 20.8769 28.446C20.8089 28.194 20.7629 28.026 20.7389 27.942L20.4809 28.554C20.2849 29.054 20.1669 29.36 20.1269 29.472C20.0909 29.58 20.0629 29.66 20.0429 29.712C20.0229 29.76 20.0029 29.808 19.9829 29.856C19.9629 29.9 19.9449 29.934 19.9289 29.958C19.9129 29.982 19.8969 30.004 19.8809 30.024C19.8689 30.044 19.8529 30.058 19.8329 30.066C19.7929 30.082 19.7369 30.09 19.6649 30.09C19.5929 30.09 19.5389 30.058 19.5029 29.994C19.4669 29.926 19.4129 29.774 19.3409 29.538C19.2729 29.302 19.2229 29.13 19.1909 29.022C19.1589 28.914 19.1189 28.776 19.0709 28.608C19.0229 28.436 18.9809 28.292 18.9449 28.176C18.9129 28.06 18.8769 27.938 18.8369 27.81C18.7249 27.454 18.6109 27.258 18.4949 27.222C18.4549 27.21 18.4109 27.204 18.3629 27.204C18.3149 27.2 18.2829 27.196 18.2669 27.192L18.2549 26.994C18.5269 26.958 18.7329 26.922 18.8729 26.886C19.0129 26.846 19.0909 26.826 19.1069 26.826C19.1789 26.826 19.2149 26.856 19.2149 26.916C19.2149 27.032 19.3709 27.66 19.6829 28.8L19.8449 29.37C20.2649 28.254 20.4749 27.576 20.4749 27.336C20.4749 27.288 20.4589 27.23 20.4269 27.162C20.3949 27.094 20.3789 27.05 20.3789 27.03C20.3789 26.958 20.5269 26.922 20.8229 26.922C20.8869 26.922 20.9309 26.926 20.9549 26.934C20.9789 26.938 20.9969 26.942 21.0089 26.946C21.0249 26.946 21.0369 26.95 21.0449 26.958C21.0529 26.966 21.0589 26.972 21.0629 26.976C21.0789 26.98 21.0869 26.992 21.0869 27.012C21.1069 27.18 21.2689 27.812 21.5729 28.908L21.6989 29.37C22.1229 28.25 22.3349 27.568 22.3349 27.324C22.3349 27.256 22.3229 27.21 22.2989 27.186C22.2789 27.158 22.2549 27.144 22.2269 27.144C22.1549 27.152 22.1189 27.12 22.1189 27.048C22.1189 26.972 22.1869 26.934 22.3229 26.934L22.5809 26.946ZM23.5922 29.646C23.5082 29.53 23.4382 29.37 23.3822 29.166C23.3262 28.958 23.2982 28.698 23.2982 28.386C23.2982 28.07 23.3802 27.778 23.5442 27.51C23.6522 27.342 23.8402 27.19 24.1082 27.054C24.3762 26.914 24.5982 26.844 24.7742 26.844C25.1302 26.844 25.4342 26.958 25.6862 27.186C25.9382 27.414 26.0642 27.77 26.0642 28.254C26.0642 28.734 25.9762 29.108 25.8002 29.376C25.5642 29.692 25.3342 29.9 25.1102 30C24.9582 30.068 24.8002 30.102 24.6362 30.102C24.4722 30.102 24.3382 30.09 24.2342 30.066C24.1302 30.046 24.0182 30 23.8982 29.928C23.7822 29.856 23.6802 29.762 23.5922 29.646ZM23.8682 28.464C23.8682 28.896 23.9502 29.206 24.1142 29.394C24.2822 29.582 24.5242 29.676 24.8402 29.676C24.9602 29.676 25.0482 29.666 25.1042 29.646C25.3802 29.538 25.5182 29.122 25.5182 28.398C25.5182 28.058 25.4722 27.81 25.3802 27.654C25.2922 27.494 25.1382 27.38 24.9182 27.312C24.8062 27.284 24.7042 27.27 24.6122 27.27C24.5202 27.27 24.4522 27.272 24.4082 27.276C24.3682 27.28 24.3142 27.292 24.2462 27.312C24.1782 27.332 24.1262 27.366 24.0902 27.414C24.0542 27.458 24.0162 27.52 23.9762 27.6C23.9042 27.744 23.8682 28.032 23.8682 28.464ZM27.3818 27.828L27.3758 29.454C27.3758 29.578 27.4118 29.66 27.4838 29.7C27.5558 29.736 27.6638 29.764 27.8078 29.784C27.9558 29.804 28.0358 29.814 28.0478 29.814V30H26.3678V29.796C26.4638 29.784 26.5278 29.778 26.5598 29.778C26.5918 29.774 26.6318 29.762 26.6798 29.742C26.7318 29.718 26.7618 29.698 26.7698 29.682C26.7778 29.662 26.7898 29.622 26.8058 29.562C26.8218 29.502 26.8298 29.442 26.8298 29.382V28.908C26.8298 28.104 26.8158 27.632 26.7878 27.492C26.7558 27.336 26.6398 27.258 26.4398 27.258L26.4278 27.03C26.5878 27.014 26.7518 26.976 26.9198 26.916C27.0878 26.856 27.1958 26.826 27.2438 26.826C27.2918 26.826 27.3258 26.85 27.3458 26.898C27.3658 26.942 27.3758 27.024 27.3758 27.144L27.3818 27.372C27.7338 27.032 28.0118 26.862 28.2158 26.862C28.3638 26.862 28.4658 26.88 28.5218 26.916C28.5778 26.952 28.6058 27.018 28.6058 27.114C28.6058 27.146 28.5738 27.362 28.5098 27.762H28.2938C28.2738 27.462 28.1718 27.312 27.9878 27.312C27.8838 27.312 27.7558 27.36 27.6038 27.456C27.4558 27.548 27.3818 27.672 27.3818 27.828ZM30.7504 26.916L30.7384 26.016C30.7384 25.888 30.7364 25.8 30.7324 25.752C30.7324 25.7 30.7124 25.656 30.6724 25.62C30.6364 25.584 30.5984 25.566 30.5584 25.566C30.5224 25.562 30.4424 25.558 30.3184 25.554L30.3064 25.356C30.6104 25.328 30.8344 25.298 30.9784 25.266C31.1224 25.23 31.2004 25.212 31.2124 25.212C31.2804 25.212 31.3144 25.244 31.3144 25.308C31.3144 26.168 31.3064 26.994 31.2904 27.786C31.2784 28.574 31.2724 29.038 31.2724 29.178C31.2724 29.314 31.3224 29.458 31.4224 29.61C31.5264 29.762 31.5784 29.842 31.5784 29.85C31.5784 29.858 31.5604 29.87 31.5244 29.886C31.4924 29.898 31.4504 29.912 31.3984 29.928C31.3464 29.944 31.2784 29.97 31.1944 30.006C31.1144 30.042 31.0584 30.06 31.0264 30.06C30.9944 30.06 30.9624 30.028 30.9304 29.964C30.8984 29.896 30.8664 29.822 30.8344 29.742C30.8064 29.662 30.7824 29.612 30.7624 29.592C30.4624 29.924 30.1964 30.09 29.9644 30.09C29.7644 30.09 29.5324 29.98 29.2684 29.76C29.1324 29.652 29.0184 29.492 28.9264 29.28C28.8344 29.068 28.7884 28.838 28.7884 28.59C28.7884 28.342 28.8004 28.136 28.8244 27.972C28.8484 27.808 28.8744 27.682 28.9024 27.594C28.9304 27.502 28.9724 27.42 29.0284 27.348C29.0884 27.276 29.1324 27.228 29.1604 27.204C29.1924 27.18 29.2424 27.148 29.3104 27.108L29.5144 26.988C29.6864 26.884 29.8744 26.832 30.0784 26.832C30.2864 26.832 30.5104 26.86 30.7504 26.916ZM29.3164 28.254C29.3164 28.714 29.3944 29.05 29.5504 29.262C29.7104 29.47 29.9044 29.574 30.1324 29.574C30.3604 29.574 30.5684 29.484 30.7564 29.304C30.7564 28.604 30.7524 28.108 30.7444 27.816C30.7404 27.52 30.7384 27.364 30.7384 27.348C30.5504 27.236 30.3144 27.18 30.0304 27.18C29.9104 27.18 29.8124 27.192 29.7364 27.216C29.6644 27.236 29.5924 27.284 29.5204 27.36C29.3844 27.496 29.3164 27.794 29.3164 28.254Z" fill="#12B76A"/>
</svg>
