<svg width="40" height="40" viewBox="0 0 40 40" fill="none" xmlns="http://www.w3.org/2000/svg">
<rect x="0.5" y="0.5" width="39" height="39" fill="white" stroke="#12B76A"/>
<path d="M15.3477 28.608C15.2037 28.552 15.0797 28.462 14.9757 28.338C14.8757 28.214 14.8257 28.054 14.8257 27.858C14.8257 27.662 14.8597 27.512 14.9277 27.408C15.0717 27.176 15.2077 27.026 15.3357 26.958C15.4637 26.886 15.6277 26.85 15.8277 26.85C16.0277 26.85 16.2077 26.884 16.3677 26.952C16.4117 26.968 16.4437 26.984 16.4637 27C16.5357 27.044 16.5717 27.126 16.5717 27.246C16.5717 27.258 16.5697 27.288 16.5657 27.336C16.5577 27.44 16.5537 27.606 16.5537 27.834H16.3317C16.3277 27.782 16.3097 27.706 16.2777 27.606C16.2497 27.506 16.2177 27.43 16.1817 27.378C16.1017 27.262 15.9517 27.204 15.7317 27.204C15.5197 27.204 15.3797 27.256 15.3117 27.36C15.2557 27.444 15.2277 27.538 15.2277 27.642C15.2277 27.742 15.2777 27.832 15.3777 27.912C15.4777 27.988 15.5997 28.05 15.7437 28.098C15.8877 28.146 16.0317 28.2 16.1757 28.26C16.3237 28.316 16.4477 28.412 16.5477 28.548C16.6477 28.68 16.6977 28.85 16.6977 29.058C16.6977 29.266 16.6677 29.42 16.6077 29.52C16.4997 29.692 16.3717 29.836 16.2237 29.952C16.1637 29.996 16.0697 30.032 15.9417 30.06C15.8137 30.088 15.7177 30.102 15.6537 30.102C15.2257 30.102 14.9697 30.03 14.8857 29.886C14.8537 29.834 14.8377 29.766 14.8377 29.682C14.8377 29.358 14.8457 29.16 14.8617 29.088C14.8817 29.012 14.9237 28.974 14.9877 28.974C15.0557 28.974 15.0977 29.002 15.1137 29.058C15.1297 29.114 15.1437 29.192 15.1557 29.292C15.1997 29.576 15.3957 29.718 15.7437 29.718C15.9197 29.718 16.0577 29.678 16.1577 29.598C16.2577 29.518 16.3077 29.41 16.3077 29.274C16.3077 29.134 16.2557 29.024 16.1517 28.944C16.0517 28.864 15.9277 28.802 15.7797 28.758C15.6357 28.71 15.4917 28.66 15.3477 28.608ZM18.01 29.658C17.994 30.154 17.986 30.474 17.986 30.618C17.99 30.762 18.012 30.856 18.052 30.9C18.092 30.948 18.19 30.986 18.346 31.014V31.218H17.122V31.026C17.25 31.01 17.34 30.982 17.392 30.942C17.444 30.902 17.47 30.844 17.47 30.768C17.466 30.392 17.464 29.306 17.464 27.51C17.464 27.366 17.442 27.276 17.398 27.24C17.358 27.204 17.248 27.186 17.068 27.186L17.056 26.988C17.368 26.96 17.592 26.93 17.728 26.898C17.868 26.862 17.944 26.844 17.956 26.844C18.028 26.844 18.064 26.876 18.064 26.94C18.064 26.944 18.06 26.996 18.052 27.096C18.048 27.192 18.046 27.252 18.046 27.276C18.078 27.26 18.156 27.21 18.28 27.126C18.564 26.938 18.816 26.844 19.036 26.844C19.152 26.844 19.274 26.876 19.402 26.94C19.53 27.004 19.636 27.08 19.72 27.168C19.804 27.252 19.878 27.384 19.942 27.564C20.01 27.744 20.044 27.952 20.044 28.188C20.044 28.764 19.924 29.216 19.684 29.544C19.448 29.872 19.144 30.036 18.772 30.036C18.588 30.036 18.458 30.022 18.382 29.994C18.306 29.962 18.25 29.936 18.214 29.916C18.178 29.896 18.148 29.872 18.124 29.844C18.1 29.812 18.082 29.788 18.07 29.772C18.058 29.752 18.046 29.73 18.034 29.706C18.022 29.678 18.014 29.662 18.01 29.658ZM18.04 27.528L18.01 28.644C18.01 29.064 18.052 29.354 18.136 29.514C18.224 29.67 18.388 29.748 18.628 29.748C18.868 29.748 19.068 29.636 19.228 29.412C19.388 29.184 19.468 28.836 19.468 28.368C19.468 27.66 19.238 27.306 18.778 27.306C18.574 27.306 18.328 27.38 18.04 27.528ZM22.6882 27.648L22.6642 29.232C22.6642 29.332 22.7082 29.454 22.7962 29.598C22.8882 29.738 22.9342 29.82 22.9342 29.844C22.9342 29.864 22.9162 29.88 22.8802 29.892C22.6002 29.984 22.4422 30.03 22.4062 30.03C22.3742 30.03 22.3402 30.002 22.3042 29.946C22.2722 29.886 22.2422 29.814 22.2142 29.73C22.1862 29.646 22.1702 29.602 22.1662 29.598C22.1062 29.638 22.0322 29.688 21.9442 29.748C21.8562 29.808 21.7942 29.85 21.7582 29.874C21.7262 29.894 21.6782 29.92 21.6142 29.952C21.5542 29.984 21.5002 30.006 21.4522 30.018C21.3402 30.046 21.1882 30.06 20.9962 30.06C20.8082 30.06 20.6682 29.984 20.5762 29.832C20.4842 29.68 20.4382 29.514 20.4382 29.334C20.4382 29.154 20.4522 29.01 20.4802 28.902C20.5082 28.794 20.5542 28.704 20.6182 28.632C20.6822 28.56 20.7462 28.5 20.8102 28.452C20.8742 28.404 20.9642 28.364 21.0802 28.332C21.2002 28.296 21.3022 28.27 21.3862 28.254C21.4742 28.234 21.5962 28.21 21.7522 28.182C21.9082 28.15 22.0342 28.124 22.1302 28.104L22.1362 27.744C22.1362 27.56 22.0702 27.428 21.9382 27.348C21.8062 27.268 21.6462 27.228 21.4582 27.228C21.2742 27.228 21.1462 27.276 21.0742 27.372C21.0022 27.464 20.9242 27.664 20.8402 27.972L20.5942 27.948C20.5942 27.6 20.6542 27.356 20.7742 27.216C20.9182 27.048 21.0742 26.944 21.2422 26.904C21.4102 26.864 21.5802 26.844 21.7522 26.844C21.9282 26.844 22.0782 26.864 22.2022 26.904C22.3262 26.944 22.4182 26.99 22.4782 27.042C22.5422 27.09 22.5902 27.158 22.6222 27.246C22.6582 27.33 22.6782 27.398 22.6822 27.45C22.6862 27.502 22.6882 27.568 22.6882 27.648ZM20.9782 29.214C20.9782 29.51 21.1122 29.658 21.3802 29.658C21.6162 29.658 21.8542 29.558 22.0942 29.358C22.1222 29.334 22.1362 29.188 22.1362 28.92C22.1362 28.652 22.1342 28.458 22.1302 28.338C22.0582 28.362 21.9662 28.392 21.8542 28.428C21.7462 28.464 21.6682 28.49 21.6202 28.506C21.5762 28.522 21.5162 28.544 21.4402 28.572C21.3642 28.596 21.3122 28.616 21.2842 28.632C21.2602 28.648 21.2242 28.668 21.1762 28.692C21.1322 28.716 21.1042 28.74 21.0922 28.764C21.0802 28.784 21.0622 28.81 21.0382 28.842C21.0142 28.87 21.0002 28.904 20.9962 28.944C20.9842 29.056 20.9782 29.146 20.9782 29.214ZM23.2555 27.042C23.4195 27.026 23.5835 26.988 23.7475 26.928C23.9155 26.868 24.0235 26.838 24.0715 26.838C24.1235 26.838 24.1595 26.862 24.1795 26.91C24.1995 26.954 24.2095 27.036 24.2095 27.156V27.24C24.6695 26.98 25.0295 26.85 25.2895 26.85C25.5535 26.85 25.7355 26.922 25.8355 27.066C25.9355 27.206 25.9855 27.368 25.9855 27.552V29.556C25.9855 29.644 26.0035 29.704 26.0395 29.736C26.0795 29.768 26.1675 29.788 26.3035 29.796V30H25.0795V29.796C25.2315 29.784 25.3255 29.76 25.3615 29.724C25.4015 29.688 25.4215 29.624 25.4215 29.532V27.63C25.4215 27.53 25.3895 27.454 25.3255 27.402C25.2655 27.346 25.2015 27.314 25.1335 27.306C25.0695 27.294 24.9935 27.288 24.9055 27.288C24.8215 27.288 24.7075 27.312 24.5635 27.36C24.4195 27.404 24.3075 27.454 24.2275 27.51C24.2235 27.746 24.2175 27.992 24.2095 28.248C24.1935 28.768 24.1855 29.128 24.1855 29.328C24.1855 29.524 24.2055 29.65 24.2455 29.706C24.2855 29.758 24.3835 29.788 24.5395 29.796V30H23.2795V29.796C23.3995 29.78 23.4835 29.758 23.5315 29.73C23.5835 29.698 23.6155 29.652 23.6275 29.592C23.6435 29.488 23.6515 29.368 23.6515 29.232C23.6515 29.092 23.6455 28.768 23.6335 28.26C23.6215 27.748 23.6135 27.484 23.6095 27.468C23.6055 27.448 23.5995 27.43 23.5915 27.414C23.5875 27.394 23.5795 27.378 23.5675 27.366C23.5595 27.354 23.5515 27.344 23.5435 27.336C23.5395 27.328 23.5295 27.32 23.5135 27.312C23.4975 27.304 23.4855 27.3 23.4775 27.3C23.4695 27.296 23.4535 27.292 23.4295 27.288C23.4095 27.284 23.3955 27.28 23.3875 27.276C23.3635 27.272 23.3255 27.27 23.2735 27.27L23.2555 27.042Z" fill="#12B76A"/>
<path d="M5.75809 16.53L5.89809 15.83L10.4981 13.78L10.6181 13.89L10.4981 14.5L6.65809 16.21L10.4981 17.92L10.6181 18.53L10.4981 18.64L5.75809 16.53ZM11.9128 16.68C11.6728 16.5867 11.4661 16.4367 11.2928 16.23C11.1261 16.0233 11.0428 15.7567 11.0428 15.43C11.0428 15.1033 11.0994 14.8533 11.2128 14.68C11.4528 14.2933 11.6794 14.0433 11.8928 13.93C12.1061 13.81 12.3794 13.75 12.7128 13.75C13.0461 13.75 13.3461 13.8067 13.6128 13.92C13.6861 13.9467 13.7394 13.9733 13.7728 14C13.8928 14.0733 13.9528 14.21 13.9528 14.41C13.9528 14.43 13.9494 14.48 13.9428 14.56C13.9294 14.7333 13.9228 15.01 13.9228 15.39H13.5528C13.5461 15.3033 13.5161 15.1767 13.4628 15.01C13.4161 14.8433 13.3628 14.7167 13.3028 14.63C13.1694 14.4367 12.9194 14.34 12.5528 14.34C12.1994 14.34 11.9661 14.4267 11.8528 14.6C11.7594 14.74 11.7128 14.8967 11.7128 15.07C11.7128 15.2367 11.7961 15.3867 11.9628 15.52C12.1294 15.6467 12.3328 15.75 12.5728 15.83C12.8128 15.91 13.0528 16 13.2928 16.1C13.5394 16.1933 13.7461 16.3533 13.9128 16.58C14.0794 16.8 14.1628 17.0833 14.1628 17.43C14.1628 17.7767 14.1128 18.0333 14.0128 18.2C13.8328 18.4867 13.6194 18.7267 13.3728 18.92C13.2728 18.9933 13.1161 19.0533 12.9028 19.1C12.6894 19.1467 12.5294 19.17 12.4228 19.17C11.7094 19.17 11.2828 19.05 11.1428 18.81C11.0894 18.7233 11.0628 18.61 11.0628 18.47C11.0628 17.93 11.0761 17.6 11.1028 17.48C11.1361 17.3533 11.2061 17.29 11.3128 17.29C11.4261 17.29 11.4961 17.3367 11.5228 17.43C11.5494 17.5233 11.5728 17.6533 11.5928 17.82C11.6661 18.2933 11.9928 18.53 12.5728 18.53C12.8661 18.53 13.0961 18.4633 13.2628 18.33C13.4294 18.1967 13.5128 18.0167 13.5128 17.79C13.5128 17.5567 13.4261 17.3733 13.2528 17.24C13.0861 17.1067 12.8794 17.0033 12.6328 16.93C12.3928 16.85 12.1528 16.7667 11.9128 16.68ZM16.35 18.43C16.3233 19.2567 16.31 19.79 16.31 20.03C16.3166 20.27 16.3533 20.4267 16.42 20.5C16.4866 20.58 16.65 20.6433 16.91 20.69V21.03H14.87V20.71C15.0833 20.6833 15.2333 20.6367 15.32 20.57C15.4066 20.5033 15.45 20.4067 15.45 20.28C15.4433 19.6533 15.44 17.8433 15.44 14.85C15.44 14.61 15.4033 14.46 15.33 14.4C15.2633 14.34 15.08 14.31 14.78 14.31L14.76 13.98C15.28 13.9333 15.6533 13.8833 15.88 13.83C16.1133 13.77 16.24 13.74 16.26 13.74C16.38 13.74 16.44 13.7933 16.44 13.9C16.44 13.9067 16.4333 13.9933 16.42 14.16C16.4133 14.32 16.41 14.42 16.41 14.46C16.4633 14.4333 16.5933 14.35 16.8 14.21C17.2733 13.8967 17.6933 13.74 18.06 13.74C18.2533 13.74 18.4566 13.7933 18.67 13.9C18.8833 14.0067 19.06 14.1333 19.2 14.28C19.34 14.42 19.4633 14.64 19.57 14.94C19.6833 15.24 19.74 15.5867 19.74 15.98C19.74 16.94 19.54 17.6933 19.14 18.24C18.7466 18.7867 18.24 19.06 17.62 19.06C17.3133 19.06 17.0966 19.0367 16.97 18.99C16.8433 18.9367 16.75 18.8933 16.69 18.86C16.63 18.8267 16.58 18.7867 16.54 18.74C16.5 18.6867 16.47 18.6467 16.45 18.62C16.43 18.5867 16.41 18.55 16.39 18.51C16.37 18.4633 16.3566 18.4367 16.35 18.43ZM16.4 14.88L16.35 16.74C16.35 17.44 16.42 17.9233 16.56 18.19C16.7066 18.45 16.98 18.58 17.38 18.58C17.78 18.58 18.1133 18.3933 18.38 18.02C18.6466 17.64 18.78 17.06 18.78 16.28C18.78 15.1 18.3966 14.51 17.63 14.51C17.29 14.51 16.88 14.6333 16.4 14.88ZM24.1471 15.08L24.1071 17.72C24.1071 17.8867 24.1804 18.09 24.3271 18.33C24.4804 18.5633 24.5571 18.7 24.5571 18.74C24.5571 18.7733 24.5271 18.8 24.4671 18.82C24.0004 18.9733 23.7371 19.05 23.6771 19.05C23.6237 19.05 23.5671 19.0033 23.5071 18.91C23.4537 18.81 23.4037 18.69 23.3571 18.55C23.3104 18.41 23.2837 18.3367 23.2771 18.33C23.1771 18.3967 23.0537 18.48 22.9071 18.58C22.7604 18.68 22.6571 18.75 22.5971 18.79C22.5437 18.8233 22.4637 18.8667 22.3571 18.92C22.2571 18.9733 22.1671 19.01 22.0871 19.03C21.9004 19.0767 21.6471 19.1 21.3271 19.1C21.0137 19.1 20.7804 18.9733 20.6271 18.72C20.4737 18.4667 20.3971 18.19 20.3971 17.89C20.3971 17.59 20.4204 17.35 20.4671 17.17C20.5137 16.99 20.5904 16.84 20.6971 16.72C20.8037 16.6 20.9104 16.5 21.0171 16.42C21.1237 16.34 21.2737 16.2733 21.4671 16.22C21.6671 16.16 21.8371 16.1167 21.9771 16.09C22.1237 16.0567 22.3271 16.0167 22.5871 15.97C22.8471 15.9167 23.0571 15.8733 23.2171 15.84L23.2271 15.24C23.2271 14.9333 23.1171 14.7133 22.8971 14.58C22.6771 14.4467 22.4104 14.38 22.0971 14.38C21.7904 14.38 21.5771 14.46 21.4571 14.62C21.3371 14.7733 21.2071 15.1067 21.0671 15.62L20.6571 15.58C20.6571 15 20.7571 14.5933 20.9571 14.36C21.1971 14.08 21.4571 13.9067 21.7371 13.84C22.0171 13.7733 22.3004 13.74 22.5871 13.74C22.8804 13.74 23.1304 13.7733 23.3371 13.84C23.5437 13.9067 23.6971 13.9833 23.7971 14.07C23.9037 14.15 23.9837 14.2633 24.0371 14.41C24.0971 14.55 24.1304 14.6633 24.1371 14.75C24.1437 14.8367 24.1471 14.9467 24.1471 15.08ZM21.2971 17.69C21.2971 18.1833 21.5204 18.43 21.9671 18.43C22.3604 18.43 22.7571 18.2633 23.1571 17.93C23.2037 17.89 23.2271 17.6467 23.2271 17.2C23.2271 16.7533 23.2237 16.43 23.2171 16.23C23.0971 16.27 22.9437 16.32 22.7571 16.38C22.5771 16.44 22.4471 16.4833 22.3671 16.51C22.2937 16.5367 22.1937 16.5733 22.0671 16.62C21.9404 16.66 21.8537 16.6933 21.8071 16.72C21.7671 16.7467 21.7071 16.78 21.6271 16.82C21.5537 16.86 21.5071 16.9 21.4871 16.94C21.4671 16.9733 21.4371 17.0167 21.3971 17.07C21.3571 17.1167 21.3337 17.1733 21.3271 17.24C21.3071 17.4267 21.2971 17.5767 21.2971 17.69ZM25.0925 14.07C25.3658 14.0433 25.6391 13.98 25.9125 13.88C26.1925 13.78 26.3725 13.73 26.4525 13.73C26.5391 13.73 26.5991 13.77 26.6325 13.85C26.6658 13.9233 26.6825 14.06 26.6825 14.26V14.4C27.4491 13.9667 28.0491 13.75 28.4825 13.75C28.9225 13.75 29.2258 13.87 29.3925 14.11C29.5591 14.3433 29.6425 14.6133 29.6425 14.92V18.26C29.6425 18.4067 29.6725 18.5067 29.7325 18.56C29.7991 18.6133 29.9458 18.6467 30.1725 18.66V19H28.1325V18.66C28.3858 18.64 28.5425 18.6 28.6025 18.54C28.6691 18.48 28.7025 18.3733 28.7025 18.22V15.05C28.7025 14.8833 28.6491 14.7567 28.5425 14.67C28.4425 14.5767 28.3358 14.5233 28.2225 14.51C28.1158 14.49 27.9891 14.48 27.8425 14.48C27.7025 14.48 27.5125 14.52 27.2725 14.6C27.0325 14.6733 26.8458 14.7567 26.7125 14.85C26.7058 15.2433 26.6958 15.6533 26.6825 16.08C26.6558 16.9467 26.6425 17.5467 26.6425 17.88C26.6425 18.2067 26.6758 18.4167 26.7425 18.51C26.8091 18.5967 26.9725 18.6467 27.2325 18.66V19H25.1325V18.66C25.3325 18.6333 25.4725 18.5967 25.5525 18.55C25.6391 18.4967 25.6925 18.42 25.7125 18.32C25.7391 18.1467 25.7525 17.9467 25.7525 17.72C25.7525 17.4867 25.7425 16.9467 25.7225 16.1C25.7025 15.2467 25.6891 14.8067 25.6825 14.78C25.6758 14.7467 25.6658 14.7167 25.6525 14.69C25.6458 14.6567 25.6325 14.63 25.6125 14.61C25.5991 14.59 25.5858 14.5733 25.5725 14.56C25.5658 14.5467 25.5491 14.5333 25.5225 14.52C25.4958 14.5067 25.4758 14.5 25.4625 14.5C25.4491 14.4933 25.4225 14.4867 25.3825 14.48C25.3491 14.4733 25.3258 14.4667 25.3125 14.46C25.2725 14.4533 25.2091 14.45 25.1225 14.45L25.0925 14.07ZM30.3772 18.53L30.4972 17.92L34.3372 16.21L30.4972 14.5L30.3772 13.89L30.4972 13.78L35.2372 15.89L35.0972 16.59L30.4972 18.64L30.3772 18.53Z" fill="#12B76A"/>
</svg>
