<svg width="40" height="40" viewBox="0 0 40 40" fill="none" xmlns="http://www.w3.org/2000/svg">
<rect x="0.5" y="0.5" width="39" height="39" fill="white" stroke="#12B76A"/>
<path d="M4.5 12.25H4.25V12.5V18.5V18.75H4.5H35.5H35.75V18.5V12.5V12.25H35.5H4.5Z" fill="white" stroke="#12B76A" stroke-width="0.5"/>
<path d="M9.83383 15.432L9.81783 16.488C9.81783 16.5547 9.84716 16.636 9.90583 16.732C9.96716 16.8253 9.99783 16.88 9.99783 16.896C9.99783 16.9093 9.98583 16.92 9.96183 16.928C9.77516 16.9893 9.66983 17.02 9.64583 17.02C9.62449 17.02 9.60183 17.0013 9.57783 16.964C9.55649 16.924 9.53649 16.876 9.51783 16.82C9.49916 16.764 9.48849 16.7347 9.48583 16.732C9.44583 16.7587 9.39649 16.792 9.33783 16.832C9.27916 16.872 9.23783 16.9 9.21383 16.916C9.19249 16.9293 9.16049 16.9467 9.11783 16.968C9.07783 16.9893 9.04183 17.004 9.00983 17.012C8.93516 17.0307 8.83383 17.04 8.70583 17.04C8.58049 17.04 8.48716 16.9893 8.42583 16.888C8.36449 16.7867 8.33383 16.676 8.33383 16.556C8.33383 16.436 8.34316 16.34 8.36183 16.268C8.38049 16.196 8.41116 16.136 8.45383 16.088C8.49649 16.04 8.53916 16 8.58183 15.968C8.62449 15.936 8.68449 15.9093 8.76183 15.888C8.84183 15.864 8.90983 15.8467 8.96583 15.836C9.02449 15.8227 9.10583 15.8067 9.20983 15.788C9.31383 15.7667 9.39783 15.7493 9.46183 15.736L9.46583 15.496C9.46583 15.3733 9.42183 15.2853 9.33383 15.232C9.24583 15.1787 9.13916 15.152 9.01383 15.152C8.89116 15.152 8.80583 15.184 8.75783 15.248C8.70983 15.3093 8.65783 15.4427 8.60183 15.648L8.43783 15.632C8.43783 15.4 8.47783 15.2373 8.55783 15.144C8.65383 15.032 8.75783 14.9627 8.86983 14.936C8.98183 14.9093 9.09516 14.896 9.20983 14.896C9.32716 14.896 9.42716 14.9093 9.50983 14.936C9.59249 14.9627 9.65383 14.9933 9.69383 15.028C9.73649 15.06 9.76849 15.1053 9.78983 15.164C9.81383 15.22 9.82716 15.2653 9.82983 15.3C9.83249 15.3347 9.83383 15.3787 9.83383 15.432ZM8.69383 16.476C8.69383 16.6733 8.78316 16.772 8.96183 16.772C9.11916 16.772 9.27783 16.7053 9.43783 16.572C9.45649 16.556 9.46583 16.4587 9.46583 16.28C9.46583 16.1013 9.46449 15.972 9.46183 15.892C9.41383 15.908 9.35249 15.928 9.27783 15.952C9.20583 15.976 9.15383 15.9933 9.12183 16.004C9.09249 16.0147 9.05249 16.0293 9.00183 16.048C8.95116 16.064 8.91649 16.0773 8.89783 16.088C8.88183 16.0987 8.85783 16.112 8.82583 16.128C8.79649 16.144 8.77783 16.16 8.76983 16.176C8.76183 16.1893 8.74983 16.2067 8.73383 16.228C8.71783 16.2467 8.70849 16.2693 8.70583 16.296C8.69783 16.3707 8.69383 16.4307 8.69383 16.476ZM10.152 16L10.208 15.736H11.052L11.096 15.78L11.048 16H10.152ZM13.0781 17.056L13.0821 17.12L12.9061 17.108C12.9061 17.0493 12.8848 17.0133 12.8421 17C12.8021 16.9893 12.6968 16.984 12.5261 16.984C12.3581 16.984 11.9621 16.9893 11.3381 17L11.2941 16.896L12.5221 15.172C12.5221 15.1613 12.3861 15.156 12.1141 15.156C12.0448 15.156 11.9834 15.156 11.9301 15.156C11.8794 15.156 11.8301 15.164 11.7821 15.18C11.7368 15.196 11.7061 15.212 11.6901 15.228C11.6768 15.2413 11.6581 15.2747 11.6341 15.328C11.6101 15.3813 11.5928 15.432 11.5821 15.48C11.5714 15.528 11.5541 15.6067 11.5301 15.716H11.3781C11.3834 15.588 11.3874 15.444 11.3901 15.284C11.3954 15.1213 11.4021 15.028 11.4101 15.004C11.4181 14.9773 11.4408 14.964 11.4781 14.964L12.0981 14.976L12.9501 14.96C13.0274 14.96 13.0661 14.9867 13.0661 15.04C13.0661 15.0933 12.9821 15.2213 12.8141 15.424L12.7101 15.552C12.5208 15.7893 12.3594 16.008 12.2261 16.208C12.0074 16.528 11.8981 16.7173 11.8981 16.776C11.8981 16.7893 11.9154 16.796 11.9501 16.796C12.2008 16.796 12.4341 16.784 12.6501 16.76C12.7088 16.752 12.7554 16.7347 12.7901 16.708C12.8274 16.6787 12.8461 16.6627 12.8461 16.66C12.8488 16.6547 12.8541 16.64 12.8621 16.616C12.8728 16.592 12.9048 16.4773 12.9581 16.272L13.1261 16.284C13.0941 16.5773 13.0781 16.8347 13.0781 17.056ZM14.3055 15.992C14.3055 15.4773 14.5029 15.136 14.8975 14.968C15.0015 14.9227 15.0829 14.9 15.1415 14.9C15.2855 14.9 15.4135 14.9333 15.5255 15C15.6375 15.064 15.7269 15.1493 15.7935 15.256C15.9215 15.472 15.9855 15.7227 15.9855 16.008C15.9855 16.2373 15.9335 16.4347 15.8295 16.6C15.7149 16.784 15.5815 16.9147 15.4295 16.992C15.3282 17.0453 15.2229 17.072 15.1135 17.072C14.8602 17.072 14.6615 16.972 14.5175 16.772C14.3762 16.572 14.3055 16.312 14.3055 15.992ZM14.5735 15.952C14.5735 16.1947 14.6362 16.384 14.7615 16.52C14.8895 16.656 15.0269 16.724 15.1735 16.724C15.3762 16.724 15.5149 16.672 15.5895 16.568C15.6669 16.4613 15.7055 16.284 15.7055 16.036C15.7055 15.788 15.6442 15.5947 15.5215 15.456C15.4015 15.3147 15.2655 15.244 15.1135 15.244C15.0549 15.244 15.0069 15.2467 14.9695 15.252C14.9349 15.2547 14.8895 15.2693 14.8335 15.296C14.7775 15.3227 14.7322 15.36 14.6975 15.408C14.6149 15.528 14.5735 15.7093 14.5735 15.952ZM16.1754 16L16.2314 15.736H17.0754L17.1194 15.78L17.0714 16H16.1754ZM17.3255 15.904C17.3255 15.5173 17.4229 15.248 17.6175 15.096C17.7909 14.9653 18.0055 14.9 18.2615 14.9C18.4002 14.9 18.5202 14.9307 18.6215 14.992C18.7229 15.0533 18.7989 15.1347 18.8495 15.236C18.9455 15.428 18.9935 15.6427 18.9935 15.88C18.9935 16.1147 18.9735 16.3293 18.9335 16.524C18.8935 16.7187 18.8415 16.8813 18.7775 17.012C18.7135 17.1427 18.6349 17.2573 18.5415 17.356C18.4482 17.4547 18.3549 17.532 18.2615 17.588C18.1682 17.644 18.0655 17.6907 17.9535 17.728C17.7829 17.7813 17.5869 17.8107 17.3655 17.816L17.3415 17.68C17.6962 17.6293 17.9682 17.5267 18.1575 17.372C18.3495 17.22 18.4789 16.98 18.5455 16.652C18.3829 16.7507 18.2215 16.8 18.0615 16.8C17.8482 16.8 17.6722 16.7173 17.5335 16.552C17.3949 16.384 17.3255 16.168 17.3255 15.904ZM17.6695 15.796C17.6695 16.188 17.7602 16.432 17.9415 16.528C18.0189 16.5707 18.1229 16.592 18.2535 16.592C18.3842 16.592 18.4909 16.5573 18.5735 16.488C18.5975 16.3173 18.6095 16.16 18.6095 16.016C18.6095 15.8693 18.6042 15.764 18.5935 15.7C18.5855 15.6333 18.5669 15.552 18.5375 15.456C18.5109 15.3573 18.4615 15.2787 18.3895 15.22C18.3175 15.1613 18.2229 15.132 18.1055 15.132C17.9882 15.132 17.8855 15.1893 17.7975 15.304C17.7122 15.416 17.6695 15.58 17.6695 15.796ZM20.5924 17.268C20.4484 17.1027 20.3377 16.916 20.2604 16.708C20.1857 16.4973 20.1484 16.2707 20.1484 16.028C20.1484 15.7853 20.187 15.5533 20.2644 15.332C20.3444 15.108 20.4497 14.9173 20.5804 14.76C20.7137 14.6027 20.867 14.468 21.0404 14.356C21.3817 14.1347 21.755 14.024 22.1604 14.024C22.5737 14.024 22.9217 14.1427 23.2044 14.38C23.3457 14.4973 23.4577 14.6493 23.5404 14.836C23.623 15.0227 23.6644 15.2267 23.6644 15.448C23.6644 15.6667 23.6097 15.9013 23.5004 16.152C23.3937 16.4 23.2617 16.612 23.1044 16.788C22.947 16.9613 22.8044 17.048 22.6764 17.048C22.5004 17.048 22.3924 16.8987 22.3524 16.6C22.2377 16.7093 22.1084 16.812 21.9644 16.908C21.823 17.004 21.7164 17.052 21.6444 17.052C21.5777 17.052 21.5097 17.0267 21.4404 16.976C21.371 16.9227 21.3137 16.8667 21.2684 16.808C21.2257 16.7467 21.1884 16.6627 21.1564 16.556C21.1244 16.4467 21.1084 16.316 21.1084 16.164C21.1084 16.012 21.1417 15.8547 21.2084 15.692C21.275 15.5293 21.3564 15.3933 21.4524 15.284C21.551 15.172 21.6537 15.0827 21.7604 15.016C21.8697 14.9467 21.9777 14.912 22.0844 14.912C22.191 14.912 22.343 14.9493 22.5404 15.024L22.6804 14.9L22.7684 14.936C22.7337 15.0267 22.7044 15.272 22.6804 15.672C22.659 16.072 22.6484 16.3467 22.6484 16.496C22.6484 16.7013 22.687 16.804 22.7644 16.804C22.8257 16.804 22.899 16.7413 22.9844 16.616C23.0724 16.488 23.1484 16.32 23.2124 16.112C23.279 15.904 23.3124 15.7 23.3124 15.5C23.3124 15.3 23.275 15.12 23.2004 14.96C23.1257 14.7973 23.0257 14.6667 22.9004 14.568C22.6497 14.368 22.355 14.268 22.0164 14.268C21.835 14.268 21.667 14.2973 21.5124 14.356C21.3604 14.4147 21.231 14.4947 21.1244 14.596C21.0177 14.6947 20.923 14.8067 20.8404 14.932C20.7604 15.0547 20.6977 15.1867 20.6524 15.328C20.559 15.6027 20.5124 15.8507 20.5124 16.072C20.5124 16.2933 20.5417 16.4933 20.6004 16.672C20.6617 16.8507 20.7524 17.012 20.8724 17.156C20.995 17.3 21.159 17.4133 21.3644 17.496C21.5697 17.5813 21.7817 17.624 22.0004 17.624C22.219 17.624 22.4644 17.5933 22.7364 17.532L22.7684 17.648C22.6777 17.6827 22.547 17.7187 22.3764 17.756C22.2057 17.7933 22.067 17.812 21.9604 17.812C21.667 17.812 21.4017 17.7627 21.1644 17.664C20.9297 17.5653 20.739 17.4333 20.5924 17.268ZM21.3964 16.1C21.3964 16.236 21.439 16.3747 21.5244 16.516C21.6124 16.6573 21.7004 16.728 21.7884 16.728C21.8764 16.728 21.9737 16.696 22.0804 16.632C22.187 16.5653 22.2817 16.48 22.3644 16.376C22.399 15.968 22.4164 15.656 22.4164 15.44C22.2324 15.256 22.0617 15.164 21.9044 15.164C21.7497 15.164 21.6257 15.2507 21.5324 15.424C21.4417 15.5973 21.3964 15.8227 21.3964 16.1ZM23.948 14.784L24.036 14.468L24.092 14.436L24.732 14.744L24.58 14.004L24.908 13.996L24.956 14.036L24.864 14.74L25.516 14.364L25.628 14.676L25.604 14.736L24.904 14.86L25.464 15.368L25.204 15.572L25.14 15.564L24.804 14.94L24.492 15.628L24.22 15.444L24.208 15.38L24.696 14.868L23.948 14.784Z" fill="#12B76A"/>
<path d="M9.20215 25.638L9.26815 25.572H12.7841L12.8501 25.638C12.8301 25.978 12.8201 26.372 12.8201 26.82H12.6101C12.5061 26.444 12.4381 26.224 12.4061 26.16C12.3901 26.112 12.3721 26.068 12.3521 26.028C12.3241 26 12.2881 25.982 12.2441 25.974C12.0361 25.934 11.8621 25.914 11.7221 25.914C11.5821 25.914 11.4621 25.924 11.3621 25.944C11.3301 26.7 11.3141 27.886 11.3141 29.502C11.3141 29.574 11.3501 29.632 11.4221 29.676C11.4981 29.716 11.5741 29.742 11.6501 29.754C11.7261 29.766 11.8301 29.778 11.9621 29.79V30H10.0421V29.79C10.3621 29.762 10.5581 29.712 10.6301 29.64C10.6661 29.604 10.6841 29.558 10.6841 29.502C10.6961 28.726 10.7021 28 10.7021 27.324C10.7021 26.644 10.6981 26.184 10.6901 25.944C10.5901 25.924 10.4701 25.914 10.3301 25.914C10.1901 25.914 10.0161 25.934 9.80815 25.974C9.76415 25.982 9.72815 26 9.70015 26.028C9.68015 26.068 9.66215 26.112 9.64615 26.16C9.61415 26.224 9.54615 26.444 9.44215 26.82H9.23215C9.23215 26.372 9.22215 25.978 9.20215 25.638ZM12.8657 27.606C12.9297 27.458 13.0837 27.298 13.3277 27.126C13.5717 26.95 13.7917 26.862 13.9877 26.862C14.1877 26.862 14.3577 26.884 14.4977 26.928C14.6377 26.972 14.7477 27.038 14.8277 27.126C14.9077 27.21 14.9717 27.294 15.0197 27.378C15.0717 27.458 15.1057 27.56 15.1217 27.684C15.1537 27.884 15.1697 28.036 15.1697 28.14V28.314C15.0417 28.394 14.8317 28.434 14.5397 28.434H13.3097C13.3097 28.862 13.3417 29.136 13.4057 29.256C13.5017 29.432 13.6217 29.542 13.7657 29.586C13.8577 29.614 13.9657 29.628 14.0897 29.628C14.4377 29.628 14.7557 29.486 15.0437 29.202L15.1757 29.34C15.1597 29.356 15.1217 29.396 15.0617 29.46C15.0017 29.52 14.9617 29.56 14.9417 29.58C14.9217 29.6 14.8837 29.638 14.8277 29.694C14.7717 29.746 14.7277 29.782 14.6957 29.802C14.6677 29.822 14.6257 29.852 14.5697 29.892C14.5177 29.932 14.4717 29.96 14.4317 29.976C14.3957 29.992 14.3497 30.012 14.2937 30.036C14.2017 30.072 14.0937 30.09 13.9697 30.09C13.7297 30.09 13.5237 30.044 13.3517 29.952C13.1837 29.856 13.0577 29.728 12.9737 29.568C12.8137 29.276 12.7337 28.928 12.7337 28.524C12.7337 28.12 12.7777 27.814 12.8657 27.606ZM13.3217 28.164H13.6637C14.1957 28.164 14.5117 28.128 14.6117 28.056C14.6117 27.884 14.5837 27.736 14.5277 27.612C14.4237 27.372 14.2397 27.252 13.9757 27.252C13.7117 27.252 13.5357 27.32 13.4477 27.456C13.3637 27.588 13.3217 27.824 13.3217 28.164ZM17.5865 26.928L17.9345 26.916C18.0145 26.916 18.0545 26.958 18.0545 27.042C18.0545 27.09 18.0205 27.12 17.9525 27.132C17.8645 27.152 17.7825 27.216 17.7065 27.324C17.5385 27.528 17.3225 27.83 17.0585 28.23C17.6345 29.134 17.9465 29.642 17.9945 29.754C18.0465 29.862 18.0725 29.94 18.0725 29.988C18.0725 30.068 18.0385 30.108 17.9705 30.108C17.8465 30.108 17.6845 29.992 17.4845 29.76C17.2845 29.528 17.0205 29.16 16.6925 28.656C16.6445 28.732 16.5905 28.816 16.5305 28.908C16.4705 28.996 16.4245 29.066 16.3925 29.118C16.3605 29.166 16.3245 29.22 16.2845 29.28C16.2445 29.34 16.2145 29.388 16.1945 29.424C16.1745 29.46 16.1545 29.496 16.1345 29.532C16.1025 29.596 16.0865 29.644 16.0865 29.676C16.0865 29.732 16.1605 29.772 16.3085 29.796V30H15.3245V29.796C15.4125 29.788 15.4705 29.776 15.4985 29.76C15.5705 29.72 15.6685 29.616 15.7925 29.448C15.9165 29.276 16.1505 28.928 16.4945 28.404C16.4025 28.256 16.3085 28.104 16.2125 27.948C16.1165 27.788 16.0485 27.676 16.0085 27.612C15.9685 27.548 15.9245 27.482 15.8765 27.414C15.8285 27.342 15.7865 27.296 15.7505 27.276C15.6705 27.228 15.5765 27.198 15.4685 27.186L15.4565 26.988C15.5965 26.972 15.7345 26.944 15.8705 26.904C16.0065 26.864 16.0865 26.844 16.1105 26.844C16.1385 26.844 16.1605 26.846 16.1765 26.85C16.1965 26.854 16.2145 26.864 16.2305 26.88C16.2505 26.896 16.2685 26.914 16.2845 26.934C16.3005 26.95 16.3205 26.976 16.3445 27.012C16.3685 27.048 16.3905 27.084 16.4105 27.12C16.4305 27.156 16.4565 27.206 16.4885 27.27C16.5245 27.33 16.5585 27.39 16.5905 27.45C16.6225 27.51 16.6645 27.588 16.7165 27.684C16.7685 27.776 16.8185 27.866 16.8665 27.954C17.1745 27.522 17.3285 27.286 17.3285 27.246C17.3285 27.202 17.3165 27.17 17.2925 27.15C17.2685 27.126 17.2425 27.114 17.2145 27.114C17.1425 27.114 17.1065 27.082 17.1065 27.018C17.1065 26.99 17.1205 26.966 17.1485 26.946C17.1765 26.926 17.2085 26.916 17.2445 26.916L17.5865 26.928ZM18.6372 28.872L18.6552 27.312H18.1332V27.132L18.6552 27.03V26.478L19.1172 26.334C19.1772 26.334 19.2072 26.364 19.2072 26.424L19.1952 26.79V26.976H19.9572L19.9392 27.312H19.1952L19.1772 28.794C19.1772 29.102 19.1952 29.324 19.2312 29.46C19.2712 29.596 19.3432 29.664 19.4472 29.664C19.5512 29.664 19.7012 29.606 19.8972 29.49L20.0232 29.61C19.7152 29.93 19.4632 30.09 19.2672 30.09C19.0072 30.09 18.8372 30.002 18.7572 29.826C18.6772 29.65 18.6372 29.332 18.6372 28.872ZM20.257 30V29.778C20.377 29.77 20.469 29.76 20.533 29.748C20.601 29.736 20.661 29.71 20.713 29.67C20.769 29.63 20.797 29.574 20.797 29.502C20.797 28.118 20.783 26.962 20.755 26.034C20.751 25.946 20.719 25.888 20.659 25.86C20.603 25.828 20.497 25.808 20.341 25.8L20.257 25.794V25.572C20.473 25.588 20.755 25.596 21.103 25.596C21.451 25.596 21.727 25.586 21.931 25.566C22.135 25.546 22.257 25.536 22.297 25.536H22.417C22.625 25.536 22.807 25.562 22.963 25.614C23.123 25.666 23.245 25.728 23.329 25.8C23.417 25.872 23.487 25.958 23.539 26.058C23.623 26.218 23.665 26.404 23.665 26.616C23.665 27.02 23.443 27.33 22.999 27.546L22.819 27.636C23.487 27.86 23.821 28.222 23.821 28.722C23.821 29.078 23.675 29.386 23.383 29.646C23.091 29.906 22.759 30.036 22.387 30.036H22.261C22.145 30.036 21.987 30.028 21.787 30.012L21.595 30C21.379 29.984 21.155 29.976 20.923 29.976C20.695 29.976 20.473 29.984 20.257 30ZM21.385 29.16C21.385 29.384 21.453 29.524 21.589 29.58C21.725 29.636 22.019 29.664 22.471 29.664C22.639 29.664 22.799 29.58 22.951 29.412C23.107 29.244 23.185 29.016 23.185 28.728C23.185 28.436 23.091 28.212 22.903 28.056C22.715 27.896 22.453 27.816 22.117 27.816C21.785 27.816 21.545 27.828 21.397 27.852C21.389 28.308 21.385 28.744 21.385 29.16ZM21.397 27.564C21.657 27.54 21.865 27.528 22.021 27.528C22.177 27.528 22.303 27.532 22.399 27.54C22.615 27.476 22.771 27.366 22.867 27.21C22.963 27.054 23.011 26.89 23.011 26.718C23.011 26.542 22.981 26.394 22.921 26.274C22.861 26.15 22.791 26.06 22.711 26.004C22.547 25.888 22.425 25.83 22.345 25.83C21.905 25.83 21.621 25.854 21.493 25.902L21.421 25.968C21.409 26.532 21.401 27.064 21.397 27.564ZM24.4535 29.646C24.3695 29.53 24.2995 29.37 24.2435 29.166C24.1875 28.958 24.1595 28.698 24.1595 28.386C24.1595 28.07 24.2415 27.778 24.4055 27.51C24.5135 27.342 24.7015 27.19 24.9695 27.054C25.2375 26.914 25.4595 26.844 25.6355 26.844C25.9915 26.844 26.2955 26.958 26.5475 27.186C26.7995 27.414 26.9255 27.77 26.9255 28.254C26.9255 28.734 26.8375 29.108 26.6615 29.376C26.4255 29.692 26.1955 29.9 25.9715 30C25.8195 30.068 25.6615 30.102 25.4975 30.102C25.3335 30.102 25.1995 30.09 25.0955 30.066C24.9915 30.046 24.8795 30 24.7595 29.928C24.6435 29.856 24.5415 29.762 24.4535 29.646ZM24.7295 28.464C24.7295 28.896 24.8115 29.206 24.9755 29.394C25.1435 29.582 25.3855 29.676 25.7015 29.676C25.8215 29.676 25.9095 29.666 25.9655 29.646C26.2415 29.538 26.3795 29.122 26.3795 28.398C26.3795 28.058 26.3335 27.81 26.2415 27.654C26.1535 27.494 25.9995 27.38 25.7795 27.312C25.6675 27.284 25.5655 27.27 25.4735 27.27C25.3815 27.27 25.3135 27.272 25.2695 27.276C25.2295 27.28 25.1755 27.292 25.1075 27.312C25.0395 27.332 24.9875 27.366 24.9515 27.414C24.9155 27.458 24.8775 27.52 24.8375 27.6C24.7655 27.744 24.7295 28.032 24.7295 28.464ZM29.3111 26.928L29.6591 26.916C29.7391 26.916 29.7791 26.958 29.7791 27.042C29.7791 27.09 29.7451 27.12 29.6771 27.132C29.5891 27.152 29.5071 27.216 29.4311 27.324C29.2631 27.528 29.0471 27.83 28.7831 28.23C29.3591 29.134 29.6711 29.642 29.7191 29.754C29.7711 29.862 29.7971 29.94 29.7971 29.988C29.7971 30.068 29.7631 30.108 29.6951 30.108C29.5711 30.108 29.4091 29.992 29.2091 29.76C29.0091 29.528 28.7451 29.16 28.4171 28.656C28.3691 28.732 28.3151 28.816 28.2551 28.908C28.1951 28.996 28.1491 29.066 28.1171 29.118C28.0851 29.166 28.0491 29.22 28.0091 29.28C27.9691 29.34 27.9391 29.388 27.9191 29.424C27.8991 29.46 27.8791 29.496 27.8591 29.532C27.8271 29.596 27.8111 29.644 27.8111 29.676C27.8111 29.732 27.8851 29.772 28.0331 29.796V30H27.0491V29.796C27.1371 29.788 27.1951 29.776 27.2231 29.76C27.2951 29.72 27.3931 29.616 27.5171 29.448C27.6411 29.276 27.8751 28.928 28.2191 28.404C28.1271 28.256 28.0331 28.104 27.9371 27.948C27.8411 27.788 27.7731 27.676 27.7331 27.612C27.6931 27.548 27.6491 27.482 27.6011 27.414C27.5531 27.342 27.5111 27.296 27.4751 27.276C27.3951 27.228 27.3011 27.198 27.1931 27.186L27.1811 26.988C27.3211 26.972 27.4591 26.944 27.5951 26.904C27.7311 26.864 27.8111 26.844 27.8351 26.844C27.8631 26.844 27.8851 26.846 27.9011 26.85C27.9211 26.854 27.9391 26.864 27.9551 26.88C27.9751 26.896 27.9931 26.914 28.0091 26.934C28.0251 26.95 28.0451 26.976 28.0691 27.012C28.0931 27.048 28.1151 27.084 28.1351 27.12C28.1551 27.156 28.1811 27.206 28.2131 27.27C28.2491 27.33 28.2831 27.39 28.3151 27.45C28.3471 27.51 28.3891 27.588 28.4411 27.684C28.4931 27.776 28.5431 27.866 28.5911 27.954C28.8991 27.522 29.0531 27.286 29.0531 27.246C29.0531 27.202 29.0411 27.17 29.0171 27.15C28.9931 27.126 28.9671 27.114 28.9391 27.114C28.8671 27.114 28.8311 27.082 28.8311 27.018C28.8311 26.99 28.8451 26.966 28.8731 26.946C28.9011 26.926 28.9331 26.916 28.9691 26.916L29.3111 26.928Z" fill="#12B76A"/>
</svg>
